<?xml version="1.0" standalone="no"?>
<!DOCTYPE svg PUBLIC "-//W3C//DTD SVG 1.1//EN" "http://www.w3.org/Graphics/SVG/1.1/DTD/svg11.dtd" >
<svg>
<metadata>
Created by FontForge 20090914 at Thu Dec 15 16:35:05 2016
 By www-data
Copyright (c) 2011 by vernon adams. All rights reserved.
</metadata>
<defs>
<font id="FrancoisOne-Regular" horiz-adv-x="1104" >
  <font-face 
    font-family="Francois One"
    font-weight="400"
    font-stretch="normal"
    units-per-em="2048"
    panose-1="2 0 5 3 4 0 0 2 0 4"
    ascent="1638"
    descent="-410"
    x-height="1152"
    cap-height="1536"
    bbox="-292 -671.999 2950 2231"
    underline-thickness="102"
    underline-position="-103"
    unicode-range="U+0002-U+FB04"
  />
<missing-glyph horiz-adv-x="748" 
d="M68 0v1365h544v-1365h-544zM136 68h408v1229h-408v-1229z" />
    <glyph glyph-name=".notdef" horiz-adv-x="748" 
d="M68 0v1365h544v-1365h-544zM136 68h408v1229h-408v-1229z" />
    <glyph glyph-name="uni0002" horiz-adv-x="0" 
 />
    <glyph glyph-name="uni0009" unicode="&#x9;" horiz-adv-x="0" 
 />
    <glyph glyph-name="uni000A" unicode="&#xa;" horiz-adv-x="0" 
 />
    <glyph glyph-name="space" unicode=" " horiz-adv-x="500" 
 />
    <glyph glyph-name="exclam" unicode="!" horiz-adv-x="543" 
d="M127 1536h288l-47 -1088h-192zM127 -12v312h288v-300z" />
    <glyph glyph-name="quotedbl" unicode="&#x22;" horiz-adv-x="836" 
d="M370 1536l-48 -576l-192 -12l-48 588h288zM754 1536l-48 -576l-192 -12l-48 588h288z" />
    <glyph glyph-name="numbersign" unicode="#" horiz-adv-x="1283" 
d="M112 1198h207l45 338h300l-45 -338h186l45 338h300l-45 -338h114v-238h-145l-44 -338h141v-238h-172l-50 -384h-300l50 384h-186l-50 -384h-300l50 384h-149v238h180l44 338h-176v238zM544 622h186l44 338h-186z" />
    <glyph glyph-name="dollar" unicode="$" horiz-adv-x="1040" 
d="M458 29c-52 6 -99.666 19.8311 -142.999 41.498s-82 49.334 -116 83.001s-63.667 72.334 -89 116.001s-46 90.5 -62 140.5l224 119l36 -60.5c12.667 -21.667 26.5 -42.834 41.5 -63.501s31.333 -40.167 49 -58.5s37.5 -33.166 59.5 -44.499v355l-147 87
c-33.333 20 -63.833 41.333 -91.5 64s-51.5 47.667 -71.5 75s-35.5 56.833 -46.5 88.5s-16.5 66.5 -16.5 104.5c0 56.667 9.33301 109.334 28 158.001s44.5 91.5 77.5 128.5s72.333 67.333 118 91s95.5 39.5 149.5 47.5v131h144v-131
c81.333 -11.333 151.166 -43 209.499 -95s102.166 -122.667 131.499 -212l-234 -115l-23.5 51c-7.66699 16.667 -15.5 32.167 -23.5 46.5s-16.833 27.333 -26.5 39s-20.834 21.5 -33.501 29.5v-346l117 -68c54.667 -32 99.167 -63.833 133.5 -95.5s61.333 -62.5 81 -92.5
s33.334 -58.833 41.001 -86.5s12.167 -52.834 13.5 -75.501c0 -61.333 -9.66699 -117.5 -29 -168.5s-46.166 -95.833 -80.499 -134.5s-75 -70.5 -122 -95.5s-98.5 -41.833 -154.5 -50.5v-128h-144v125zM377.001 1107c0 -27.333 8.33203 -51.333 24.999 -72
s35.334 -37.667 56.001 -51v271c-28 -12 -48.5 -31.5 -61.5 -58.5s-19.5 -56.833 -19.5 -89.5zM682 433.998c0 30 -7.66699 56.167 -23 78.5s-34.333 41.833 -57 58.5v-275c23.333 12.667 42.5 31.5 57.5 56.5s22.5 52.167 22.5 81.5z" />
    <glyph glyph-name="percent" unicode="%" horiz-adv-x="2096" 
d="M437 926c24 0 45.167 6.00195 63.5 18.002s33.5 28 45.5 48s21 42.667 27 68s9 51.333 9 78s-3 52.834 -9 78.501s-15 48.667 -27 69s-27 36.666 -45 48.999s-39 18.5 -63 18.5s-45 -6 -63 -18s-33 -28 -45 -48s-21 -42.833 -27 -68.5s-9 -51.834 -9 -78.501
c0 -26 3 -51.667 9 -77s15 -48 27 -68s26.833 -36.333 44.5 -49s38.5 -19.334 62.5 -20.001zM439 732.002c-65.333 0 -122.5 10 -171.5 30s-89.833 47.833 -122.5 83.5s-57.167 78.167 -73.5 127.5s-24.5 103.666 -24.5 162.999c0 58 8.16699 111.333 24.5 160
s40.833 90.834 73.5 126.501s73.5 63.5 122.5 83.5s106.167 30 171.5 30c64 0 120.333 -10 169 -30s89.5 -47.833 122.5 -83.5s58 -77.834 75 -126.501s25.5 -102 25.5 -160c0 -59.333 -8.5 -113.666 -25.5 -162.999s-42 -91.833 -75 -127.5s-73.833 -63.5 -122.5 -83.5
s-105 -30 -169 -30zM1655 193.002c24 0 45.167 6.00195 63.5 18.002s33.5 28 45.5 48s21 42.667 27 68s9 51.333 9 78s-3 52.834 -9 78.501s-15 48.667 -27 69s-27 36.666 -45 48.999s-39 18.5 -63 18.5s-45 -6 -63 -18s-33 -28 -45 -48s-21 -42.833 -27 -68.5
s-9 -51.834 -9 -78.501c0 -26 3 -51.667 9 -77s15 -48 27 -68s26.833 -36.333 44.5 -49s38.5 -19.334 62.5 -20.001zM1657 -0.996094c-65.333 0 -122.5 10 -171.5 30s-89.833 47.833 -122.5 83.5s-57.167 78.167 -73.5 127.5s-24.5 103.666 -24.5 162.999
c0 58 8.16699 111.333 24.5 160s40.833 90.834 73.5 126.501s73.5 63.5 122.5 83.5s106.167 30 171.5 30c64 0 120.333 -10 169 -30s89.5 -47.833 122.5 -83.5s58 -77.834 75 -126.501s25.5 -102 25.5 -160c0 -59.333 -8.5 -113.666 -25.5 -162.999s-42 -91.833 -75 -127.5
s-73.833 -63.5 -122.5 -83.5s-105 -30 -169 -30zM1096 1536h276l-393 -1536h-276z" />
    <glyph glyph-name="ampersand" unicode="&#x26;" horiz-adv-x="1275" 
d="M39 375c0 51.333 8.83398 98.8369 26.501 142.504s40.5 83.834 68.5 120.501s59.5 69.667 94.5 99s69.5 55.333 103.5 78c-26 36.667 -49.333 75.667 -70 117c-17.333 36 -33.166 76.667 -47.499 122s-21.5 92.666 -21.5 141.999c0 54 9.83301 102.667 29.5 146
s46.5 80.166 80.5 110.499s73.833 53.5 119.5 69.5s94.5 24 146.5 24c50 0 96.667 -7.16699 140 -21.5s81.333 -35.5 114 -63.5s58.334 -62.667 77.001 -104s28 -89 28 -143c0 -42 -8.16699 -82.333 -24.5 -121s-37.333 -74.834 -63 -108.501s-54.167 -64.5 -85.5 -92.5
s-62 -52.333 -92 -73l187 -288c13.333 30 26 61.333 38 94c10.667 28 21.5 59.5 32.5 94.5s20.167 70.167 27.5 105.5l227 -71c-12 -54 -27.667 -105.167 -47 -153.5s-38.333 -90.833 -57 -127.5c-22 -42.667 -44.667 -82.667 -68 -120c30 -30 62.333 -54.167 97 -72.5
s77 -30.5 127 -36.5v-258c-58.667 0 -106.834 3.66699 -144.501 11s-70 18.166 -97 32.499s-51.333 31.833 -73 52.5l-72.5 71c-26.667 -24 -55.334 -46.833 -86.001 -68.5s-63.667 -40.834 -99 -57.501s-73.5 -30 -114.5 -40s-84.833 -15 -131.5 -15
c-51.333 0 -99.333 10 -144 30s-83.834 47.833 -117.501 83.5s-60.167 78.167 -79.5 127.5s-29 103.333 -29 162zM443.001 646.004c-21.333 -14 -40.001 -30.167 -56.001 -48.5s-29.333 -37.833 -40 -58.5s-18.834 -42 -24.501 -64s-8.5 -43.333 -8.5 -64
c0 -23.333 3.66699 -45.666 11 -66.999s18.333 -40 33 -56s33.334 -28.667 56.001 -38s49.667 -14 81 -14c27.333 0 53.333 3.66699 78 11s46.334 15.666 65.001 24.999c22 10.667 42.333 23 61 37l-79.5 103.5l-61 80l-45 59.5l-31.5 42zM555 971.004
c0 0.666992 3.16797 4.99902 9.50098 12.999s14.166 18.667 23.499 32l31 45.5c11.333 17 21.666 34.833 30.999 53.5s17.166 37.5 23.499 56.5s9.5 37.5 9.5 55.5c0 19.333 -3.5 36.5 -10.5 51.5s-16.167 27.5 -27.5 37.5s-24 17.5 -38 22.5s-28 7.5 -42 7.5
c-13.333 0 -26.666 -3 -39.999 -9s-25.166 -14.167 -35.499 -24.5s-18.833 -22.166 -25.5 -35.499s-10 -27.333 -10 -42c0 -18.667 1.83301 -36.167 5.5 -52.5s9.5 -34.333 17.5 -54s18.5 -42 31.5 -67z" />
    <glyph glyph-name="quotesingle" unicode="'" horiz-adv-x="451" 
d="M370 1536l-48 -576l-192 -12l-48 588h288z" />
    <glyph glyph-name="parenleft" unicode="(" horiz-adv-x="682" 
d="M627 -76c-64 5.33301 -122.168 20.165 -174.501 44.498s-99.5 55.833 -141.5 94.5s-78.5 83.667 -109.5 135s-56.833 106.5 -77.5 165.5s-36.167 120.833 -46.5 185.5s-15.5 130 -15.5 196c0 67.333 5.33301 134 16 200s26.5 129 47.5 189s47.333 115.667 79 167
s68.334 96 110.001 134s88.5 68.333 140.5 91s109.333 35 172 37v-183c-46 -8.66699 -86.333 -32.667 -121 -72s-63.5 -88.166 -86.5 -146.499s-40.333 -123.666 -52 -195.999s-17.5 -145.833 -17.5 -220.5c0 -77.333 5.83301 -153 17.5 -227s29 -140.333 52 -199
s51.833 -106.667 86.5 -144s75 -58 121 -62v-189z" />
    <glyph glyph-name="parenright" unicode=")" horiz-adv-x="683" 
d="M56 113c46 4 86.332 24.668 120.999 62.001s63.5 85.333 86.5 144s40.333 125 52 199s17.5 149.667 17.5 227c0 74.667 -5.83301 148.167 -17.5 220.5s-29 137.666 -52 195.999s-51.833 107.166 -86.5 146.499s-75 63.333 -121 72v183c62 -2 119.167 -14.333 171.5 -37
s99.333 -53 141 -91s78.334 -82.667 110.001 -134s58 -107 79 -167s36.833 -123 47.5 -189s16 -132.667 16 -200c0 -66 -5.16699 -131.333 -15.5 -196s-25.833 -126.5 -46.5 -185.5s-46.5 -114.167 -77.5 -165.5s-67.5 -96.333 -109.5 -135s-89.333 -70.167 -142 -94.5
s-110.667 -39.166 -174 -44.499v189z" />
    <glyph glyph-name="asterisk" unicode="*" horiz-adv-x="1051" 
d="M657 1392l-51 -362l316 152l80 -273l-350 -54l262 -260l-227 -167l-161 320l-161 -320l-227 167l262 260l-350 54l80 273l316 -152l-51 362h262z" />
    <glyph glyph-name="plus" unicode="+" horiz-adv-x="855" 
d="M546 260v-240h-238v240h-240v238h240v240h238v-240h240v-238h-240z" />
    <glyph glyph-name="comma" unicode="," horiz-adv-x="488" 
d="M387 288l0.000976562 -288.001c0 -36 -3.5 -67.667 -10.5 -95s-16 -51.166 -27 -71.499s-23.833 -37.5 -38.5 -51.5s-29.334 -25.333 -44.001 -34c-35.333 -21.333 -75.333 -33.333 -120 -36v192c24 0 42.5 5 55.5 15s22.5 21 28.5 33c7.33301 14 11.333 30 12 48h-144
v288h288z" />
    <glyph glyph-name="hyphen" unicode="-" horiz-adv-x="804" 
d="M114 718h576v-238h-576v238z" />
    <glyph glyph-name="period" unicode="." horiz-adv-x="489" 
d="M390 288v-276l-288 -24v300h288z" />
    <glyph glyph-name="slash" unicode="/" horiz-adv-x="628" 
d="M265 1536h300l-201 -1536h-300z" />
    <glyph glyph-name="zero" unicode="0" horiz-adv-x="1138" 
d="M568 -27c-67.333 0 -125.667 11.667 -175 35s-91.333 55 -126 95s-63 86.667 -85 140s-39.167 110.166 -51.5 170.499s-21 122.333 -26 186s-7.5 125.834 -7.5 186.501c0 55.333 2.5 112.5 7.5 171.5s13.833 116.667 26.5 173s30.167 109.666 52.5 159.999
s50.833 94.5 85.5 132.5s76.5 68 125.5 90s106.833 33 173.5 33c66 0 123.667 -11 173 -33s91.5 -52 126.5 -90s63.833 -82.167 86.5 -132.5s40.5 -103.666 53.5 -159.999s22 -114 27 -173s7.5 -116.167 7.5 -171.5c-0.666992 -60.667 -3.5 -122.834 -8.5 -186.501
s-13.833 -125.667 -26.5 -186s-30.167 -117.166 -52.5 -170.499s-51 -100 -86 -140s-77.167 -71.667 -126.5 -95s-107.333 -35 -174 -35zM567.999 228c18.667 0 36.1689 2.66699 52.502 8s31.5 15.333 45.5 30s26.333 35 37 61s19.834 59.667 27.501 101
s13.5 91.333 17.5 150s6 128 6 208c0 76 -1.5 145.833 -4.5 209.5s-10.833 118.667 -23.5 165s-31.334 82.5 -56.001 108.5s-58.667 39 -102 39c-44 0 -78.333 -13 -103 -39s-42.834 -62.167 -54.501 -108.5s-18.667 -101.333 -21 -165s-3.5 -133.5 -3.5 -209.5
c0 -80 1.83301 -149.333 5.5 -208s9.16699 -108.667 16.5 -150s16.333 -75 27 -101s22.667 -46.333 36 -61s28.166 -24.667 44.499 -30s33.833 -8 52.5 -8z" />
    <glyph glyph-name="one" unicode="1" horiz-adv-x="820" 
d="M96 251h196.998v881l-71 -8c-19.333 -2 -39.666 -3.83301 -60.999 -5.5s-38.666 -2.5 -51.999 -2.5h-26v215l349 205h149v-1285h199l-12 -251h-672v251z" />
    <glyph glyph-name="two" unicode="2" horiz-adv-x="1033" 
d="M95 1148c10 50.667 27.3291 98.9961 51.9961 144.996s56 86.333 94 121s82 62.334 132 83.001s105 31 165 31c56.667 0 110.334 -7.83301 161.001 -23.5s94.667 -39.334 132 -71.001s67 -71 89 -118s33 -101.5 33 -163.5c0 -54.667 -8 -109.167 -24 -163.5
s-37.667 -108.166 -65 -161.499s-59.333 -105.666 -96 -156.999s-75.5 -101.333 -116.5 -150s-83.333 -95.5 -127 -140.5l-127.5 -127.5h530c0 -25.333 -1.33301 -48 -4 -68s-5.5 -39.5 -8.5 -58.5s-5.66699 -38.5 -8 -58.5s-3.5 -42.333 -3.5 -67h-839v223
c38 49.333 79 99.333 123 150l131 153l126 156c40.667 52.667 76.334 105.334 107.001 158.001s55.334 105.334 74.001 158.001s28 105.334 28 158.001c0 18.667 -2.83301 36.667 -8.5 54s-13.667 32.333 -24 45s-23.333 22.834 -39 30.501s-33.5 11.5 -53.5 11.5
c-19.333 0 -36.833 -3.33301 -52.5 -10s-29.667 -15.334 -42 -26.001s-23.166 -22.834 -32.499 -36.501s-17.333 -27.5 -24 -41.5c-16.667 -33.333 -28.667 -71 -36 -113z" />
    <glyph glyph-name="three" unicode="3" horiz-adv-x="1039" 
d="M91 1241c26.667 52 54.9961 96.5029 84.9961 133.503s62.5 67.333 97.5 91s72.833 41 113.5 52s85.667 16.5 135 16.5c50.667 0 100 -8.16699 148 -24.5s90.833 -40.333 128.5 -72s67.834 -71.167 90.501 -118.5s34 -102 34 -164c0 -21.333 -2 -47 -6 -77
s-14 -61.333 -30 -94s-39.667 -65 -71 -97s-74.333 -60.667 -129 -86c40.667 -15.333 77 -33.833 109 -55.5s59 -47.667 81 -78s38.667 -65.333 50 -105s17 -84.5 17 -134.5c0 -73.333 -11.667 -138.166 -35 -194.499s-55 -103.666 -95 -141.999s-86.667 -67.333 -140 -87
s-110 -29.5 -170 -29.5c-52.667 0 -104 6.83301 -154 20.5s-96 34.5 -138 62.5s-78.333 63.167 -109 105.5s-53 92.166 -67 149.499l218 95c9.33301 -22.667 19.833 -44.334 31.5 -65.001s26.334 -39 44.001 -55s39 -28.667 64 -38s55.5 -14 91.5 -14
c26 0 49.333 5.16699 70 15.5s38.5 24.166 53.5 41.499s26.5 37.333 34.5 60s12 46.334 12 71.001c0 52.667 -8.66699 95.167 -26 127.5s-40.666 57.166 -69.999 74.499s-63.666 28.833 -102.999 34.5s-81.333 8.5 -126 8.5v230c41.333 0 80.333 2.83301 117 8.5
s68.834 16.5 96.501 32.5s49.5 38 65.5 66s24 64.667 24 110c0 22 -3 43.167 -9 63.5s-15 38.166 -27 53.499s-27 27.666 -45 36.999s-39 14 -63 14c-33.333 0 -61.833 -8.33301 -85.5 -25s-43.5 -35 -59.5 -55c-18.667 -23.333 -34.334 -50 -47.001 -80z" />
    <glyph glyph-name="four" unicode="4" horiz-adv-x="1087" 
d="M568 384h-523v230l510 922h301v-922h192l-24 -230h-168v-372l-288 -24v396zM568 614v539l-285 -539h285z" />
    <glyph glyph-name="five" unicode="5" horiz-adv-x="1053" 
d="M309 434c7.33301 -36.667 19.3389 -69.3301 36.0059 -97.9971c6.66699 -12 14.667 -23.833 24 -35.5s20.166 -22 32.499 -31s26.166 -16.333 41.499 -22s32.666 -8.5 51.999 -8.5c34 0 63 5.83301 87 17.5s43.667 28.5 59 50.5s26.5 48.667 33.5 80
s10.5 66.666 10.5 105.999c0 30 -3.66699 60.333 -11 91s-18.5 58.167 -33.5 82.5s-33.833 44.166 -56.5 59.499s-49.667 23 -81 23c-36 0 -70.167 -10.333 -102.5 -31s-60.833 -46 -85.5 -76l-214 89l66 805h755l-24 -240h-481l-33 -358c18 7.33301 37.667 14 59 20
c18 5.33301 39 10.166 63 14.499s49.667 6.5 77 6.5h2c57.333 0 110.333 -12.833 159 -38.5s90.667 -60.5 126 -104.5s63 -95.167 83 -153.5s30 -119.833 30 -184.5c0 -76 -11.5 -146 -34.5 -210s-55 -119.167 -96 -165.5s-89.667 -82.5 -146 -108.5
s-117.833 -39 -184.5 -39c-51.333 0 -100.833 8.16699 -148.5 24.5s-91.334 40.333 -131.001 72s-73.834 70.667 -102.501 117s-49.334 99.5 -62.001 159.5z" />
    <glyph glyph-name="six" unicode="6" horiz-adv-x="1039" 
d="M93 774c0 54 3.83496 110.669 11.502 170.002s19.834 117.666 36.501 174.999s38 111.833 64 163.5s57 97 93 136s77.5 70 124.5 93s99.833 34.5 158.5 34.5c42.667 0 83.167 -8.16699 121.5 -24.5s72.666 -40.333 102.999 -72s55.833 -70.5 76.5 -116.5s35 -99 43 -159
l-224 -52l-13.5 60.5c-5 21.667 -12.333 41.667 -22 60s-22.667 33.5 -39 45.5s-37.833 18 -64.5 18c-27.333 0 -50.666 -7.5 -69.999 -22.5s-35.333 -34.833 -48 -59.5s-22.834 -52.834 -30.501 -84.501s-13.5 -64.167 -17.5 -97.5s-6.66699 -66.166 -8 -98.499
s-2 -61.5 -2 -87.5c31.333 23.333 68.166 42.166 110.499 56.499s84.166 21.5 125.499 21.5c52.667 0 100.334 -11.667 143.001 -35s78.834 -54.5 108.501 -93.5s52.5 -84 68.5 -135s24 -103.833 24 -158.5c0 -69.333 -10.333 -136.333 -31 -201s-49.834 -122 -87.501 -172
s-82.834 -90.167 -135.501 -120.5s-110.667 -45.5 -174 -45.5c-62.667 0 -117.167 11 -163.5 33s-85.833 52.167 -118.5 90.5s-59.667 83.5 -81 135.5s-38 107.667 -50 167s-20.333 121 -25 185s-7 127.333 -7 190zM386.002 619.002l-0.000976562 -83.002
c0 -26.667 1 -54 3 -82s5.5 -55.333 10.5 -82s12.667 -50.5 23 -71.5s23.833 -38 40.5 -51s37.334 -19.5 62.001 -19.5c30.667 0 55.834 8.16699 75.501 24.5s35.167 36.833 46.5 61.5s19.166 51.334 23.499 80.001s6.5 55.667 6.5 81c0 26 -2.66699 51.667 -8 77
s-14 48.333 -26 69s-28 37.334 -48 50.001s-44.667 19 -74 19c-18 0 -35.167 -2.33301 -51.5 -7s-30.5 -9.66699 -42.5 -15c-14 -6.66699 -27 -13.667 -39 -21c-0.666992 -5.33301 -1 -10.666 -1 -15.999c-0.666992 -4.66699 -1 -9.33398 -1 -14.001z" />
    <glyph glyph-name="seven" unicode="7" horiz-adv-x="923" 
d="M161 0c8.66699 100.667 25.665 202.834 50.998 306.501s56.5 209 93.5 316s78.167 215.833 123.5 326.5l140 339h-531l24 248h828v-213c-58 -114.667 -110.167 -230.167 -156.5 -346.5s-85.666 -230.833 -117.999 -343.5s-57.166 -222.334 -74.499 -329.001
s-26 -208 -26 -304h-354z" />
    <glyph glyph-name="eight" unicode="8" horiz-adv-x="1107" 
d="M81 371c0 48 6.50098 92.334 19.501 133.001s31 77.834 54 111.501s50 64 81 91s64.833 50.833 101.5 71.5c-68 40 -120.167 88 -156.5 144s-54.5 122.667 -54.5 200c0 64 11.5 122.167 34.5 174.5s54.333 97 94 134s86.334 65.5 140.001 85.5s111.167 30 172.5 30
c52.667 0 103.667 -8.16699 153 -24.5s93 -40.166 131 -71.499s68.5 -69.833 91.5 -115.5s34.5 -97.834 34.5 -156.501c0 -36.667 -5.83301 -71.834 -17.5 -105.501s-27.5 -65.334 -47.5 -95.001s-43.333 -56.834 -70 -81.501s-55 -46 -85 -64
c36.667 -22.667 71.667 -47 105 -73s62.666 -54.833 87.999 -86.5s45.333 -66.667 60 -105s22 -80.833 22 -127.5c0 -76 -13.5 -143 -40.5 -201s-63.167 -106.667 -108.5 -146s-97.5 -69.166 -156.5 -89.499s-120.833 -30.5 -185.5 -30.5
c-55.333 0 -110.333 8.16699 -165 24.5s-103.834 41 -147.501 74s-79.167 74.5 -106.5 124.5s-41 108.333 -41 175zM369.001 398.001c0 -35.333 4.66895 -65.6689 14.002 -91.002s22.166 -46 38.499 -62s35.666 -27.833 57.999 -35.5s46.5 -11.5 72.5 -11.5
c24 0 47.5 3.16699 70.5 9.5s43.5 16.333 61.5 30s32.5 31.667 43.5 54s16.5 49.5 16.5 81.5c0 24 -3.33301 46.667 -10 68s-15.334 41.333 -26.001 60s-23 35.667 -37 51s-28 29 -42 41c-34 28.667 -72.333 53.334 -115 74.001
c-27.333 -21.333 -51.666 -45.666 -72.999 -72.999c-18 -23.333 -34.5 -51.5 -49.5 -84.5s-22.5 -70.167 -22.5 -111.5zM406.003 1165c0 -29.333 5.16504 -55.502 15.498 -78.502s23.333 -43.5 39 -61.5s32.834 -34.167 51.501 -48.5s36.667 -26.833 54 -37.5
c30.667 18.667 58 39.334 82 62.001c20.667 19.333 39.667 42.166 57 68.499s26 54.833 26 85.5c0 20.667 -4.16699 39.834 -12.5 57.501s-20 32.834 -35 45.501s-32.833 22.5 -53.5 29.5s-43 10.5 -67 10.5c-21.333 0 -41.5 -3.33301 -60.5 -10
s-35.667 -15.834 -50 -27.501s-25.666 -25.667 -33.999 -42s-12.5 -34.166 -12.5 -53.499z" />
    <glyph glyph-name="nine" unicode="9" horiz-adv-x="1039" 
d="M946 745c0 -54 -3.83691 -110.671 -11.5039 -170.004s-19.834 -117.666 -36.501 -174.999s-38 -111.833 -64 -163.5s-57 -97 -93 -136s-77.5 -70 -124.5 -93s-99.833 -34.5 -158.5 -34.5c-43.333 0 -84 8.16699 -122 24.5s-72.167 40.333 -102.5 72
s-55.833 70.5 -76.5 116.5s-35 99 -43 159l224 52c4 -19.333 8.5 -39.666 13.5 -60.999s12.333 -41.166 22 -59.499s22.667 -33.5 39 -45.5s37.833 -18 64.5 -18c27.333 0 50.666 7.5 69.999 22.5s35.333 34.833 48 59.5s22.834 52.834 30.501 84.501s13.5 64.167 17.5 97.5
s6.5 66.166 7.5 98.499s1.83301 61.5 2.5 87.5c-31.333 -23.333 -68.166 -42.166 -110.499 -56.499s-84.166 -21.5 -125.499 -21.5c-53.333 0 -101.166 11.667 -143.499 35s-78.333 54.5 -108 93.5s-52.5 83.833 -68.5 134.5s-24 103.667 -24 159
c0 68.667 10.333 135.5 31 200.5s49.834 122.5 87.501 172.5s82.834 90.167 135.501 120.5s110.667 45.5 174 45.5c62.667 0 117.167 -11 163.5 -33s85.833 -52.167 118.5 -90.5s59.667 -83.5 81 -135.5s38 -107.667 50 -167s20.333 -121 25 -185s7 -127.333 7 -190z
M652.996 910.996l0.000976562 72.0039c0 26.667 -1 54 -3 82s-5.5 55.333 -10.5 82s-12.667 50.667 -23 72s-23.833 38.333 -40.5 51s-37.334 19 -62.001 19c-30.667 0 -55.834 -8.16699 -75.501 -24.5s-35.167 -36.833 -46.5 -61.5s-19.166 -51.5 -23.499 -80.5
s-6.5 -55.833 -6.5 -80.5c0 -26 2.66699 -51.667 8 -77s14 -48.333 26 -69s28 -37.334 48 -50.001s44.667 -19 74 -19c18 0 35 2.16699 51 6.5s30 9.16602 42 14.499c14 6.66699 27.333 14 40 22c0 5.33301 0.333008 10.666 1 15.999c0 4.66699 0.166992 9.16699 0.5 13.5
s0.5 8.16602 0.5 11.499z" />
    <glyph glyph-name="colon" unicode=":" horiz-adv-x="516" 
d="M402 288v-288l-288 -12v300h288zM402 864v-288h-288v288h288z" />
    <glyph glyph-name="semicolon" unicode=";" horiz-adv-x="517" 
d="M403 288l0.000976562 -288.001c0 -36 -3.5 -67.667 -10.5 -95s-16 -51.166 -27 -71.499s-23.833 -37.5 -38.5 -51.5s-29.334 -25.333 -44.001 -34c-35.333 -21.333 -75.333 -33.333 -120 -36v192c24 0 42.5 5 55.5 15s22.5 21 28.5 33c7.33301 14 11.333 30 12 48
l-144 -12v300h288zM403.001 863.999v-288h-288v288h288z" />
    <glyph glyph-name="less" unicode="&#x3c;" horiz-adv-x="976" 
d="M56 439v265l810 360l-14 -261l-451 -196l477 -175l-14 -343z" />
    <glyph glyph-name="equal" unicode="=" horiz-adv-x="804" 
d="M114 526h576v-238h-576v238zM114 910h576v-238h-576v238z" />
    <glyph glyph-name="greater" unicode="&#x3e;" horiz-adv-x="976" 
d="M112 89l-14 343l477 175l-451 196l-14 261l810 -360v-265z" />
    <glyph glyph-name="question" unicode="?" horiz-adv-x="885" 
d="M435 384l-239.999 -0.00292969c-6.66699 72.667 -6.66699 133.5 0 182.5s17.667 90 33 123s33.833 59.833 55.5 80.5s44.334 38.834 68.001 54.501s47.167 30.334 70.5 44.001s44.166 30.5 62.499 50.5s33.333 44.5 45 73.5s17.5 66.5 17.5 112.5
c0 13.333 -0.666992 31.833 -2 55.5s-5.5 47.167 -12.5 70.5s-18.5 43.666 -34.5 60.999s-38.333 26 -67 26c-22 0 -39.667 -7.16699 -53 -21.5s-23.833 -31.833 -31.5 -52.5s-13 -42.167 -16 -64.5s-5.5 -41.833 -7.5 -58.5l-273 12c2 60.667 12.833 116.334 32.5 167.001
s46.5 94.334 80.5 131.001s74.333 65 121 85s98 30 154 30c68.667 0 128.167 -13.167 178.5 -39.5s91.666 -60.833 123.999 -103.5s56.333 -91 72 -145s23.5 -108.333 23.5 -163c0 -60.667 -5.66699 -111.834 -17 -153.501s-26.5 -77.167 -45.5 -106.5
s-40.5 -53.666 -64.5 -72.999s-48.5 -37.333 -73.5 -54l-73.5 -49.5c-24 -16.333 -45.5 -36 -64.5 -59s-34.167 -50.667 -45.5 -83s-17 -72.5 -17 -120.5v-12zM458.001 287.997v-288l-288 -12v300h288z" />
    <glyph glyph-name="at" unicode="@" horiz-adv-x="1578" 
d="M1526 775c0 -66.667 -7.33594 -126.329 -22.0029 -178.996s-36 -97.334 -64 -134.001s-62.167 -64.834 -102.5 -84.501s-86.5 -29.5 -138.5 -29.5c-9.33301 0 -23.166 1.33301 -41.499 4s-37.666 9.5 -57.999 20.5s-40.166 27.167 -59.499 48.5s-34.666 51 -45.999 89
c-34 -62.667 -73 -109.334 -117 -140.001s-90 -46 -138 -46c-36 0 -71.167 7.66699 -105.5 23s-64.833 38.5 -91.5 69.5s-48 70 -64 117s-24 102.167 -24 165.5c0 66 8.16699 122.333 24.5 169s37.666 84.834 63.999 114.501s56 51.334 89 65.001s66.167 20.5 99.5 20.5
c23.333 0 46.166 -2.83301 68.499 -8.5s43.166 -14 62.499 -25s37 -24.333 53 -40s29 -33.5 39 -53.5l36 109h157v-469c0 -40 6 -68.667 18 -86s27 -26 45 -26c21.333 0 39.166 5.66699 53.499 17s26.166 26.166 35.499 44.499s16.5 39 21.5 62s8.66699 45.833 11 68.5
s3.66602 44 3.99902 64s0.5 36.667 0.5 50c0 80 -12.667 150.167 -38 210.5s-60.833 110.666 -106.5 150.999s-100.334 70.666 -164.001 90.999s-133.5 30.5 -209.5 30.5c-59.333 0 -114 -7.83301 -164 -23.5s-94.833 -37.334 -134.5 -65.001s-74.5 -60.167 -104.5 -97.5
s-55.167 -77.833 -75.5 -121.5s-35.5 -89.334 -45.5 -137.001s-15 -95.167 -15 -142.5c0 -66.667 9.66699 -131.167 29 -193.5s49 -117.666 89 -165.999s90.833 -87.166 152.5 -116.499s134.834 -44 219.501 -44c62.667 0 129.334 9.83301 200.001 29.5
s149.334 50.834 236.001 93.501l72 -150c-98 -54 -190.167 -93.5 -276.5 -118.5s-168.833 -37.5 -247.5 -37.5c-119.333 0 -222.833 19.667 -310.5 59s-160.167 91.5 -217.5 156.5s-100 139.333 -128 223s-42 170.167 -42 259.5c0 64 7.5 128 22.5 192s37 125 66 183
s65.167 112.167 108.5 162.5s93.333 93.833 150 130.5s119.834 65.5 189.501 86.5s145.5 31.5 227.5 31.5c58.667 0 117 -6.33301 175 -19s113.167 -31.667 165.5 -57s100.833 -56.833 145.5 -94.5s83.334 -81.5 116.001 -131.5s58.334 -106.333 77.001 -169
s28 -131.334 28 -206.001zM923.997 844.005c-44 44.667 -83.335 67.001 -118.002 67.001c-18 0 -34.333 -5.16699 -49 -15.5s-27.167 -24.666 -37.5 -42.999s-18.166 -40.5 -23.499 -66.5s-8 -55 -8 -87c0 -31.333 3.16699 -58.833 9.5 -82.5s14.833 -43.334 25.5 -59.001
s22.834 -27.334 36.501 -35.001s28.167 -11.5 43.5 -11.5c22 0 44 9.5 66 28.5s40.333 47.5 55 85.5v219z" />
    <glyph glyph-name="A" unicode="A" horiz-adv-x="1131" 
d="M359 329l-67 -329h-267l324 1518l427 18l332 -1524l-327 -12l-57 329h-365zM670 575l-141 735l-116 -735h257z" />
    <glyph glyph-name="B" unicode="B" horiz-adv-x="1127" 
d="M142 1536l343.998 0.000976562c98.667 0 181.834 -10.333 249.501 -31s122.5 -49 164.5 -85s72.167 -78 90.5 -126s27.5 -99.333 27.5 -154c0 -37.333 -3.83301 -72.666 -11.5 -105.999s-18.667 -63.833 -33 -91.5s-31.833 -52.167 -52.5 -73.5s-44 -38.333 -70 -51
c27.333 -14 53.833 -30.667 79.5 -50s48.5 -43.833 68.5 -73.5s36 -65.834 48 -108.501s18 -94.334 18 -155.001c0 -60 -9.16699 -112.333 -27.5 -157s-43.666 -83 -75.999 -115s-70.333 -58.167 -114 -78.5s-90.5 -36.5 -140.5 -48.5s-102.167 -20.333 -156.5 -25
s-108.5 -7 -162.5 -7h-246v1536zM496.998 240.001c54.667 0 100.002 7.83398 136.002 23.501s64.667 35.167 86 58.5s36.333 48.333 45 75s13 51.334 13 74.001c0 49.333 -7.33301 88.666 -22 117.999s-34.334 51.666 -59.001 66.999s-53.334 25.333 -86.001 30
s-66.667 7 -102 7h-66v-453h55zM504 911.002c34.667 0 66.5 2.16797 95.5 6.50098s53.833 13.5 74.5 27.5s36.667 34.167 48 60.5s17 61.5 17 105.5c0 38 -6.66699 69.167 -20 93.5s-31.333 43.166 -54 56.499s-49 22.5 -79 27.5s-61.667 7.5 -95 7.5h-59v-385h72z" />
    <glyph glyph-name="C" unicode="C" horiz-adv-x="1069" 
d="M997 523c0 -71.333 -8.83301 -140.502 -26.5 -207.502s-44.5 -126.167 -80.5 -177.5s-81.333 -92.5 -136 -123.5s-119 -46.5 -193 -46.5c-64 0 -120.5 11.5 -169.5 34.5s-91.167 54.667 -126.5 95s-64.833 87.333 -88.5 141s-42.5 111.334 -56.5 173.001
s-24 125.667 -30 192s-9 131.833 -9 196.5c0 57.333 3.66699 116.166 11 176.499s19 119 35 176s36.833 110.667 62.5 161s56.5 94.333 92.5 132s77.667 67.5 125 89.5s101 33 161 33c67.333 0 127.5 -16.167 180.5 -48.5s97.667 -74.666 134 -126.999
s64.166 -111.5 83.499 -177.5s29 -133 29 -201l-290 -15c0 5.33301 -0.333008 17.166 -1 35.499s-2.66699 39.666 -6 63.999s-8.16602 50 -14.499 77s-15.166 51.833 -26.499 74.5s-25.666 41.334 -42.999 56.001s-38.333 22 -63 22c-24 0 -44.833 -7.83301 -62.5 -23.5
s-32.834 -36.667 -45.501 -63s-23 -57.166 -31 -92.499s-14.333 -72.5 -19 -111.5s-7.83398 -78.833 -9.50098 -119.5s-2.5 -80 -2.5 -118c0 -48 0.833008 -95.667 2.5 -143s5.16699 -92.333 10.5 -135s12.5 -82.167 21.5 -118.5s21 -67.666 36 -93.999s33 -47 54 -62
s45.833 -22.5 74.5 -22.5c31.333 0 56.833 10.5 76.5 31.5s35.5 47.5 47.5 79.5s20.667 66.833 26 104.5s9.33301 73.167 12 106.5z" />
    <glyph glyph-name="D" unicode="D" horiz-adv-x="1132" 
d="M142 1536l314 0.00195312c202 0 353 -63.833 453 -191.5s150 -321.834 150 -582.501c0 -64.667 -4.33301 -128.5 -13 -191.5s-22.167 -122.667 -40.5 -179s-41.833 -108.5 -70.5 -156.5s-63.334 -89.333 -104.001 -124s-87.667 -61.834 -141 -81.501
s-113.666 -29.5 -180.999 -29.5h-367v1536zM441 1296l0.00292969 -1056h43c38 0 71.333 6.5 100 19.5s53.167 30.833 73.5 53.5s37 49.167 50 79.5s23.333 62.666 31 96.999s13 69.833 16 106.5s4.5 73 4.5 109v112c0 42 -2 84.833 -6 128.5s-11.333 86.5 -22 128.5
s-26.334 79.5 -47.001 112.5s-47.834 59.5 -81.501 79.5s-75.834 30 -126.501 30h-35z" />
    <glyph glyph-name="E" unicode="E" horiz-adv-x="988" 
d="M142 1536h780l-24 -240h-456v-366h323l-1 -258h-322v-432h496l-24 -240h-772v1536z" />
    <glyph glyph-name="F" unicode="F" horiz-adv-x="940" 
d="M141 1536h780l-24 -241h-456v-402h322v-255h-322v-626l-300 -24v1548z" />
    <glyph glyph-name="G" unicode="G" horiz-adv-x="1132" 
d="M739 1015c-2.66699 19.333 -5.17188 40.498 -7.50488 63.498s-5.66602 46.333 -9.99902 70s-9.83301 46.5 -16.5 68.5s-15.667 41.5 -27 58.5s-25.333 30.667 -42 41s-36.667 15.5 -60 15.5c-26.667 0 -50 -8.83301 -70 -26.5s-37.333 -41.167 -52 -70.5
s-26.667 -63.5 -36 -102.5s-16.666 -79.667 -21.999 -122s-9.16602 -85.333 -11.499 -129s-3.5 -84.834 -3.5 -123.501c0 -36.667 0.333008 -75.667 1 -117s2.83398 -82.333 6.50098 -123s9.33398 -79.667 17.001 -117s18.834 -70.166 33.501 -98.499s33.334 -51 56.001 -68
s50.334 -25.5 83.001 -25.5c26.667 0 50.167 7.5 70.5 22.5s37.5 35.833 51.5 62.5s24.5 58.334 31.5 95.001s10.5 76.334 10.5 119.001h-152l24 260h417v-756l-115 -12c-0.666992 2.66699 -2.16699 9 -4.5 19l-8.5 35.5l-11.5 45.5c-4.33301 16.667 -8.5 33.667 -12.5 51
l-33 134c-4.66699 -59.333 -19 -112.333 -43 -159c-10 -20 -22.833 -39.333 -38.5 -58s-34.834 -35.5 -57.501 -50.5s-49.334 -27 -80.001 -36s-66 -13.5 -106 -13.5c-54 0 -102.5 10.167 -145.5 30.5s-80.667 48.666 -113 84.999s-60 79.666 -83 129.999
s-41.833 105.333 -56.5 165s-25.334 123 -32.001 190s-10 135.5 -10 205.5c0 59.333 3.83301 120 11.5 182s19.667 122.5 36 181.5s37.5 114.5 63.5 166.5s57.5 97.667 94.5 137s79.833 70.333 128.5 93s103.667 34 165 34c78 0 145 -14.833 201 -44.5
s102 -69.167 138 -118.5s62.667 -106.166 80 -170.499s26 -131.166 26 -200.499z" />
    <glyph glyph-name="H" unicode="H" horiz-adv-x="1171" 
d="M730 639h-288v-627l-300 -24v1524l300 24v-623h288v599l300 24v-1524l-300 -24v651z" />
    <glyph glyph-name="I" unicode="I" horiz-adv-x="583" 
d="M142 1512l300 24v-1524l-300 -24v1524z" />
    <glyph glyph-name="J" unicode="J" horiz-adv-x="660" 
d="M34 205c16 -5.33301 30.498 -9.00195 43.498 -11.002s25.167 -3 36.5 -3c28 0 49.5 6.33301 64.5 19s26 29.167 33 49.5s11.167 43.5 12.5 69.5s2 52.667 2 80v1103l300 24v-1152c0 -61.333 -4.83301 -117.166 -14.5 -167.499s-26.167 -93.666 -49.5 -129.999
s-54.166 -64.5 -92.499 -84.5s-86.166 -30 -143.499 -30c-54 0 -118 10 -192 30v203z" />
    <glyph glyph-name="K" unicode="K" horiz-adv-x="1150" 
d="M590 666l-148 -265v-401h-300v1512l300 24v-672l364 672h320l-329 -634l334 -859l-305 -70z" />
    <glyph glyph-name="L" unicode="L" horiz-adv-x="971" 
d="M441 1536v-1296h520l-48 -240h-771v1512z" />
    <glyph glyph-name="M" unicode="M" horiz-adv-x="1621" 
d="M390 1144v-1132l-248 -12v1522l439 12l254 -950l244 916l401 24v-1512l-310 -24v1152l-287 -1140h-185z" />
    <glyph glyph-name="N" unicode="N" horiz-adv-x="1245" 
d="M409 948v-936l-268 -12v1524l313 12l396 -914v890l254 24v-1524l-246 -24z" />
    <glyph glyph-name="O" unicode="O" horiz-adv-x="1125" 
d="M561 -32c-65.333 0 -122.503 11 -171.503 33s-91.167 52.667 -126.5 92s-64.333 85.833 -87 139.5s-40.667 112 -54 175s-22.666 129.5 -27.999 199.5s-8 141 -8 213c0 108 9.16699 208 27.5 300s46.833 170.667 85.5 236s87.834 115.833 147.501 151.5
s131.167 53.5 214.5 53.5s155.166 -17.833 215.499 -53.5s110 -86.167 149 -151.5s67.667 -144 86 -236s27.5 -192 27.5 -300c0 -72 -2.66699 -143 -8 -213s-14.833 -136.5 -28.5 -199.5s-32 -121.333 -55 -175s-52.167 -100.167 -87.5 -139.5s-77.666 -70 -126.999 -92
s-106.666 -33 -171.999 -33zM560.997 223c40 0 71.833 13.833 95.5 41.5s41.667 67.334 54 119.001s20.166 114.334 23.499 188.001s5 156.5 5 248.5c0 32 -0.5 65.5 -1.5 100.5s-3.5 71.333 -7.5 109s-9.83301 74.167 -17.5 109.5s-18.167 66.5 -31.5 93.5
s-29.833 48.667 -49.5 65s-43.167 24.5 -70.5 24.5s-50.666 -8.16699 -69.999 -24.5s-35.5 -38 -48.5 -65s-23.333 -58.167 -31 -93.5s-13.5 -71.833 -17.5 -109.5s-6.5 -74 -7.5 -109s-1.5 -68.5 -1.5 -100.5c0 -92 1.66699 -174.833 5 -248.5s11 -136.334 23 -188.001
s29.667 -91.334 53 -119.001s55 -41.5 95 -41.5z" />
    <glyph glyph-name="P" unicode="P" horiz-adv-x="1089" 
d="M141 1536l191.999 0.00195312c52 0 105.667 -0.333008 161 -1s109.5 -4.83398 162.5 -12.501s103.333 -20.334 151 -38.001s89.334 -43.667 125.001 -78s64 -78.333 85 -132s31.5 -120.167 31.5 -199.5c0 -72 -8.66699 -133.5 -26 -184.5s-41 -94 -71 -129
s-64.833 -62.833 -104.5 -83.5s-82.167 -36.5 -127.5 -47.5s-91.833 -18.167 -139.5 -21.5s-94.167 -5 -139.5 -5v-592l-300 -24v1548zM493.999 847.002c34.667 0 67.502 3.16504 98.502 9.49805s58.167 18 81.5 35s41.833 40.5 55.5 70.5s20.5 68.333 20.5 115
c0 46 -5.83301 83.333 -17.5 112s-28.834 50.834 -51.501 66.501s-50.334 26.334 -83.001 32.001s-70 8.5 -112 8.5h-43v-449h51z" />
    <glyph glyph-name="Q" unicode="Q" horiz-adv-x="1121" 
d="M559 -32c-65.333 0 -122.501 11.666 -171.501 34.999s-91.167 55.333 -126.5 96s-64.333 88.5 -87 143.5s-40.667 114 -54 177s-22.666 128.667 -27.999 197s-8 136.166 -8 203.499s4 132.666 12 195.999s20.333 122.666 37 177.999s38 106 64 152s56.5 85.5 91.5 118.5
s75 58.5 120 76.5s95.167 27 150.5 27c56 0 106.5 -9 151.5 -27s85.167 -43.5 120.5 -76.5s66 -72.5 92 -118.5s47.5 -96.667 64.5 -152s29.5 -114.666 37.5 -177.999s12 -128.666 12 -195.999c0 -70 -3 -140.333 -9 -211s-16.333 -138.334 -31 -203.001
s-34.667 -124.667 -60 -180s-57.333 -102.666 -96 -141.999c5.33301 -30 15.333 -54.167 30 -72.5s31.5 -32.5 50.5 -42.5s39.167 -17.167 60.5 -21.5s41.333 -7.83301 60 -10.5v-230c-7.33301 0 -14.166 -0.333008 -20.499 -1s-12.5 -1 -18.5 -1
c-50 0 -94.333 6.16699 -133 18.5s-72.334 30.333 -101.001 54s-52.834 52.167 -72.501 85.5s-35.5 71 -47.5 113c0 -1.33301 -4.66699 -2.16602 -14 -2.49902s-19.666 -1.16602 -30.999 -2.49902c-13.333 -1.33301 -28.333 -2.33301 -45 -3zM558.999 222.999
c43.333 0 76.999 15 100.999 45s41.667 71.667 53 125s18.166 116.333 20.499 189s3.5 152 3.5 238c0 28 -0.333008 60.167 -1 96.5s-2.66699 73.333 -6 111s-8.5 74.667 -15.5 111s-17.167 68.666 -30.5 96.999s-30.166 51.166 -50.499 68.499s-45.166 26 -74.499 26
s-54 -8.66699 -74 -26s-36.5 -40.166 -49.5 -68.499s-23.167 -60.666 -30.5 -96.999s-12.5 -73.333 -15.5 -111s-4.83301 -74.667 -5.5 -111s-1 -68.5 -1 -96.5c0 -86 1.16699 -165.333 3.5 -238s9 -135.667 20 -189s28.333 -95 52 -125s57.167 -45 100.5 -45z" />
    <glyph glyph-name="R" unicode="R" horiz-adv-x="1156" 
d="M142 -12v1536l364 12c84 0 160.667 -8.16699 230 -24.5s128.833 -42 178.5 -77s88 -79.5 115 -133.5s40.5 -118.333 40.5 -193c0 -50 -5.33301 -95 -16 -135s-25.667 -75.667 -45 -107s-42.5 -59 -69.5 -83s-56.833 -45.333 -89.5 -64c0 -0.666992 4 -10.667 12 -30
l31.5 -76l44 -107l50.5 -122l139 -331l-295 -80l-274 700h-117v-661zM441 895l102 0.000976562c30 0 58.667 2.5 86 7.5s51.5 15 72.5 30s37.667 36.167 50 63.5s18.5 63.666 18.5 108.999c0 36 -4.83301 66.167 -14.5 90.5s-23 44 -40 59s-37 25.667 -60 32
s-47.833 9.5 -74.5 9.5h-140v-401z" />
    <glyph glyph-name="S" unicode="S" horiz-adv-x="1091" 
d="M739 1141l-33.4932 72.001c-10.333 22.667 -22.333 42.667 -36 60s-30.167 31 -49.5 41s-44 15 -74 15c-23.333 0 -43.833 -4.33301 -61.5 -13s-32.167 -20.334 -43.5 -35.001s-19.833 -31.667 -25.5 -51s-8.5 -39.666 -8.5 -60.999c0 -17.333 2.66699 -33.666 8 -48.999
s12.5 -29.333 21.5 -42s19.167 -24.167 30.5 -34.5s22.666 -18.833 33.999 -25.5l248 -145c58.667 -33.333 106.667 -68.333 144 -105s66.5 -73 87.5 -109s35.5 -70.833 43.5 -104.5s12.667 -64.167 14 -91.5c0 -74 -12.5 -141.5 -37.5 -202.5s-59.5 -113.167 -103.5 -156.5
s-95.833 -76.833 -155.5 -100.5s-124.167 -35.5 -193.5 -35.5c-64 0 -122.667 9.66699 -176 29s-100.833 46.166 -142.5 80.499s-77.667 75 -108 122s-54.833 97.833 -73.5 152.5l254 119l48 -79.5c17.333 -29 36.666 -56 57.999 -81s45.666 -45.833 72.999 -62.5
s59 -25 95 -25c18 0 35.167 4.16699 51.5 12.5s30.666 19.666 42.999 33.999s22.333 30.666 30 48.999s11.5 37.5 11.5 57.5c0 40.667 -9.83301 76.334 -29.5 107.001s-43.834 55.334 -72.501 74.001l-269 159c-37.333 21.333 -71.5 45.666 -102.5 72.999s-58 57.5 -81 90.5
s-40.833 68.5 -53.5 106.5s-19 78.667 -19 122c0 68 12.167 130.167 36.5 186.5s57.666 104.833 99.999 145.5s92.666 72.167 150.999 94.5s121.5 33.5 189.5 33.5c104 0 193 -26.5 267 -79.5s128.667 -130.5 164 -232.5z" />
    <glyph glyph-name="T" unicode="T" horiz-adv-x="977" 
d="M28 1296l24 240h900l-24 -240h-287v-1284l-300 -24v1308h-313z" />
    <glyph glyph-name="U" unicode="U" horiz-adv-x="1163" 
d="M132 1524l299.999 12.0039v-1054c0 -30.667 1 -61.334 3 -92.001s8.5 -58.334 19.5 -83.001s27.667 -44.834 50 -60.501s54.166 -23.5 95.499 -23.5c38.667 0 68.5 8 89.5 24s36.5 36.667 46.5 62s15.833 53.5 17.5 84.5s2.5 61.5 2.5 91.5v1027l275 24v-995
c0 -29.333 -0.666992 -63.833 -2 -103.5s-6.16602 -80.667 -14.499 -123s-21.833 -84.333 -40.5 -126s-45.5 -78.834 -80.5 -111.501s-79.667 -59 -134 -79s-121.166 -30 -200.499 -30c-74 0 -137.833 14.5 -191.5 43.5s-98 68 -133 117s-60.833 106.167 -77.5 171.5
s-25 134 -25 206v1018z" />
    <glyph glyph-name="V" unicode="V" horiz-adv-x="1092" 
d="M17 1524l355 12l204 -1060l213 1048l289 12l-370 -1536h-329z" />
    <glyph glyph-name="W" unicode="W" horiz-adv-x="1586" 
d="M614 0h-275l-312 1524l328 12l162 -920l173 908l245 12l162 -930l196 918l275 12l-328 -1536h-297l-163 938z" />
    <glyph glyph-name="X" unicode="X" horiz-adv-x="1064" 
d="M502 481l-217 -481h-284l381 780l-366 756h359l178 -399l184 399h286l-346 -698l399 -838h-357z" />
    <glyph glyph-name="Y" unicode="Y" horiz-adv-x="1027" 
d="M367 608l-370 928h330l211 -640l228 640h259l-355 -893v-631l-303 -24v620z" />
    <glyph glyph-name="Z" unicode="Z" horiz-adv-x="1008" 
d="M581 1296h-483l24 240h813v-199l-514 -1097h528l-48 -240h-850v190z" />
    <glyph glyph-name="bracketleft" unicode="[" horiz-adv-x="692" 
d="M141 1632h492v-192h-192v-1345h192v-191h-492v1728z" />
    <glyph glyph-name="backslash" unicode="\" horiz-adv-x="628" 
d="M564 0h-300l-201 1536h300z" />
    <glyph glyph-name="bracketright" unicode="]" horiz-adv-x="693" 
d="M552 -96h-492v191h192v1345h-192v192h492v-1728z" />
    <glyph glyph-name="asciicircum" unicode="^" horiz-adv-x="1032" 
d="M1002 644l-343 -8l-175 483l-196 -475l-261 -2l360 798h265z" />
    <glyph glyph-name="underscore" unicode="_" horiz-adv-x="556" 
d="M-10 0h576v-238h-576v238z" />
    <glyph glyph-name="grave" unicode="`" horiz-adv-x="613" 
d="M361 1241l-410 346l227 202l297 -447z" />
    <glyph glyph-name="a" unicode="a" horiz-adv-x="968" 
d="M56 327c0 54.667 7.82812 102.5 23.4951 143.5s36.667 76.333 63 106s56.833 54.5 91.5 74.5s70.834 36.167 108.501 48.5s75.5 21.666 113.5 27.999s73.667 10.5 107 12.5c0 26.667 -0.333008 52.834 -1 78.501s-3.66699 48.667 -9 69s-13.666 36.833 -24.999 49.5
s-27.333 19 -48 19c-17.333 0 -32.166 -3.83301 -44.499 -11.5s-22.666 -17.667 -30.999 -30s-14.666 -26.333 -18.999 -42s-7.5 -31.167 -9.5 -46.5l-280 49c7.33301 57.333 23.666 104.833 48.999 142.5s55.833 67.5 91.5 89.5s74.667 37.5 117 46.5s84.5 13.5 126.5 13.5
c65.333 0 121.333 -9.16699 168 -27.5s85 -43.5 115 -75.5s52.167 -69.5 66.5 -112.5s21.5 -89.167 21.5 -138.5v-596c0 -22.667 1.5 -46 4.5 -70s6.5 -46 10.5 -66c4.66699 -23.333 10 -46.333 16 -69l-280 -24l-32 141c-11.333 -20.667 -26.166 -40.334 -44.499 -59.001
s-38.833 -35.167 -61.5 -49.5s-46.667 -25.833 -72 -34.5s-50.333 -13 -75 -13c-39.333 0 -75 8.83301 -107 26.5s-59.5 42.334 -82.5 74.001s-40.667 69 -53 112s-18.5 90.167 -18.5 141.5zM337.995 331c0 -45.333 9.16602 -82 27.499 -110s47.166 -42 86.499 -42
c13.333 0 26.5 3.5 39.5 10.5s24.833 14.833 35.5 23.5c12 10 24 21.333 36 34v321c-32 0 -61.667 -4 -89 -12s-51.166 -21.333 -71.499 -40s-36.166 -43.167 -47.499 -73.5s-17 -67.5 -17 -111.5z" />
    <glyph glyph-name="b" unicode="b" horiz-adv-x="1066" 
d="M123 12l0.000976562 1488l288 36v-531c22 24 45.333 46 70 66s49.667 37 75 51s51 25 77 33s51.333 12 76 12c38 0 74 -10.333 108 -31s63.667 -54.167 89 -100.5s45.5 -107.166 60.5 -182.499s22.5 -167.666 22.5 -276.999c0 -104 -7.33301 -193.833 -22 -269.5
s-36.167 -138.334 -64.5 -188.001s-63 -86.334 -104 -110.001s-87.833 -35.5 -140.5 -35.5c-26.667 0 -50.5 2.33301 -71.5 7s-39.833 11 -56.5 19s-31.167 17.167 -43.5 27.5s-22.833 20.833 -31.5 31.5c-20.667 25.333 -35.334 54 -44.001 86l-70 -156zM411.001 480
c0 -60 3.99902 -109.499 11.999 -148.499s18.667 -69.667 32 -92s28.333 -38 45 -47s33.667 -13.5 51 -13.5c35.333 0 63 10.667 83 32s35 50.166 45 86.499s16.167 78.5 18.5 126.5s3.5 98.667 3.5 152c0 48.667 -0.833008 94 -2.5 136s-5.66699 78.5 -12 109.5
s-16.166 55.5 -29.499 73.5s-32 27 -56 27c-17.333 0 -37 -4.16699 -59 -12.5s-42.667 -17.5 -62 -27.5c-22.667 -12 -45.667 -25 -69 -39v-363z" />
    <glyph glyph-name="c" unicode="c" horiz-adv-x="913" 
d="M847 405c-8 -63.333 -19.501 -121.499 -34.501 -174.499s-36.333 -98.5 -64 -136.5s-63.167 -67.667 -106.5 -89s-97.333 -32 -162 -32c-46 0 -88 7.5 -126 22.5s-72.333 36 -103 63s-57.334 59.167 -80.001 96.5s-41.667 78 -57 122s-26.833 90.5 -34.5 139.5
s-11.5 98.833 -11.5 149.5c0 74 8.16699 146.833 24.5 218.5s41.5 135.834 75.5 192.501s77.333 102.5 130 137.5s115.334 52.5 188.001 52.5c52.667 0 101.167 -10 145.5 -30s82.666 -48.333 114.999 -85s57.833 -80.334 76.5 -131.001s29 -106.334 31 -167.001l-273 -12
l-7 58.5c-2.66699 22.333 -7.33398 43.833 -14.001 64.5s-16.167 38.167 -28.5 52.5s-28.5 21.5 -48.5 21.5c-21.333 0 -39.166 -6.66699 -53.499 -20s-26.166 -30.833 -35.499 -52.5s-16.5 -46 -21.5 -73s-8.66699 -54 -11 -81s-3.66602 -52.5 -3.99902 -76.5
s-0.5 -44 -0.5 -60s0.166992 -36 0.5 -60s1.83301 -49.333 4.5 -76s6.66699 -53.334 12 -80.001s13 -50.667 23 -72s22.667 -38.666 38 -51.999s34.333 -20 57 -20c14 0 26.333 3.16699 37 9.5s20 14.5 28 24.5s14.833 21.5 20.5 34.5s10.5 26.167 14.5 39.5
c8.66699 32 13.667 68 15 108z" />
    <glyph glyph-name="d" unicode="d" horiz-adv-x="1067" 
d="M726 -12l-69.998 155.999c-8.66699 -32 -23.334 -60.667 -44.001 -86c-8.66699 -10.667 -19.167 -21.167 -31.5 -31.5s-26.833 -19.5 -43.5 -27.5s-35.5 -14.333 -56.5 -19s-44.833 -7 -71.5 -7c-52.667 0 -99.5 11.833 -140.5 35.5s-75.667 60.334 -104 110.001
s-49.833 112.334 -64.5 188.001s-22 165.5 -22 269.5c0 106 5.83301 196.5 17.5 271.5s30.334 136.167 56.001 183.5s58.5 81.833 98.5 103.5s88.333 32.5 145 32.5c16 0 32.167 -2.33301 48.5 -7s32.166 -11 47.499 -19s30.166 -17 44.499 -27s27.5 -20.333 39.5 -31
c28.667 -24.667 55.667 -52.334 81 -83.001v500l288 36v-1524zM656.002 863.999c-14 17.333 -28.667 32.665 -44 45.998c-13.333 11.333 -28.333 21.833 -45 31.5s-33.667 14.5 -51 14.5c-35.333 0 -63 -9.83301 -83 -29.5s-35 -46.667 -45 -81
s-16.167 -74.666 -18.5 -120.999s-3.5 -95.833 -3.5 -148.5c0 -53.333 1.16699 -104 3.5 -152s8.5 -90.167 18.5 -126.5s25 -65.166 45 -86.499s47.667 -32 83 -32c17.333 0 34.333 4.5 51 13.5s31.667 24.667 45 47s24 53 32 92s12 88.5 12 148.5v384z" />
    <glyph glyph-name="e" unicode="e" horiz-adv-x="965" 
d="M357 536c0 -36 2.33105 -74.665 6.99805 -115.998s12.5 -79.333 23.5 -114s25.5 -63.5 43.5 -86.5s40 -34.5 66 -34.5c22.667 0 43.334 9 62.001 27s35 38.333 49 61s25.167 44 33.5 64s13.5 32 15.5 36l218 -83c-13.333 -46.667 -31 -89.334 -53 -128.001
s-48.667 -72 -80 -100s-67.666 -49.833 -108.999 -65.5s-88.333 -23.5 -141 -23.5c-70 0 -131.5 14.667 -184.5 44s-97 70.333 -132 123s-61.333 115.667 -79 189s-26.5 153.666 -26.5 240.999c0 88 9 168.667 27 242s45 136.333 81 189s81 93.5 135 122.5
s117 43.5 189 43.5c68.667 0 128.667 -14.5 180 -43.5s94.333 -69.833 129 -122.5s60.667 -115.667 78 -189s26 -154 26 -242l-4 -14c-1.33301 -4 -2.33301 -7.83301 -3 -11.5s-1 -6.5 -1 -8.5h-550zM631.998 702.002c0 38 -2.5 73.333 -7.5 106
s-12.833 60.834 -23.5 84.501s-24.5 42.334 -41.5 56.001s-37.833 20.5 -62.5 20.5c-17.333 0 -34.5 -6.83301 -51.5 -20.5s-32 -32.334 -45 -56.001s-23.5 -51.834 -31.5 -84.501s-12 -68 -12 -106h275z" />
    <glyph glyph-name="f" unicode="f" horiz-adv-x="690" 
d="M176 936h-142l12 216h130v22c0 46.667 1.83301 92.167 5.5 136.5s14.667 84 33 119s46.833 63.167 85.5 84.5s92.667 32 162 32c35.333 0 65.333 -1.66699 90 -5s44.667 -6.66602 60 -9.99902c18 -4.66699 33 -9.66699 45 -15v-172h-63c-30 0 -53.667 -5 -71 -15
s-30.333 -23 -39 -39s-14.167 -34.333 -16.5 -55s-3.5 -41.334 -3.5 -62.001v-21h203l-12 -216h-191v-924l-288 -24v948z" />
    <glyph glyph-name="g" unicode="g" horiz-adv-x="1109" 
d="M44 -123c0 19.333 2.83105 37.3301 8.49805 53.9971s13.334 32.167 23.001 46.5s20.5 27.333 32.5 39s24.333 22.167 37 31.5c29.333 22 63 40.333 101 55c-32 8.66699 -60.667 20 -86 34c-10.667 6 -21.167 13 -31.5 21s-19.5 16.833 -27.5 26.5s-14.5 20.5 -19.5 32.5
s-7.5 25 -7.5 39c0 18.667 3.16699 36.834 9.5 54.501s14.5 34.167 24.5 49.5s21.5 29.833 34.5 43.5s26.167 26.167 39.5 37.5c32 26.667 68.333 50 109 70c-34.667 20.667 -65.334 45.667 -92.001 75c-11.333 12.667 -22.5 26.834 -33.5 42.501s-20.833 33 -29.5 52
s-15.667 39.667 -21 62s-8 46.5 -8 72.5c0 57.333 12.5 108 37.5 152s57.5 80.833 97.5 110.5s85.167 52 135.5 67s101.166 22.5 152.499 22.5c36.667 0 70 -2.66699 100 -8s56.833 -12.333 80.5 -21s44.667 -18 63 -28s34.5 -19.667 48.5 -29l40.5 36.5
c17 15 36.5 29.833 58.5 44.5s45.833 27.167 71.5 37.5s51.5 15.5 77.5 15.5c3.33301 0 6.66602 -0.166992 9.99902 -0.5s6.66602 -0.833008 9.99902 -1.5s7 -1.33398 11 -2.00098v-242l-51 19c-13.333 5.33301 -27.166 10 -41.499 14s-25.5 6 -33.5 6
c-7.33301 0 -14.166 -1 -20.499 -3s-12.166 -4 -17.499 -6c-6.66699 -2.66699 -12.667 -5.33398 -18 -8.00098c8 -20 15.333 -40 22 -60c5.33301 -17.333 10.333 -35.833 15 -55.5s7 -38.167 7 -55.5c0 -42 -8.5 -84.667 -25.5 -128s-42.167 -82.833 -75.5 -118.5
s-74.833 -64.667 -124.5 -87s-107.167 -29.5 -172.5 -21.5c-26 0 -49 0.666992 -69 2s-37 2 -51 2c-28 -8 -47.5 -16.833 -58.5 -26.5s-16.5 -32.5 -16.5 -68.5c0 -19.333 7 -35.5 21 -48.5s31 -20.833 51 -23.5l272 -21c52 -4 98.833 -12.167 140.5 -24.5
s77.334 -31.833 107.001 -58.5s52.334 -58.167 68.001 -94.5s23.5 -77.5 23.5 -123.5c0 -43.333 -8 -82 -24 -116s-37.5 -63.5 -64.5 -88.5s-58.333 -46 -94 -63s-73 -30.667 -112 -41s-78.5 -17.833 -118.5 -22.5s-78 -7 -114 -7c-78 0 -147 5.83301 -207 17.5
s-110.333 27.834 -151 48.501s-71.5 45.334 -92.5 74.001s-31.5 60.334 -31.5 95.001zM305.998 -36.0029c0 -16.667 4.50195 -31.667 13.502 -45s23.667 -24.833 44 -34.5s46.666 -17 78.999 -22s71.833 -7.5 118.5 -7.5c68.667 0 121.167 11.333 157.5 34s54.5 54 54.5 94
c0 22 -8 39.5 -24 52.5s-35.167 22.667 -57.5 29s-45.333 10.5 -69 12.5s-42.834 3 -57.501 3h-168c-10.667 -3.33301 -21.5 -8 -32.5 -14s-20.833 -13.833 -29.5 -23.5s-15.667 -21 -21 -34s-8 -27.833 -8 -44.5zM395 825.997c0 -22 1.66602 -44.6689 4.99902 -68.002
s9.83301 -44.666 19.5 -63.999s23.334 -35.166 41.001 -47.499s40.834 -18.5 69.501 -18.5c39.333 0 70.5 16.5 93.5 49.5s34.5 80.5 34.5 142.5c0 30 -3.5 55.833 -10.5 77.5s-16.5 39.5 -28.5 53.5s-25.833 24.5 -41.5 31.5s-32.167 10.5 -49.5 10.5
c-23.333 0 -43.333 -5.16699 -60 -15.5s-30.334 -23.5 -41.001 -39.5s-18.667 -34 -24 -54s-8 -39.333 -8 -58z" />
    <glyph glyph-name="h" unicode="h" 
d="M700 773c0 52.667 -9.49902 90.667 -28.499 114s-42.833 35 -71.5 35c-26.667 0 -54.667 -7.16699 -84 -21.5s-64 -33.5 -104 -57.5v-831l-288 -24v1512l288 36v-531c60 56 117.667 97 173 123s107.666 39 156.999 39c36 0 69 -6.83301 99 -20.5s55.833 -33 77.5 -58
s38.667 -55.5 51 -91.5s18.5 -76.333 18.5 -121v-864l-288 -24v785z" />
    <glyph glyph-name="i" unicode="i" horiz-adv-x="536" 
d="M124 1128l288 24v-1140l-288 -24v1140zM413 1600v-288l-288 -1v287z" />
    <glyph glyph-name="j" unicode="j" horiz-adv-x="536" 
d="M413 1600v-288l-288 -1v287zM-35 -96c37.333 0 66.6689 2.66699 88.002 8s37.166 13.833 47.499 25.5s16.833 27 19.5 46s4 42.5 4 70.5v1074l288 24v-1098c0 -54 -1.33301 -102.333 -4 -145s-12 -78.5 -28 -107.5s-41.167 -51.167 -75.5 -66.5s-83.5 -23 -147.5 -23
c-26.667 0 -55.834 1.5 -87.501 4.5s-66.5 7.83301 -104.5 14.5v173z" />
    <glyph glyph-name="k" unicode="k" horiz-adv-x="1021" 
d="M413 421v-421h-288v1500l288 36v-761l293 377h311l-324 -414l301 -678l-254 -87l-233 573z" />
    <glyph glyph-name="l" unicode="l" horiz-adv-x="536" 
d="M124 1500l288 36v-1524l-288 -24v1512z" />
    <glyph glyph-name="m" unicode="m" horiz-adv-x="1487" 
d="M1084 802c0 38.667 -5.5 68.166 -16.5 88.499s-25.167 30.5 -42.5 30.5c-19.333 0 -37 -4.33301 -53 -13s-30 -18 -42 -28c-14 -12 -26.667 -25.667 -38 -41v-827l-288 -24v816c0 42 -4.83301 72 -14.5 90s-21.167 27 -34.5 27c-18.667 0 -36.5 -4.33301 -53.5 -13
s-32.167 -18 -45.5 -28c-16 -12 -30.667 -25.667 -44 -41v-827l-288 -24v1140l288 24v-147c40.667 48 86.167 87 136.5 117s103.833 45 160.5 45c39.333 0 73.833 -13.667 103.5 -41s51.834 -73.333 66.501 -138c42 55.333 86.5 99 133.5 131s101.167 48 162.5 48
c38 0 69.5 -7.83301 94.5 -23.5s45.167 -38.5 60.5 -68.5s26.166 -66.667 32.499 -110s9.5 -92.666 9.5 -147.999v-805l-288 -24v814z" />
    <glyph glyph-name="n" unicode="n" 
d="M700 769c0 56.667 -9.66797 96.333 -29.001 119s-44.666 34 -75.999 34c-25.333 0 -53.833 -8.33301 -85.5 -25s-64.167 -35 -97.5 -55v-830l-288 -24v1140l288 24v-147c57.333 50 114.333 89.5 171 118.5s109.667 43.5 159 43.5c36 0 69 -6.83301 99 -20.5
s55.833 -33 77.5 -58s38.667 -55.5 51 -91.5s18.5 -76.333 18.5 -121v-864l-288 -24v781z" />
    <glyph glyph-name="o" unicode="o" horiz-adv-x="1003" 
d="M502 -27c-72 0 -135 14.833 -189 44.5s-99 71 -135 124s-63 116.5 -81 190.5s-27 155.667 -27 245c0 86 9 165.167 27 237.5s45 134.666 81 186.999s81 93 135 122s117 43.5 189 43.5c70 0 132 -14.5 186 -43.5s99.167 -69.667 135.5 -122s63.833 -114.666 82.5 -186.999
s28 -151.5 28 -237.5c0 -89.333 -9.33301 -171 -28 -245s-46.167 -137.5 -82.5 -190.5s-81.5 -94.333 -135.5 -124s-116 -44.5 -186 -44.5zM500 187c23.333 0 43.333 6.33301 60 19s30.334 29.5 41.001 50.5s19 45 25 72s10.333 55 13 84s4.33398 57.667 5.00098 86
s1 54.5 1 78.5c0 23.333 -0.333008 49 -1 77s-2.33398 56.333 -5.00098 85s-7 56.5 -13 83.5s-14.333 51 -25 72s-24.167 37.833 -40.5 50.5s-36.166 19 -59.499 19c-24 0 -44.167 -6.33301 -60.5 -19s-29.833 -29.5 -40.5 -50.5s-18.834 -45 -24.501 -72
s-9.83398 -54.833 -12.501 -83.5s-4.16699 -57 -4.5 -85s-0.5 -53.667 -0.5 -77c0 -24 0.166992 -50.167 0.5 -78.5s1.83301 -57 4.5 -86s6.83398 -57 12.501 -84s13.667 -51 24 -72s23.666 -37.833 39.999 -50.5s36.5 -19 60.5 -19z" />
    <glyph glyph-name="p" unicode="p" horiz-adv-x="1042" 
d="M124 1128l287.993 24v-111c16 16 33.167 31.5 51.5 46.5s37.666 28.333 57.999 40s41.833 21.167 64.5 28.5s46 11 70 11c52.667 0 96.834 -9.16699 132.501 -27.5s64.834 -42.833 87.501 -73.5s39.834 -66.167 51.501 -106.5s19.834 -82.333 24.501 -126
s7.16699 -87.667 7.5 -132s0.5 -86.166 0.5 -125.499c0 -36 -0.666992 -76 -2 -120s-5.16602 -88.333 -11.499 -133s-16.166 -88 -29.499 -130s-32.166 -79.333 -56.499 -112s-54.833 -58.834 -91.5 -78.501s-81.667 -29.5 -135 -29.5c-37.333 0 -69.666 6.5 -96.999 19.5
s-50.333 27.5 -69 43.5c-22 18 -40.667 39 -56 63v-401l-288 -56v1486zM534.993 960c-18.667 0 -35.501 -4.16797 -50.501 -12.501s-27.833 -17.5 -38.5 -27.5c-12.667 -12 -24 -25.333 -34 -40v-595c8 -17.333 18 -32.666 30 -45.999c10 -11.333 22.833 -21.833 38.5 -31.5
s34.5 -14.5 56.5 -14.5c20 0 38.167 5 54.5 15s30.5 29 42.5 57s21.333 67 28 117s10 114.667 10 194c0 72 -3 132.5 -9 181.5s-14.667 88.5 -26 118.5s-25.666 51.5 -42.999 64.5s-37 19.5 -59 19.5z" />
    <glyph glyph-name="q" unicode="q" horiz-adv-x="1023" 
d="M899 -322l-287.995 -36.002v457c-15.333 -24 -34 -45 -56 -63c-18.667 -16 -41.834 -30.5 -69.501 -43.5s-59.834 -19.5 -96.501 -19.5c-50 0 -92.167 9.83301 -126.5 29.5s-62.833 45.834 -85.5 78.501s-40.334 70 -53.001 112s-22 85.333 -28 130
s-9.66699 88.834 -11 132.501s-2 83.834 -2 120.501c0 39.333 0.166992 81.166 0.5 125.499s2.66602 88.333 6.99902 132s11.833 85.667 22.5 126s26.5 75.833 47.5 106.5s48.167 55.167 81.5 73.5s75 27.5 125 27.5c24 0 47.333 -3.66699 70 -11s44.167 -16.833 64.5 -28.5
s39.666 -25 57.999 -40s35.5 -30.5 51.5 -46.5l48 111l240 -24v-1450zM508.005 959.998c-22 0 -41.668 -6.49902 -59.001 -19.499s-31.666 -34.5 -42.999 -64.5s-20 -69.5 -26 -118.5s-9 -109.5 -9 -181.5c0 -79.333 2.83301 -144 8.5 -194s13.667 -89 24 -117
s22.5 -47 36.5 -57s29.333 -15 46 -15c21.333 0 40 4.83301 56 14.5s29 20.167 39 31.5c12 13.333 22 28.666 30 45.999v595c-8 14.667 -17.333 28 -28 40c-9.33301 10 -20.333 19.167 -33 27.5s-26.667 12.5 -42 12.5z" />
    <glyph glyph-name="r" unicode="r" horiz-adv-x="831" 
d="M124 1128l287.998 24.001v-185c16.667 22 36.334 44.833 59.001 68.5s48.5 45.167 77.5 64.5s61.167 35.333 96.5 48s74 19 116 19c3.33301 0 7 -0.166992 11 -0.5s7.66699 -0.833008 11 -1.5c4 -0.666992 8.33301 -1.33398 13 -2.00098v-343l-95 29
c-32 10 -64.333 15 -97 15c-32 0 -63.667 -7 -95 -21s-63.666 -39 -96.999 -75v-756l-288 -24v1140z" />
    <glyph glyph-name="s" unicode="s" horiz-adv-x="926" 
d="M282 337c6 -26 16.334 -48.9941 31.001 -68.9941c12 -17.333 29 -33 51 -47s50.667 -21 86 -21c13.333 0 28.5 1.5 45.5 4.5s32.833 8.16699 47.5 15.5s27 16.833 37 28.5s15 26.5 15 44.5c0 24.667 -8.66699 45 -26 61s-37.666 28.667 -60.999 38l-241 98
c-64.667 26 -114.167 66.5 -148.5 121.5s-51.5 122.5 -51.5 202.5c0 57.333 11 108 33 152s51 80.833 87 110.5s77.333 52.167 124 67.5s95 23 145 23c41.333 0 82.166 -6 122.499 -18s77.833 -29.833 112.5 -53.5s64.834 -52.834 90.501 -87.501
s44.834 -74.334 57.501 -119.001l-236 -73c-7.33301 25.333 -17.333 48.333 -30 69c-11.333 17.333 -26.333 33.166 -45 47.499s-42 21.5 -70 21.5c-15.333 0 -30.333 -1.66699 -45 -5s-27.834 -8.83301 -39.501 -16.5s-21.167 -17.334 -28.5 -29.001s-11 -25.5 -11 -41.5
c0 -12.667 3.5 -24.167 10.5 -34.5s15.667 -19.5 26 -27.5s21.166 -15 32.499 -21s21.666 -11 30.999 -15l205 -85c32 -14.667 62.167 -31.667 90.5 -51s53 -42.333 74 -69s37.5 -57.834 49.5 -93.501s18 -76.834 18 -123.501c0 -62 -11.667 -116 -35 -162
s-54 -84.333 -92 -115s-81 -53.667 -129 -69s-96.667 -23 -146 -23c-58.667 0 -111 6.83301 -157 20.5s-86 33.167 -120 58.5s-62 56 -84 92s-38 76.333 -48 121z" />
    <glyph glyph-name="t" unicode="t" horiz-adv-x="732" 
d="M197 1152l29.002 250l250 36v-286h236l-12 -216h-223v-635c0 -22.667 4.66699 -41.167 14 -55.5s21.166 -25.5 35.499 -33.5s30.166 -13.333 47.499 -16s34 -4 50 -4c20.667 0 37.667 1 51 3l21 4v-198c-14.667 -5.33301 -32.667 -10 -54 -14
c-18 -3.33301 -40.667 -6.5 -68 -9.5s-60 -4.5 -98 -4.5c-31.333 0 -63.833 4.5 -97.5 13.5s-64.5 24 -92.5 45s-51.167 48.833 -69.5 83.5s-27.5 77.667 -27.5 129v692h-161l12 216h157z" />
    <glyph glyph-name="u" unicode="u" 
d="M404 381c0 -56.667 8.66699 -96.334 26 -119.001s40.333 -34 69 -34c13.333 0 27.5 2.5 42.5 7.5s30.833 11.833 47.5 20.5s33.667 18.334 51 29.001l52 33v810l288 24v-1140l-288 -24v147c-56 -50 -111.333 -89.5 -166 -118.5s-106 -43.5 -154 -43.5
c-37.333 0 -71.666 6.83301 -102.999 20.5s-58.333 33 -81 58s-40.334 55.5 -53.001 91.5s-19 76.333 -19 121v864l288 24v-771z" />
    <glyph glyph-name="v" unicode="v" horiz-adv-x="932" 
d="M9 1128l343 24l145 -737l166 701l261 24l-145 -500l-185 -640h-265l-182 640z" />
    <glyph glyph-name="w" unicode="w" horiz-adv-x="1315" 
d="M670 747l-162 -747h-235l-237 1130l293 22l99 -652l145 628l240 24l124 -644l125 620l234 12l-264 -1140h-231z" />
    <glyph glyph-name="x" unicode="x" horiz-adv-x="941" 
d="M460 339l-176 -339h-274l311 579l-300 573h314l139 -282l146 282h272l-277 -518l332 -622l-317 -24z" />
    <glyph glyph-name="y" unicode="y" horiz-adv-x="901" 
d="M30 -113l50.001 -2c13.333 -0.666992 26.666 -1.16699 39.999 -1.5s23 -0.5 29 -0.5c33.333 0 61.5 4 84.5 12s41.833 19.333 56.5 34s25.167 32.334 31.5 53.001s9.5 44 9.5 70v56l-329 1030l312 14l162 -721l153 715l260 2l-295 -1127
c-24 -84 -53.667 -151.5 -89 -202.5s-73 -90 -113 -117s-80.833 -44.833 -122.5 -53.5s-81.167 -13 -118.5 -13c-14 0 -28.333 0.666992 -43 2s-27.667 2.66602 -39 3.99902l-39 6v240z" />
    <glyph glyph-name="z" unicode="z" horiz-adv-x="881" 
d="M834 234l-24 -234h-757v181l395 744h-365l24 227h685v-170l-388 -748h430z" />
    <glyph glyph-name="braceleft" unicode="{" horiz-adv-x="674" 
d="M141 551c0 16 -0.5 32.333 -1.5 49s-4.5 32 -10.5 46s-15.5 25.333 -28.5 34s-31.5 13 -55.5 13v189c24 0 42.5 4.33301 55.5 13s22.5 20 28.5 34s9.5 29.333 10.5 46s1.5 33 1.5 49c0 98 7 184.833 21 260.5s39 139.167 75 190.5s85 90.333 147 117s141 40 237 40v-162
c-48 0 -85 -9 -111 -27s-45 -45.5 -57 -82.5s-19 -83.5 -21 -139.5s-3 -121.667 -3 -197c0 -20 -1 -40.5 -3 -61.5s-9 -41.833 -21 -62.5s-31 -40.5 -57 -59.5s-63 -36.833 -111 -53.5c48 -16 85 -33.5 111 -52.5s45 -38.833 57 -59.5s19 -41.5 21 -62.5s3 -41.5 3 -61.5
c0 -80.667 1 -150.834 3 -210.501s9 -109.167 21 -148.5s31 -68.666 57 -87.999s63 -29 111 -29v-162c-96 0 -175 14 -237 42s-111 69 -147 123s-61 120.667 -75 200s-21 170.333 -21 273z" />
    <glyph glyph-name="bar" unicode="|" horiz-adv-x="582" 
d="M141 1632h300v-1728h-300v1728z" />
    <glyph glyph-name="braceright" unicode="}" horiz-adv-x="673" 
d="M532 551c0 -102.667 -7 -193.667 -21 -273s-39 -146 -75 -200s-85 -95 -147 -123s-141 -42 -237 -42v162c48 0 85 9.66699 111 29s45 48.666 57 87.999s19 88.833 21 148.5s3 129.834 3 210.501c0 20 1 40.5 3 61.5s9 41.833 21 62.5s31 40.5 57 59.5s63 36.5 111 52.5
c-48 16.667 -85 34.5 -111 53.5s-45 38.833 -57 59.5s-19 41.5 -21 62.5s-3 41.5 -3 61.5c0 75.333 -1 141 -3 197s-9 102.5 -21 139.5s-31 64.5 -57 82.5s-63 27 -111 27v162c96 0 175 -13.333 237 -40s111 -65.667 147 -117s61 -114.833 75 -190.5s21 -162.5 21 -260.5
c0 -16 0.5 -32.333 1.5 -49s4.5 -32 10.5 -46s15.5 -25.333 28.5 -34s31.5 -13 55.5 -13v-189c-24 0 -42.5 -4.33301 -55.5 -13s-22.5 -20 -28.5 -34s-9.5 -29.333 -10.5 -46s-1.5 -33 -1.5 -49z" />
    <glyph glyph-name="asciitilde" unicode="~" horiz-adv-x="815" 
d="M92 932c22 26 44.9971 49.668 68.9971 71.001c20.667 17.333 43.5 33.5 68.5 48.5s50.167 22.5 75.5 22.5s48.333 -5.66699 69 -17s40.334 -24 59.001 -38s37 -26.667 55 -38s37.333 -17 58 -17c32.667 0 60.667 5.66699 84 17s42.333 24 57 38
c17.333 16 31.333 34.333 42 55v-182c0 -0.666992 -4.33301 -8.16699 -13 -22.5s-21.167 -29.833 -37.5 -46.5s-36.333 -31.834 -60 -45.501s-50.5 -20.5 -80.5 -20.5c-22.667 0 -43.5 6.33301 -62.5 19s-38.167 26.5 -57.5 41.5s-39.666 28.833 -60.999 41.5
s-45.666 19 -72.999 19c-24.667 0 -48.5 -5.83301 -71.5 -17.5s-43.5 -24.167 -61.5 -37.5c-21.333 -16.667 -41.333 -35 -60 -55z" />
    <glyph glyph-name="uni00A0" unicode="&#xa0;" horiz-adv-x="500" 
 />
    <glyph glyph-name="exclamdown" unicode="&#xa1;" horiz-adv-x="542" 
d="M127 -11.9062h288l-47 1087.93h-192zM127 1536v-311.98h288v299.981z" />
    <glyph glyph-name="cent" unicode="&#xa2;" horiz-adv-x="983" 
d="M439 -16c-65.333 13.333 -122.168 38.498 -170.501 75.498s-88.5 81.667 -120.5 134s-56 110.5 -72 174.5s-24 130 -24 198c0 68.667 7.66699 136.667 23 204s38.666 128.5 69.999 183.5s71.333 101.167 120 138.5s106.667 60.666 174 69.999v182h139v-183
c51.333 -8 98 -23.5 140 -46.5s78.333 -52.167 109 -87.5s54.667 -76.166 72 -122.499s27 -96.5 29 -150.5l-273 -12c-2 12.667 -4.5 27 -7.5 43s-7.33301 32.333 -13 49s-13 32.334 -22 47.001s-20.5 27 -34.5 37v-700c12.667 2.66699 23.834 8 33.501 16
s18 17.167 25 27.5s13 21.833 18 34.5s9.16699 25.334 12.5 38.001c7.33301 29.333 12 62 14 98l240 -27c-8 -60.667 -19.167 -116.5 -33.5 -167.5s-34.5 -95.333 -60.5 -133s-59.167 -67.667 -99.5 -90s-90.166 -35.5 -149.499 -39.5v-167h-139v176zM340.998 575.998
c0 -18.667 0.5 -42.501 1.5 -71.501s4.5 -59 10.5 -90s15.667 -61.167 29 -90.5s32.333 -53.333 57 -72v668c-16.667 -10.667 -30.5 -24.667 -41.5 -42s-20.167 -36.5 -27.5 -57.5s-13 -43 -17 -66s-6.83301 -45.5 -8.5 -67.5s-2.66699 -42.667 -3 -62
s-0.5 -35.666 -0.5 -48.999z" />
    <glyph glyph-name="sterling" unicode="&#xa3;" horiz-adv-x="914" 
d="M105 827l100.999 0.00195312c-8.66699 32 -18 63.667 -28 95l-33 105c-10 33.333 -18.333 64.666 -25 93.999s-10 55.333 -10 78c0 56.667 11 107.5 33 152.5s50.5 83.333 85.5 115s74.667 55.834 119 72.501s89.166 25 134.499 25c42.667 0 84.334 -6.33301 125.001 -19
s77.834 -32.5 111.501 -59.5s62.167 -61.333 85.5 -103s39 -91.5 47 -149.5l-232 -88c0 63.333 -11.667 110.166 -35 140.499s-52.666 45.5 -87.999 45.5c-25.333 0 -47 -11.833 -65 -35.5s-27 -62.5 -27 -116.5c0 -47.333 7.83301 -92.833 23.5 -136.5
s32.834 -87.167 51.501 -130.5c12 -28 23.333 -56.333 34 -85h188v-191h-147v-4c0 -48.667 -8.66699 -101.167 -26 -157.5s-48.333 -118.5 -93 -186.5c46 22.667 93 34 141 34c46 0 91 -8.16699 135 -24.5s88 -38.5 132 -66.5v-221l-42 -12
c-22 21.333 -43.5 38.5 -64.5 51.5s-41.333 23 -61 30s-38.834 11.667 -57.501 14s-37 3.5 -55 3.5c-39.333 0 -75.5 -5.66699 -108.5 -17s-63.833 -23.833 -92.5 -37.5l-80 -37.5c-24.667 -11.333 -48.334 -17 -71.001 -17c-19.333 0 -36 2.5 -50 7.5
s-25.667 10.5 -35 16.5c-11.333 7.33301 -21 15.333 -29 24v190c28.667 9.33301 52.5 25 71.5 47s34.167 49 45.5 81s19.5 68.167 24.5 108.5s7.5 83.166 7.5 128.499c0 14.667 -0.666992 29.667 -2 45h-139v191z" />
    <glyph glyph-name="currency" unicode="&#xa4;" horiz-adv-x="1213" 
d="M183 447l-95.0039 109l140 123c-17.333 33.333 -30.333 69.5 -39 108.5s-13 80.5 -13 124.5c0 45.333 4.5 88 13.5 128s23.167 77 42.5 111l-144 127l95 109l143 -126c34.667 26 75.334 46.167 122.001 60.5s100 21.5 160 21.5s113.167 -7.33301 159.5 -22
s86.833 -35 121.5 -61l144 127l95 -109l-145 -128c18.667 -34 32.5 -71 41.5 -111s13.5 -82.333 13.5 -127c0 -44 -4.33301 -85.333 -13 -124s-21.667 -74.667 -39 -108l142 -124l-95 -109l-139 122c-35.333 -28 -76.666 -49.5 -123.999 -64.5
s-101.666 -22.5 -162.999 -22.5s-115.666 7.5 -162.999 22.5s-88.333 36.167 -123 63.5zM606.996 698c127.333 0 191 71.333 191 214c0 143.333 -63.667 215 -191 215s-191 -71.667 -191 -215c0 -142.667 63.667 -214 191 -214z" />
    <glyph glyph-name="yen" unicode="&#xa5;" horiz-adv-x="1096" 
d="M404 608l-370 928h330l211 -640l228 640h259l-355 -893v-643h-303v608z" />
    <glyph glyph-name="brokenbar" unicode="&#xa6;" horiz-adv-x="590" 
d="M145 576h300v-672h-300v672zM145 1632h300v-672h-300v672z" />
    <glyph glyph-name="section" unicode="&#xa7;" horiz-adv-x="984" 
d="M305 312c6 -26 16.334 -49.001 31.001 -69.001c12 -17.333 29 -33 51 -47s50.667 -21 86 -21c13.333 0 28.5 1.5 45.5 4.5s32.833 8.16699 47.5 15.5s27 16.833 37 28.5s15 26.5 15 44.5c0 24.667 -8.66699 45 -26 61s-37.666 28.667 -60.999 38l-241 98
c-64.667 25.333 -114.167 64.666 -148.5 117.999s-51.5 118.666 -51.5 195.999c0 47.333 7.5 89.833 22.5 127.5s35.167 71.167 60.5 100.5c-48.667 56 -73 128.667 -73 218c0 56 11 105.333 33 148s51 78.5 87 107.5s77.333 50.833 124 65.5s95 22 145 22
c41.333 0 82.166 -5.83301 122.499 -17.5s77.833 -28.834 112.5 -51.501s64.834 -50.667 90.501 -84s44.834 -71.666 57.501 -114.999l-236 -73c-7.33301 25.333 -17.333 48.333 -30 69c-11.333 17.333 -26.333 33.166 -45 47.499s-42 21.5 -70 21.5
c-15.333 0 -30.333 -1.66699 -45 -5s-27.834 -8.83301 -39.501 -16.5s-21.167 -17.334 -28.5 -29.001s-11 -25.5 -11 -41.5c0 -12.667 3.5 -24.167 10.5 -34.5s15.667 -19.666 26 -27.999s21.166 -15.5 32.499 -21.5s21.666 -10.667 30.999 -14l205 -85
c32 -13.333 62.167 -29.166 90.5 -47.499s53 -40.166 74 -65.499s37.5 -54.666 49.5 -87.999s18 -72 18 -116c0 -52 -8.33301 -98.167 -25 -138.5s-39 -75.5 -67 -105.5c25.333 -25.333 45.333 -55.333 60 -90s22 -75.334 22 -122.001c0 -58 -11.667 -108.833 -35 -152.5
s-54 -80 -92 -109s-81 -50.833 -129 -65.5s-96.667 -22 -146 -22c-58.667 0 -111 6.33301 -157 19s-86 30.834 -120 54.501s-62 52.334 -84 86.001s-38 71.167 -48 112.5zM357.001 826.999c0 -15.333 3.50098 -29.167 10.501 -41.5s15.667 -23.333 26 -33
s21.166 -18.167 32.499 -25.5s21.666 -13.333 30.999 -18l133 -55c10 7.33301 18.833 16.5 26.5 27.5s11.5 25.167 11.5 42.5c0 24.667 -8.66699 45 -26 61s-37.666 28.667 -60.999 38l-161 65c-6.66699 -7.33301 -12.167 -16 -16.5 -26s-6.5 -21.667 -6.5 -35z" />
    <glyph glyph-name="dieresis" unicode="&#xa8;" horiz-adv-x="1091" 
d="M450 1536v-288h-288v288h288zM930 1536v-288h-288v288h288z" />
    <glyph glyph-name="copyright" unicode="&#xa9;" horiz-adv-x="1397" 
d="M995 582c0 -44.667 -5.83203 -87.4961 -17.499 -128.496s-29.334 -77.167 -53.001 -108.5s-53.667 -56.333 -90 -75s-78.833 -28 -127.5 -28c-58 0 -107 13.667 -147 41s-72.5 62.666 -97.5 105.999s-43.167 91.333 -54.5 144s-17 104.667 -17 156
c0 31.333 2.5 63.333 7.5 96s12.667 64.5 23 95.5s24 60.167 41 87.5s37.333 51.166 61 71.499s51.167 36.5 82.5 48.5s66.666 18 105.999 18c44 0 83.5 -10 118.5 -30s64.667 -46.333 89 -79s42.833 -69.334 55.5 -110.001s19 -82 19 -124l-191 -8
c0 2.66699 -0.333008 9.33398 -1 20.001s-2 23 -4 37s-5.16699 28.667 -9.5 44s-10.333 29.5 -18 42.5s-17.167 23.833 -28.5 32.5s-25.333 13 -42 13c-24 0 -43.167 -7.83301 -57.5 -23.5s-25.5 -35.834 -33.5 -60.501s-13.333 -52.167 -16 -82.5s-4 -59.833 -4 -88.5
c0 -37.333 1.5 -73.833 4.5 -109.5s9 -67.5 18 -95.5s22.167 -50.5 39.5 -67.5s40.333 -25.5 69 -25.5c20.667 0 37.667 6.66699 51 20s23.833 30.333 31.5 51s13.334 43.167 17.001 67.5s6.16699 47.166 7.5 68.499zM187.001 673.004
c0 -74.667 13.5 -144.834 40.5 -210.501s63.667 -122.834 110 -171.501s100.5 -87.167 162.5 -115.5s128.333 -42.5 199 -42.5c70 0 136 14.167 198 42.5s116.167 66.833 162.5 115.5s83 105.834 110 171.501s40.5 135.834 40.5 210.501s-13.5 144.834 -40.5 210.501
s-63.667 122.834 -110 171.501s-100.5 87.167 -162.5 115.5s-128 42.5 -198 42.5c-70.667 0 -137 -14.167 -199 -42.5s-116.167 -66.833 -162.5 -115.5s-83 -105.834 -110 -171.501s-40.5 -135.834 -40.5 -210.501zM54.001 673.004c0 62 7.66699 121.667 23 179
s37 111 65 161s61.667 95.333 101 136s83 75.667 131 105s99.333 52 154 68s111.667 24 171 24c58.667 0 115.5 -8 170.5 -24s106.333 -38.667 154 -68s91.167 -64.333 130.5 -105s73 -86 101 -136s49.667 -103.667 65 -161s23 -117 23 -179s-7.66699 -121.667 -23 -179
s-37 -111 -65 -161s-61.667 -95.333 -101 -136s-82.833 -75.667 -130.5 -105s-99 -52 -154 -68s-111.833 -24 -170.5 -24c-59.333 0 -116.333 8 -171 24s-106 38.667 -154 68s-91.667 64.333 -131 105s-73 86 -101 136s-49.667 103.667 -65 161s-23 117 -23 179z" />
    <glyph glyph-name="ordfeminine" unicode="&#xaa;" horiz-adv-x="774" 
d="M68 549c0 60 12.501 109.172 37.501 147.505s56.333 68.666 94 90.999s78.167 38.166 121.5 47.499s83.666 15.333 120.999 18c0 19.333 -0.333008 38.5 -1 57.5s-3 36 -7 51s-10.167 27.167 -18.5 36.5s-20.166 14 -35.499 14c-12.667 0 -23.5 -2.83301 -32.5 -8.5
s-16.5 -13 -22.5 -22s-10.667 -19.333 -14 -31s-5.66602 -23.167 -6.99902 -34.5l-206 36c5.33301 42 17.333 76.833 36 104.5s41.167 49.667 67.5 66s55 27.833 86 34.5s61.833 10 92.5 10c48 0 89.333 -6.66699 124 -20s63.167 -31.833 85.5 -55.5
s38.666 -51.334 48.999 -83.001s15.5 -65.5 15.5 -101.5v-439c0 -17.333 1 -34.833 3 -52.5s4.66699 -33.834 8 -48.501c2.66699 -17.333 6.33398 -34 11.001 -50l-206 -18l-23 104c-8 -15.333 -18.833 -29.833 -32.5 -43.5s-29 -25.834 -46 -36.501
s-34.833 -19.167 -53.5 -25.5s-37 -9.5 -55 -9.5c-28.667 0 -54.834 6.5 -78.501 19.5s-43.834 31.167 -60.501 54.5s-29.667 51 -39 83s-14 66.667 -14 104zM276.001 552.005c0 -34 6.66797 -61.166 20.001 -81.499s34.666 -30.5 63.999 -30.5c9.33301 0 19 2.5 29 7.5
s19 10.833 27 17.5c9.33301 7.33301 18 15.666 26 24.999v236c-24 0 -46 -3 -66 -9s-37.5 -15.833 -52.5 -29.5s-26.667 -31.5 -35 -53.5s-12.5 -49.333 -12.5 -82z" />
    <glyph glyph-name="guillemotleft" unicode="&#xab;" horiz-adv-x="1244" 
d="M54 439v265l510 390l-14 -261l-301 -226l327 -205l-14 -343zM630 439v265l510 390l-14 -261l-301 -226l327 -205l-14 -343z" />
    <glyph glyph-name="logicalnot" unicode="&#xac;" horiz-adv-x="789" 
d="M95 718h576v-430h-144v192h-432v238z" />
    <glyph glyph-name="registered" unicode="&#xae;" horiz-adv-x="1397" 
d="M187 673c0 -74.667 13.5 -144.834 40.5 -210.501s63.667 -122.834 110 -171.501s100.5 -87.167 162.5 -115.5s128.333 -42.5 199 -42.5c70 0 136 14.167 198 42.5s116.167 66.833 162.5 115.5s83 105.834 110 171.501s40.5 135.834 40.5 210.501
s-13.5 144.834 -40.5 210.501s-63.667 122.834 -110 171.501s-100.5 87.167 -162.5 115.5s-128 42.5 -198 42.5c-70.667 0 -137 -14.167 -199 -42.5s-116.167 -66.833 -162.5 -115.5s-83 -105.834 -110 -171.501s-40.5 -135.834 -40.5 -210.501zM54 673
c0 62 7.66699 121.667 23 179s37 111 65 161s61.667 95.333 101 136s83 75.667 131 105s99.333 52 154 68s111.667 24 171 24c58.667 0 115.5 -8 170.5 -24s106.333 -38.667 154 -68s91.167 -64.333 130.5 -105s73 -86 101 -136s49.667 -103.667 65 -161s23 -117 23 -179
s-7.66699 -121.667 -23 -179s-37 -111 -65 -161s-61.667 -95.333 -101 -136s-82.833 -75.667 -130.5 -105s-99 -52 -154 -68s-111.833 -24 -170.5 -24c-59.333 0 -116.333 8 -171 24s-106 38.667 -154 68s-91.667 64.333 -131 105s-73 86 -101 136s-49.667 103.667 -65 161
s-23 117 -23 179zM468 1094h125.998c34 0 69.333 -0.166992 106 -0.5s72.334 -2.66602 107.001 -6.99902s67.834 -11.5 99.501 -21.5s59.167 -24.667 82.5 -44s42 -44.5 56 -75.5s21 -69.167 21 -114.5c0 -36.667 -5.66699 -68 -17 -94s-27 -48 -47 -66
s-43 -32.167 -69 -42.5s-54 -18.333 -84 -24s-60.667 -9.33398 -92 -11.001s-62 -2.5 -92 -2.5v-358h-197v861zM699.998 731c22.667 0 44.167 1.33203 64.5 3.99902s38.333 7.83398 54 15.501s28 18 37 31s13.5 29.833 13.5 50.5c0 22 -3.83301 39.833 -11.5 53.5
s-19 24.167 -34 31.5s-33.167 12.333 -54.5 15s-46 4 -74 4h-28v-205h33z" />
    <glyph glyph-name="macron" unicode="&#xaf;" horiz-adv-x="898" 
d="M162 1440h576v-192h-576v192z" />
    <glyph glyph-name="degree" unicode="&#xb0;" horiz-adv-x="921" 
d="M68 769c0 54.667 8.33301 105.334 25 152.001s41.667 87 75 121s75 60.667 125 80s108.667 29 176 29c62 0 116.833 -9.66699 164.5 -29s87.667 -46 120 -80s56.833 -74.333 73.5 -121s25 -97.334 25 -152.001s-8.33301 -105.334 -25 -152.001s-41.167 -87 -73.5 -121
s-72.333 -60.667 -120 -80s-102.5 -29 -164.5 -29c-67.333 0 -126 9.66699 -176 29s-91.667 46 -125 80s-58.333 74.333 -75 121s-25 97.334 -25 152.001zM603 769c0 16 -0.833008 34.833 -2.5 56.5s-6.83398 42.5 -15.501 62.5s-22.167 36.833 -40.5 50.5
s-43.833 20.5 -76.5 20.5c-38 0 -67.333 -6.83301 -88 -20.5s-35.834 -30.5 -45.501 -50.5s-15.167 -40.833 -16.5 -62.5s-2 -40.5 -2 -56.5s0.666992 -34.833 2 -56.5s6.83301 -42.5 16.5 -62.5s24.834 -36.833 45.501 -50.5s50 -20.5 88 -20.5
c32.667 0 58.167 6.83301 76.5 20.5s31.833 30.5 40.5 50.5s13.834 40.833 15.501 62.5s2.5 40.5 2.5 56.5z" />
    <glyph glyph-name="plusminus" unicode="&#xb1;" horiz-adv-x="866" 
d="M553 576v-240h-238v240h-240v238h240v240h238v-240h240v-238h-240zM142 239h576v-238h-576v238z" />
    <glyph glyph-name="twosuperior" unicode="&#xb2;" horiz-adv-x="840" 
d="M87 1321c8 32.667 21.8311 64.001 41.498 94.001s44.334 56.333 74.001 79s64 40.667 103 54s81.833 20 128.5 20c43.333 0 84.333 -5.33301 123 -16s72.667 -27.334 102 -50.001s52.5 -52 69.5 -88s25.5 -79.333 25.5 -130c0 -46 -11 -92.5 -33 -139.5
s-50 -92.667 -84 -137s-71.667 -86.833 -113 -127.5s-81.666 -78 -120.999 -112h304c0 -19.333 -0.833008 -36.5 -2.5 -51.5s-3.5 -29.833 -5.5 -44.5s-3.83301 -29.5 -5.5 -44.5s-2.5 -32.167 -2.5 -51.5h-604v173l79.5 86l85 88.5l82 89.5
c26.333 30 49.5 60.167 69.5 90.5s36 60.666 48 90.999s18 60.833 18 91.5c0 25.333 -5.16699 47 -15.5 65s-25.5 27 -45.5 27c-17.333 0 -31.333 -7.16699 -42 -21.5s-19 -30.166 -25 -47.499c-7.33301 -20 -12.333 -42.667 -15 -68z" />
    <glyph glyph-name="threesuperior" unicode="&#xb3;" horiz-adv-x="857" 
d="M85 1372c20 34.667 41.001 64.3291 63.001 88.9961s45.667 44.834 71 60.501s53 27.167 83 34.5s63.333 11 100 11c42.667 0 84.167 -5.33301 124.5 -16s76.166 -26.667 107.499 -48s56.666 -47.666 75.999 -78.999s29 -67.666 29 -108.999
c0 -14.667 -1.66699 -32 -5 -52s-11.333 -40.833 -24 -62.5s-31.5 -43.167 -56.5 -64.5s-58.833 -40.333 -101.5 -57c64 -20 113.5 -49.667 148.5 -89s52.5 -92.666 52.5 -159.999c0 -48.667 -9.83301 -91.834 -29.5 -129.501s-46 -69.167 -79 -94.5
s-71.5 -44.666 -115.5 -57.999s-90.333 -20 -139 -20c-39.333 0 -77.333 4.66699 -114 14s-70.167 23.333 -100.5 42s-56.666 42.167 -78.999 70.5s-38.5 61.5 -48.5 99.5l215 63c4 -12.667 9 -24.667 15 -36s13.333 -21.333 22 -30s19.167 -15.667 31.5 -21
s27.5 -8 45.5 -8c16 0 30.333 2.83301 43 8.5s23.5 13.5 32.5 23.5s15.833 21.333 20.5 34s7 26 7 40c0 30.667 -5.5 55.334 -16.5 74.001s-25.833 33.167 -44.5 43.5s-40.5 17.166 -65.5 20.499s-51.5 5 -79.5 5v193c26 0 50.667 1.66699 74 5s43.833 9.5 61.5 18.5
s31.5 21.667 41.5 38s15 37.5 15 63.5c0 24 -7.16699 45.333 -21.5 64s-35.833 28 -64.5 28c-15.333 0 -28.333 -4.5 -39 -13.5s-19.667 -19.167 -27 -30.5c-8.66699 -12.667 -16 -27 -22 -43z" />
    <glyph glyph-name="acute" unicode="&#xb4;" horiz-adv-x="613" 
d="M165 1346l297 447l227 -202l-411 -346z" />
    <glyph glyph-name="mu" unicode="&#xb5;" horiz-adv-x="1099" 
d="M128 1128l288 24v-771c0 -56.667 8.66699 -96.334 26 -119.001s40.333 -34 69 -34c13.333 0 27.5 2.5 42.5 7.5s30.833 11.833 47.5 20.5s33.667 18.334 51 29.001l52 33v810l288 24v-1140l-288 -24v147c-40.667 -29.333 -80.667 -52 -120 -68s-76 -24 -110 -24
c-20.667 0 -40 1 -58 3v-238l-288 -12v1332z" />
    <glyph glyph-name="paragraph" unicode="&#xb6;" horiz-adv-x="1152" 
d="M1095 1288h-144.002v-1288h-232v764c-25.333 0 -50.5 0.333008 -75.5 1s-50.5 2.33398 -76.5 5.00098v-770h-232v801c-41.333 11.333 -79.666 26 -114.999 44s-65.833 40.833 -91.5 68.5s-45.667 60.5 -60 98.5s-21.5 82.333 -21.5 133c0 68 12 124.833 36 170.5
s56.333 83 97 112s88 51 142 66s111 25.667 171 32s121.333 9.66602 184 9.99902s123.334 0.5 182.001 0.5h236v-248z" />
    <glyph glyph-name="periodcentered" unicode="&#xb7;" horiz-adv-x="516" 
d="M402 768v-288h-288v288h288z" />
    <glyph glyph-name="cedilla" unicode="&#xb8;" horiz-adv-x="551" 
d="M164 48l152.001 -0.00195312l-30 -124c40.667 -11.333 74.667 -25.666 102 -42.999s49.666 -35.333 66.999 -54s30.666 -37.5 39.999 -56.5s16 -36.333 20 -52s6.16699 -28.667 6.5 -39s0.5 -16.5 0.5 -18.5c0 -40 -6 -73.667 -18 -101s-28 -49.666 -48 -66.999
s-43 -29.833 -69 -37.5s-53 -11.5 -81 -11.5c-43.333 0 -85.5 5.83301 -126.5 17.5s-75.5 27.167 -103.5 46.5v165c29.333 -13.333 55.833 -22.666 79.5 -27.999s45.167 -8 64.5 -8c34.667 0 59.334 7.33301 74.001 22s22 32 22 52c0 13.333 -3.66699 27 -11 41
s-18.833 26.667 -34.5 38s-35.5 20.666 -59.5 27.999s-53 11 -87 11z" />
    <glyph glyph-name="onesuperior" unicode="&#xb9;" horiz-adv-x="763" 
d="M104 768h178.998v438l-62 -8c-17.333 -2 -35.666 -3.83301 -54.999 -5.5s-35.666 -2.5 -48.999 -2.5h-26v141l331 205h101v-768h187l-12 -192h-594v192z" />
    <glyph glyph-name="ordmasculine" unicode="&#xba;" horiz-adv-x="951" 
d="M474 557c24 0 45.167 6.00195 63.5 18.002s33.5 28 45.5 48s21 42.667 27 68s9 51.333 9 78s-3 52.834 -9 78.501s-15 48.667 -27 69s-27 36.666 -45 48.999s-39 18.5 -63 18.5s-45 -6 -63 -18s-33 -28 -45 -48s-21 -42.833 -27 -68.5s-9 -51.834 -9 -78.501
c0 -26 3 -51.667 9 -77s15 -48 27 -68s26.833 -36.333 44.5 -49s38.5 -19.334 62.5 -20.001zM476 363.002c-65.333 0 -122.5 10 -171.5 30s-89.833 47.833 -122.5 83.5s-57.167 78.167 -73.5 127.5s-24.5 103.666 -24.5 162.999c0 58 8.16699 111.333 24.5 160
s40.833 90.834 73.5 126.501s73.5 63.5 122.5 83.5s106.167 30 171.5 30c64 0 120.333 -10 169 -30s89.5 -47.833 122.5 -83.5s58 -77.834 75 -126.501s25.5 -102 25.5 -160c0 -59.333 -8.5 -113.666 -25.5 -162.999s-42 -91.833 -75 -127.5s-73.833 -63.5 -122.5 -83.5
s-105 -30 -169 -30z" />
    <glyph glyph-name="guillemotright" unicode="&#xbb;" horiz-adv-x="1244" 
d="M682 59l-14 343l327 205l-301 226l-14 261l510 -390v-265zM106 59l-14 343l327 205l-301 226l-14 261l510 -390v-265z" />
    <glyph glyph-name="onequarter" unicode="&#xbc;" horiz-adv-x="1991" 
d="M1572 192h-390v168l352 600h286v-590h125l-16 -178h-109v-224l-248 -16v240zM1064 1536h288l-384 -1536h-288zM84 768h178.998v438l-62 -8c-17.333 -2 -35.666 -3.83301 -54.999 -5.5s-35.666 -2.5 -48.999 -2.5h-26v141l331 205h101v-768h187l-12 -192h-594v192z
M1572 370v341l-205 -341h205z" />
    <glyph glyph-name="onehalf" unicode="&#xbd;" horiz-adv-x="1984" 
d="M1058 1536h288l-384 -1536h-288zM1267 745c8 32.667 21.8311 64.001 41.498 94.001s44.334 56.333 74.001 79s64 40.667 103 54s81.833 20 128.5 20c43.333 0 84.333 -5.33301 123 -16s72.667 -27.334 102 -50.001s52.5 -52 69.5 -88s25.5 -79.333 25.5 -130
c0 -46 -11 -92.5 -33 -139.5s-50 -92.667 -84 -137s-71.667 -86.833 -113 -127.5s-81.666 -78 -120.999 -112h304c0 -19.333 -0.833008 -36.5 -2.5 -51.5s-3.5 -29.833 -5.5 -44.5s-3.83301 -29.5 -5.5 -44.5s-2.5 -32.167 -2.5 -51.5h-604v173l79.5 86l85 88.5l82 89.5
c26.333 30 49.5 60.167 69.5 90.5s36 60.666 48 90.999s18 60.833 18 91.5c0 25.333 -5.16699 47 -15.5 65s-25.5 27 -45.5 27c-17.333 0 -31.333 -7.16699 -42 -21.5s-19 -30.166 -25 -47.499c-7.33301 -20 -12.333 -42.667 -15 -68zM77.998 768.001h178.998v438l-62 -8
c-17.333 -2 -35.666 -3.83301 -54.999 -5.5s-35.666 -2.5 -48.999 -2.5h-26v141l331 205h101v-768h187l-12 -192h-594v192z" />
    <glyph glyph-name="threequarters" unicode="&#xbe;" horiz-adv-x="1981" 
d="M1053 1536h288l-384 -1536h-288zM80 1372c20 34.667 41.001 64.3291 63.001 88.9961s45.667 44.834 71 60.501s53 27.167 83 34.5s63.333 11 100 11c42.667 0 84.167 -5.33301 124.5 -16s76.166 -26.667 107.499 -48s56.666 -47.666 75.999 -78.999
s29 -67.666 29 -108.999c0 -14.667 -1.66699 -32 -5 -52s-11.333 -40.833 -24 -62.5s-31.5 -43.167 -56.5 -64.5s-58.833 -40.333 -101.5 -57c64 -20 113.5 -49.667 148.5 -89s52.5 -92.666 52.5 -159.999c0 -48.667 -9.83301 -91.834 -29.5 -129.501s-46 -69.167 -79 -94.5
s-71.5 -44.666 -115.5 -57.999s-90.333 -20 -139 -20c-39.333 0 -77.333 4.66699 -114 14s-70.167 23.333 -100.5 42s-56.666 42.167 -78.999 70.5s-38.5 61.5 -48.5 99.5l215 63c4 -12.667 9 -24.667 15 -36s13.333 -21.333 22 -30s19.167 -15.667 31.5 -21
s27.5 -8 45.5 -8c16 0 30.333 2.83301 43 8.5s23.5 13.5 32.5 23.5s15.833 21.333 20.5 34s7 26 7 40c0 30.667 -5.5 55.334 -16.5 74.001s-25.833 33.167 -44.5 43.5s-40.5 17.166 -65.5 20.499s-51.5 5 -79.5 5v193c26 0 50.667 1.66699 74 5s43.833 9.5 61.5 18.5
s31.5 21.667 41.5 38s15 37.5 15 63.5c0 24 -7.16699 45.333 -21.5 64s-35.833 28 -64.5 28c-15.333 0 -28.333 -4.5 -39 -13.5s-19.667 -19.167 -27 -30.5c-8.66699 -12.667 -16 -27 -22 -43zM1561 191.995h-390v168l352 600h286v-590h125l-16 -178h-109v-224l-248 -16v240
zM1561 369.995v341l-205 -341h205z" />
    <glyph glyph-name="questiondown" unicode="&#xbf;" horiz-adv-x="885" 
d="M451.026 1150.02l239.979 -0.00292969c6.66699 -72.6621 6.66699 -133.492 0 -182.489c-6.66602 -48.9971 -17.665 -89.9941 -32.998 -122.992c-15.332 -32.998 -33.8311 -59.8301 -55.4961 -80.4951s-44.3301 -38.8301 -67.9951 -54.4951
c-23.665 -15.666 -47.1641 -30.332 -70.4961 -43.998c-23.3311 -13.665 -44.1631 -30.4971 -62.4961 -50.4961c-18.332 -19.999 -33.3311 -44.4971 -44.9971 -73.4951s-17.499 -66.4961 -17.499 -112.493c0 -13.333 0.666992 -31.832 2 -55.4971
s5.49902 -47.1631 12.498 -70.4951c7 -23.332 18.499 -43.6641 34.498 -60.9961c15.999 -17.333 38.3311 -25.999 66.9961 -25.999c21.999 0 39.665 7.16602 52.998 21.499c13.332 14.333 23.8311 31.832 31.498 52.4971c7.66602 20.665 12.999 42.1641 15.999 64.4961
c2.99902 22.332 5.49902 41.8311 7.49902 58.4961l272.983 -11.999c-2 -60.6631 -12.833 -116.326 -32.498 -166.989s-46.4971 -94.3271 -80.4951 -130.991c-33.998 -36.665 -74.3291 -64.9971 -120.992 -84.9961c-46.6641 -19.999 -97.9941 -29.998 -153.991 -29.998
c-68.6621 0 -128.158 13.166 -178.489 39.4971c-50.3301 26.332 -91.6611 60.8301 -123.992 103.494s-56.3291 90.9941 -71.9941 144.991c-15.666 53.9971 -23.499 108.327 -23.499 162.99c0 60.6631 5.66602 111.827 16.999 153.491s26.499 77.1621 45.498 106.493
s40.498 53.6631 64.4961 72.9961c23.999 19.332 48.498 37.3311 73.4971 53.9961l73.4951 49.4971c23.999 16.333 45.498 35.999 64.4971 58.998c18.999 22.998 34.165 50.6631 45.498 82.9941s16.999 72.4951 16.999 120.492v11.999zM428.022 1246.01v287.982
l287.982 11.999v-299.981h-287.982z" />
    <glyph glyph-name="Agrave" unicode="&#xc0;" horiz-adv-x="1131" 
d="M359 329l-67 -329h-267l324 1518l427 18l332 -1524l-327 -12l-57 329h-365zM670 575l-141 735l-116 -735h257zM606 1625l-410 346l227 202l297 -447z" />
    <glyph glyph-name="Aacute" unicode="&#xc1;" horiz-adv-x="1131" 
d="M359 329l-67 -329h-267l324 1518l427 18l332 -1524l-327 -12l-57 329h-365zM670 575l-141 735l-116 -735h257zM405 1730l297 447l227 -202l-411 -346z" />
    <glyph glyph-name="Acircumflex" unicode="&#xc2;" horiz-adv-x="1131" 
d="M359 329l-67 -329h-267l324 1518l427 18l332 -1524l-327 -12l-57 329h-365zM670 575l-141 735l-116 -735h257zM231 1632l240 480h202l230 -480h-250l-96 290l-116 -290h-210z" />
    <glyph glyph-name="Atilde" unicode="&#xc3;" horiz-adv-x="1131" 
d="M359 329l-67 -329h-267l324 1518l427 18l332 -1524l-327 -12l-57 329h-365zM670 575l-141 735l-116 -735h257zM248 1799c20 22.667 40.998 43.001 62.998 61.001c18.667 15.333 39.334 29.333 62.001 42s45.334 19 68.001 19c26.667 0 50.667 -4.16699 72 -12.5
s41.833 -17.5 61.5 -27.5s38.834 -19.167 57.501 -27.5s38.667 -12.5 60 -12.5c25.333 0 47.5 4.16699 66.5 12.5s34.5 17.5 46.5 27.5c14 12 26 25.333 36 40l44 -162c0 -0.666992 -4.33301 -8.66699 -13 -24s-21.167 -32 -37.5 -50s-36.333 -34.333 -60 -49
s-50.5 -22 -80.5 -22c-24 0 -45.833 5.33301 -65.5 16s-39.5 22.167 -59.5 34.5s-41 23.833 -63 34.5s-47.333 16 -76 16c-20.667 0 -41 -5.16699 -61 -15.5s-37.667 -21.833 -53 -34.5c-18.667 -14.667 -36.334 -31.334 -53.001 -50.001z" />
    <glyph glyph-name="Adieresis" unicode="&#xc4;" horiz-adv-x="1131" 
d="M359 329l-67 -329h-267l324 1518l427 18l332 -1524l-327 -12l-57 329h-365zM670 575l-141 735l-116 -735h257zM471 1920v-288h-288v288h288zM951 1920v-288h-288v288h288z" />
    <glyph glyph-name="Aring" unicode="&#xc5;" horiz-adv-x="1131" 
d="M359 329l-67 -329h-267l324 1518l427 18l332 -1524l-327 -12l-57 329h-365zM670 575l-141 735l-116 -735h257zM567 1632c-39.333 0 -77.666 5.66699 -114.999 17s-70.666 28.166 -99.999 50.499s-53 50.666 -71 84.999s-27 74.5 -27 120.5c0 45.333 9 85 27 119
s41.667 62.167 71 84.5s62.666 39.166 99.999 50.5c37.333 11.333 75.666 17 114.999 17c38.667 0 76.667 -5.66699 114 -17s70.666 -28.166 99.999 -50.5c29.333 -22.333 53 -50.5 71 -84.5s27 -73.667 27 -119c0 -46 -9 -86.167 -27 -120.5s-41.667 -62.666 -71 -84.999
s-62.666 -39.166 -99.999 -50.499s-75.333 -17 -114 -17zM566 1791c15.333 0 30.3301 2.33301 44.9971 7s27.834 11.834 39.501 21.501s21.167 21.5 28.5 35.5s11 30.333 11 49c0 18 -3.66699 33.833 -11 47.5s-16.666 25.167 -27.999 34.5s-24.5 16.5 -39.5 21.5
s-29.833 7.5 -44.5 7.5c-15.333 0 -30.5 -2.5 -45.5 -7.5s-28.333 -12.167 -40 -21.5s-21 -20.833 -28 -34.5s-10.5 -29.5 -10.5 -47.5c0 -18.667 3.5 -35 10.5 -49s16.333 -25.833 28 -35.5s24.834 -16.834 39.501 -21.501s29.667 -7 45 -7z" />
    <glyph glyph-name="AE" unicode="&#xc6;" horiz-adv-x="1580" 
d="M769 0l16 329h-335l-130 -329h-327l661 1518l204 18h656l-24 -240h-386v-366h253l-1 -258h-252v-432h426l-24 -240h-737zM786 575l22 735l-259 -735h237z" />
    <glyph glyph-name="Ccedilla" unicode="&#xc7;" horiz-adv-x="1073" 
d="M999 523c0 -71.333 -8.83301 -140.502 -26.5 -207.502s-44.5 -126.167 -80.5 -177.5s-81.333 -92.5 -136 -123.5s-119 -46.5 -193 -46.5c-64 0 -120.5 11.5 -169.5 34.5s-91.167 54.667 -126.5 95s-64.833 87.333 -88.5 141s-42.5 111.334 -56.5 173.001
s-24 125.667 -30 192s-9 131.833 -9 196.5c0 57.333 3.66699 116.166 11 176.499s19 119 35 176s36.833 110.667 62.5 161s56.5 94.333 92.5 132s77.667 67.5 125 89.5s101 33 161 33c67.333 0 127.5 -16.167 180.5 -48.5s97.667 -74.666 134 -126.999
s64.166 -111.5 83.499 -177.5s29 -133 29 -201l-290 -15c0 5.33301 -0.333008 17.166 -1 35.499s-2.66699 39.666 -6 63.999s-8.16602 50 -14.499 77s-15.166 51.833 -26.499 74.5s-25.666 41.334 -42.999 56.001s-38.333 22 -63 22c-24 0 -44.833 -7.83301 -62.5 -23.5
s-32.834 -36.667 -45.501 -63s-23 -57.166 -31 -92.499s-14.333 -72.5 -19 -111.5s-7.83398 -78.833 -9.50098 -119.5s-2.5 -80 -2.5 -118c0 -48 0.833008 -95.667 2.5 -143s5.16699 -92.333 10.5 -135s12.5 -82.167 21.5 -118.5s21 -67.666 36 -93.999s33 -47 54 -62
s45.833 -22.5 74.5 -22.5c31.333 0 56.833 10.5 76.5 31.5s35.5 47.5 47.5 79.5s20.667 66.833 26 104.5s9.33301 73.167 12 106.5zM494 47.998l152.001 -0.00195312l-30 -124c40.667 -11.333 74.667 -25.666 102 -42.999s49.666 -35.333 66.999 -54
s30.666 -37.5 39.999 -56.5s16 -36.333 20 -52s6.16699 -28.667 6.5 -39s0.5 -16.5 0.5 -18.5c0 -40 -6 -73.667 -18 -101s-28 -49.666 -48 -66.999s-43 -29.833 -69 -37.5s-53 -11.5 -81 -11.5c-43.333 0 -85.5 5.83301 -126.5 17.5s-75.5 27.167 -103.5 46.5v165
c29.333 -13.333 55.833 -22.666 79.5 -27.999s45.167 -8 64.5 -8c34.667 0 59.334 7.33301 74.001 22s22 32 22 52c0 13.333 -3.66699 27 -11 41s-18.833 26.667 -34.5 38s-35.5 20.666 -59.5 27.999s-53 11 -87 11z" />
    <glyph glyph-name="Egrave" unicode="&#xc8;" horiz-adv-x="988" 
d="M142 1536h780l-24 -240h-456v-366h323l-1 -258h-322v-432h496l-24 -240h-772v1536zM412 1625l-410 346l227 202l297 -447z" />
    <glyph glyph-name="Eacute" unicode="&#xc9;" horiz-adv-x="988" 
d="M142 1536h780l-24 -240h-456v-366h323l-1 -258h-322v-432h496l-24 -240h-772v1536zM461 1730l297 447l227 -202l-411 -346z" />
    <glyph glyph-name="Ecircumflex" unicode="&#xca;" horiz-adv-x="988" 
d="M142 1536h780l-24 -240h-456v-366h323l-1 -258h-322v-432h496l-24 -240h-772v1536zM193 1632l240 480h202l230 -480h-250l-96 290l-116 -290h-210z" />
    <glyph glyph-name="Edieresis" unicode="&#xcb;" horiz-adv-x="988" 
d="M142 1536h780l-24 -240h-456v-366h323l-1 -258h-322v-432h496l-24 -240h-772v1536zM450 1920v-288h-288v288h288zM930 1920v-288h-288v288h288z" />
    <glyph glyph-name="Igrave" unicode="&#xcc;" horiz-adv-x="583" 
d="M142 1512l300 24v-1524l-300 -24v1524zM331 1625l-410 346l227 202l297 -447z" />
    <glyph glyph-name="Iacute" unicode="&#xcd;" horiz-adv-x="583" 
d="M142 1512l300 24v-1524l-300 -24v1524zM130 1730l297 447l227 -202l-411 -346z" />
    <glyph glyph-name="Icircumflex" unicode="&#xce;" horiz-adv-x="583" 
d="M142 1512l300 24v-1524l-300 -24v1524zM-44 1632l240 480h202l230 -480h-250l-96 290l-116 -290h-210z" />
    <glyph glyph-name="Idieresis" unicode="&#xcf;" horiz-adv-x="582" 
d="M142 1512l300 24v-1524l-300 -24v1524zM195 1920v-288h-288v288h288zM675 1920v-288h-288v288h288z" />
    <glyph glyph-name="Eth" unicode="&#xd0;" horiz-adv-x="1138" 
d="M5 864l143 0.00195312v672h314c202 0 353 -63.833 453 -191.5s150 -321.834 150 -582.501c0 -64.667 -4.33301 -128.5 -13 -191.5s-22.167 -122.667 -40.5 -179s-41.833 -108.5 -70.5 -156.5s-63.334 -89.333 -104.001 -124s-87.667 -61.834 -141 -81.501
s-113.666 -29.5 -180.999 -29.5h-367v672h-143v192zM447 1296l0.00292969 -431.999h134v-192h-134v-432h43c38 0 71.333 6.5 100 19.5s53.167 30.833 73.5 53.5s37 49.167 50 79.5s23.333 62.666 31 96.999s13 69.833 16 106.5s4.5 73 4.5 109v112c0 42 -2 84.833 -6 128.5
s-11.333 86.5 -22 128.5s-26.334 79.5 -47.001 112.5s-47.834 59.5 -81.501 79.5s-75.834 30 -126.501 30h-35z" />
    <glyph glyph-name="Ntilde" unicode="&#xd1;" horiz-adv-x="1245" 
d="M409 948v-936l-268 -12v1524l313 12l396 -914v890l254 24v-1524l-246 -24zM280 1799c20 22.667 40.998 43.001 62.998 61.001c18.667 15.333 39.334 29.333 62.001 42s45.334 19 68.001 19c26.667 0 50.667 -4.16699 72 -12.5s41.833 -17.5 61.5 -27.5
s38.834 -19.167 57.501 -27.5s38.667 -12.5 60 -12.5c25.333 0 47.5 4.16699 66.5 12.5s34.5 17.5 46.5 27.5c14 12 26 25.333 36 40l44 -162c0 -0.666992 -4.33301 -8.66699 -13 -24s-21.167 -32 -37.5 -50s-36.333 -34.333 -60 -49s-50.5 -22 -80.5 -22
c-24 0 -45.833 5.33301 -65.5 16s-39.5 22.167 -59.5 34.5s-41 23.833 -63 34.5s-47.333 16 -76 16c-20.667 0 -41 -5.16699 -61 -15.5s-37.667 -21.833 -53 -34.5c-18.667 -14.667 -36.334 -31.334 -53.001 -50.001z" />
    <glyph glyph-name="Ograve" unicode="&#xd2;" horiz-adv-x="1125" 
d="M561 -32c-65.333 0 -122.503 11 -171.503 33s-91.167 52.667 -126.5 92s-64.333 85.833 -87 139.5s-40.667 112 -54 175s-22.666 129.5 -27.999 199.5s-8 141 -8 213c0 108 9.16699 208 27.5 300s46.833 170.667 85.5 236s87.834 115.833 147.501 151.5
s131.167 53.5 214.5 53.5s155.166 -17.833 215.499 -53.5s110 -86.167 149 -151.5s67.667 -144 86 -236s27.5 -192 27.5 -300c0 -72 -2.66699 -143 -8 -213s-14.833 -136.5 -28.5 -199.5s-32 -121.333 -55 -175s-52.167 -100.167 -87.5 -139.5s-77.666 -70 -126.999 -92
s-106.666 -33 -171.999 -33zM560.997 223c40 0 71.833 13.833 95.5 41.5s41.667 67.334 54 119.001s20.166 114.334 23.499 188.001s5 156.5 5 248.5c0 32 -0.5 65.5 -1.5 100.5s-3.5 71.333 -7.5 109s-9.83301 74.167 -17.5 109.5s-18.167 66.5 -31.5 93.5
s-29.833 48.667 -49.5 65s-43.167 24.5 -70.5 24.5s-50.666 -8.16699 -69.999 -24.5s-35.5 -38 -48.5 -65s-23.333 -58.167 -31 -93.5s-13.5 -71.833 -17.5 -109.5s-6.5 -74 -7.5 -109s-1.5 -68.5 -1.5 -100.5c0 -92 1.66699 -174.833 5 -248.5s11 -136.334 23 -188.001
s29.667 -91.334 53 -119.001s55 -41.5 95 -41.5zM649.997 1625l-410 346l227 202l297 -447z" />
    <glyph glyph-name="Oacute" unicode="&#xd3;" horiz-adv-x="1125" 
d="M561 -32c-65.333 0 -122.503 11 -171.503 33s-91.167 52.667 -126.5 92s-64.333 85.833 -87 139.5s-40.667 112 -54 175s-22.666 129.5 -27.999 199.5s-8 141 -8 213c0 108 9.16699 208 27.5 300s46.833 170.667 85.5 236s87.834 115.833 147.501 151.5
s131.167 53.5 214.5 53.5s155.166 -17.833 215.499 -53.5s110 -86.167 149 -151.5s67.667 -144 86 -236s27.5 -192 27.5 -300c0 -72 -2.66699 -143 -8 -213s-14.833 -136.5 -28.5 -199.5s-32 -121.333 -55 -175s-52.167 -100.167 -87.5 -139.5s-77.666 -70 -126.999 -92
s-106.666 -33 -171.999 -33zM560.997 223c40 0 71.833 13.833 95.5 41.5s41.667 67.334 54 119.001s20.166 114.334 23.499 188.001s5 156.5 5 248.5c0 32 -0.5 65.5 -1.5 100.5s-3.5 71.333 -7.5 109s-9.83301 74.167 -17.5 109.5s-18.167 66.5 -31.5 93.5
s-29.833 48.667 -49.5 65s-43.167 24.5 -70.5 24.5s-50.666 -8.16699 -69.999 -24.5s-35.5 -38 -48.5 -65s-23.333 -58.167 -31 -93.5s-13.5 -71.833 -17.5 -109.5s-6.5 -74 -7.5 -109s-1.5 -68.5 -1.5 -100.5c0 -92 1.66699 -174.833 5 -248.5s11 -136.334 23 -188.001
s29.667 -91.334 53 -119.001s55 -41.5 95 -41.5zM399.997 1730l297 447l227 -202l-411 -346z" />
    <glyph glyph-name="Ocircumflex" unicode="&#xd4;" horiz-adv-x="1125" 
d="M561 -32c-65.333 0 -122.503 11 -171.503 33s-91.167 52.667 -126.5 92s-64.333 85.833 -87 139.5s-40.667 112 -54 175s-22.666 129.5 -27.999 199.5s-8 141 -8 213c0 108 9.16699 208 27.5 300s46.833 170.667 85.5 236s87.834 115.833 147.501 151.5
s131.167 53.5 214.5 53.5s155.166 -17.833 215.499 -53.5s110 -86.167 149 -151.5s67.667 -144 86 -236s27.5 -192 27.5 -300c0 -72 -2.66699 -143 -8 -213s-14.833 -136.5 -28.5 -199.5s-32 -121.333 -55 -175s-52.167 -100.167 -87.5 -139.5s-77.666 -70 -126.999 -92
s-106.666 -33 -171.999 -33zM560.997 223c40 0 71.833 13.833 95.5 41.5s41.667 67.334 54 119.001s20.166 114.334 23.499 188.001s5 156.5 5 248.5c0 32 -0.5 65.5 -1.5 100.5s-3.5 71.333 -7.5 109s-9.83301 74.167 -17.5 109.5s-18.167 66.5 -31.5 93.5
s-29.833 48.667 -49.5 65s-43.167 24.5 -70.5 24.5s-50.666 -8.16699 -69.999 -24.5s-35.5 -38 -48.5 -65s-23.333 -58.167 -31 -93.5s-13.5 -71.833 -17.5 -109.5s-6.5 -74 -7.5 -109s-1.5 -68.5 -1.5 -100.5c0 -92 1.66699 -174.833 5 -248.5s11 -136.334 23 -188.001
s29.667 -91.334 53 -119.001s55 -41.5 95 -41.5zM225.997 1632l240 480h202l230 -480h-250l-96 290l-116 -290h-210z" />
    <glyph glyph-name="Otilde" unicode="&#xd5;" horiz-adv-x="1125" 
d="M561 -32c-65.333 0 -122.503 11 -171.503 33s-91.167 52.667 -126.5 92s-64.333 85.833 -87 139.5s-40.667 112 -54 175s-22.666 129.5 -27.999 199.5s-8 141 -8 213c0 108 9.16699 208 27.5 300s46.833 170.667 85.5 236s87.834 115.833 147.501 151.5
s131.167 53.5 214.5 53.5s155.166 -17.833 215.499 -53.5s110 -86.167 149 -151.5s67.667 -144 86 -236s27.5 -192 27.5 -300c0 -72 -2.66699 -143 -8 -213s-14.833 -136.5 -28.5 -199.5s-32 -121.333 -55 -175s-52.167 -100.167 -87.5 -139.5s-77.666 -70 -126.999 -92
s-106.666 -33 -171.999 -33zM560.997 223c40 0 71.833 13.833 95.5 41.5s41.667 67.334 54 119.001s20.166 114.334 23.499 188.001s5 156.5 5 248.5c0 32 -0.5 65.5 -1.5 100.5s-3.5 71.333 -7.5 109s-9.83301 74.167 -17.5 109.5s-18.167 66.5 -31.5 93.5
s-29.833 48.667 -49.5 65s-43.167 24.5 -70.5 24.5s-50.666 -8.16699 -69.999 -24.5s-35.5 -38 -48.5 -65s-23.333 -58.167 -31 -93.5s-13.5 -71.833 -17.5 -109.5s-6.5 -74 -7.5 -109s-1.5 -68.5 -1.5 -100.5c0 -92 1.66699 -174.833 5 -248.5s11 -136.334 23 -188.001
s29.667 -91.334 53 -119.001s55 -41.5 95 -41.5zM242.997 1799c20 22.667 40.998 43.001 62.998 61.001c18.667 15.333 39.334 29.333 62.001 42s45.334 19 68.001 19c26.667 0 50.667 -4.16699 72 -12.5s41.833 -17.5 61.5 -27.5s38.834 -19.167 57.501 -27.5
s38.667 -12.5 60 -12.5c25.333 0 47.5 4.16699 66.5 12.5s34.5 17.5 46.5 27.5c14 12 26 25.333 36 40l44 -162c0 -0.666992 -4.33301 -8.66699 -13 -24s-21.167 -32 -37.5 -50s-36.333 -34.333 -60 -49s-50.5 -22 -80.5 -22c-24 0 -45.833 5.33301 -65.5 16
s-39.5 22.167 -59.5 34.5s-41 23.833 -63 34.5s-47.333 16 -76 16c-20.667 0 -41 -5.16699 -61 -15.5s-37.667 -21.833 -53 -34.5c-18.667 -14.667 -36.334 -31.334 -53.001 -50.001z" />
    <glyph glyph-name="Odieresis" unicode="&#xd6;" horiz-adv-x="1125" 
d="M561 -32c-65.333 0 -122.503 11 -171.503 33s-91.167 52.667 -126.5 92s-64.333 85.833 -87 139.5s-40.667 112 -54 175s-22.666 129.5 -27.999 199.5s-8 141 -8 213c0 108 9.16699 208 27.5 300s46.833 170.667 85.5 236s87.834 115.833 147.501 151.5
s131.167 53.5 214.5 53.5s155.166 -17.833 215.499 -53.5s110 -86.167 149 -151.5s67.667 -144 86 -236s27.5 -192 27.5 -300c0 -72 -2.66699 -143 -8 -213s-14.833 -136.5 -28.5 -199.5s-32 -121.333 -55 -175s-52.167 -100.167 -87.5 -139.5s-77.666 -70 -126.999 -92
s-106.666 -33 -171.999 -33zM560.997 223c40 0 71.833 13.833 95.5 41.5s41.667 67.334 54 119.001s20.166 114.334 23.499 188.001s5 156.5 5 248.5c0 32 -0.5 65.5 -1.5 100.5s-3.5 71.333 -7.5 109s-9.83301 74.167 -17.5 109.5s-18.167 66.5 -31.5 93.5
s-29.833 48.667 -49.5 65s-43.167 24.5 -70.5 24.5s-50.666 -8.16699 -69.999 -24.5s-35.5 -38 -48.5 -65s-23.333 -58.167 -31 -93.5s-13.5 -71.833 -17.5 -109.5s-6.5 -74 -7.5 -109s-1.5 -68.5 -1.5 -100.5c0 -92 1.66699 -174.833 5 -248.5s11 -136.334 23 -188.001
s29.667 -91.334 53 -119.001s55 -41.5 95 -41.5zM465.997 1920v-288h-288v288h288zM945.997 1920v-288h-288v288h288z" />
    <glyph glyph-name="multiply" unicode="&#xd7;" horiz-adv-x="857" 
d="M427 720l188 188l168 -169l-188 -187l191 -190l-169 -169l-190 191l-187 -188l-169 168l188 188l-185 184l169 169z" />
    <glyph glyph-name="Oslash" unicode="&#xd8;" horiz-adv-x="1129" 
d="M562 -32c-45.333 0 -86.502 5.33398 -123.502 16.001s-70.5 25.667 -100.5 45s-56.667 43 -80 71s-44 59 -62 93l-72 -87l-95 92l112 136c-20.667 72 -34.834 149.167 -42.501 231.5s-11.5 167.166 -11.5 254.499c0 112.667 9.16699 215 27.5 307
s46.833 170.667 85.5 236s87.834 115.833 147.501 151.5s131.167 53.5 214.5 53.5c92.667 0 171.167 -22 235.5 -66s115.5 -105.667 153.5 -185l84 102l95 -92l-128 -156c25.333 -103.333 38 -220.333 38 -351c0 -72 -2.66699 -143 -8 -213s-14.833 -136.5 -28.5 -199.5
s-32 -121.333 -55 -175s-52.167 -100.167 -87.5 -139.5s-77.666 -70 -126.999 -92s-106.666 -33 -171.999 -33zM385.998 820.001l-0.000976562 -97c0 -30.667 0.666992 -60.334 2 -89.001l341 414c-4 36.667 -10 71.834 -18 105.501s-18.5 63.5 -31.5 89.5
s-29.167 46.833 -48.5 62.5s-42.333 23.5 -69 23.5c-27.333 0 -50.666 -8.16699 -69.999 -24.5s-35.5 -38 -48.5 -65s-23.333 -58.167 -31 -93.5s-13.5 -71.833 -17.5 -109.5s-6.5 -75.167 -7.5 -112.5s-1.5 -72 -1.5 -104zM561.997 223.001
c40 0 71.835 13.8311 95.502 41.498s41.667 67.334 54 119.001s20.166 114.334 23.499 188.001s5 156.5 5 248.5v33l-337 -409c10 -70.667 27.167 -125.167 51.5 -163.5s60.166 -57.5 107.499 -57.5z" />
    <glyph glyph-name="Ugrave" unicode="&#xd9;" horiz-adv-x="1163" 
d="M132 1524l299.999 12.0039v-1054c0 -30.667 1 -61.334 3 -92.001s8.5 -58.334 19.5 -83.001s27.667 -44.834 50 -60.501s54.166 -23.5 95.499 -23.5c38.667 0 68.5 8 89.5 24s36.5 36.667 46.5 62s15.833 53.5 17.5 84.5s2.5 61.5 2.5 91.5v1027l275 24v-995
c0 -29.333 -0.666992 -63.833 -2 -103.5s-6.16602 -80.667 -14.499 -123s-21.833 -84.333 -40.5 -126s-45.5 -78.834 -80.5 -111.501s-79.667 -59 -134 -79s-121.166 -30 -200.499 -30c-74 0 -137.833 14.5 -191.5 43.5s-98 68 -133 117s-60.833 106.167 -77.5 171.5
s-25 134 -25 206v1018zM669.999 1625l-410 346l227 202l297 -447z" />
    <glyph glyph-name="Uacute" unicode="&#xda;" horiz-adv-x="1163" 
d="M132 1524l299.999 12.0039v-1054c0 -30.667 1 -61.334 3 -92.001s8.5 -58.334 19.5 -83.001s27.667 -44.834 50 -60.501s54.166 -23.5 95.499 -23.5c38.667 0 68.5 8 89.5 24s36.5 36.667 46.5 62s15.833 53.5 17.5 84.5s2.5 61.5 2.5 91.5v1027l275 24v-995
c0 -29.333 -0.666992 -63.833 -2 -103.5s-6.16602 -80.667 -14.499 -123s-21.833 -84.333 -40.5 -126s-45.5 -78.834 -80.5 -111.501s-79.667 -59 -134 -79s-121.166 -30 -200.499 -30c-74 0 -137.833 14.5 -191.5 43.5s-98 68 -133 117s-60.833 106.167 -77.5 171.5
s-25 134 -25 206v1018zM419.999 1730l297 447l227 -202l-411 -346z" />
    <glyph glyph-name="Ucircumflex" unicode="&#xdb;" horiz-adv-x="1163" 
d="M132 1524l299.999 12.0039v-1054c0 -30.667 1 -61.334 3 -92.001s8.5 -58.334 19.5 -83.001s27.667 -44.834 50 -60.501s54.166 -23.5 95.499 -23.5c38.667 0 68.5 8 89.5 24s36.5 36.667 46.5 62s15.833 53.5 17.5 84.5s2.5 61.5 2.5 91.5v1027l275 24v-995
c0 -29.333 -0.666992 -63.833 -2 -103.5s-6.16602 -80.667 -14.499 -123s-21.833 -84.333 -40.5 -126s-45.5 -78.834 -80.5 -111.501s-79.667 -59 -134 -79s-121.166 -30 -200.499 -30c-74 0 -137.833 14.5 -191.5 43.5s-98 68 -133 117s-60.833 106.167 -77.5 171.5
s-25 134 -25 206v1018zM245.999 1632l240 480h202l230 -480h-250l-96 290l-116 -290h-210z" />
    <glyph glyph-name="Udieresis" unicode="&#xdc;" horiz-adv-x="1163" 
d="M132 1524l299.999 12.0039v-1054c0 -30.667 1 -61.334 3 -92.001s8.5 -58.334 19.5 -83.001s27.667 -44.834 50 -60.501s54.166 -23.5 95.499 -23.5c38.667 0 68.5 8 89.5 24s36.5 36.667 46.5 62s15.833 53.5 17.5 84.5s2.5 61.5 2.5 91.5v1027l275 24v-995
c0 -29.333 -0.666992 -63.833 -2 -103.5s-6.16602 -80.667 -14.499 -123s-21.833 -84.333 -40.5 -126s-45.5 -78.834 -80.5 -111.501s-79.667 -59 -134 -79s-121.166 -30 -200.499 -30c-74 0 -137.833 14.5 -191.5 43.5s-98 68 -133 117s-60.833 106.167 -77.5 171.5
s-25 134 -25 206v1018zM485.999 1920v-288h-288v288h288zM965.999 1920v-288h-288v288h288z" />
    <glyph glyph-name="Yacute" unicode="&#xdd;" horiz-adv-x="1027" 
d="M367 608l-370 928h330l211 -640l228 640h259l-355 -893v-631l-303 -24v620zM349 1730l297 447l227 -202l-411 -346z" />
    <glyph glyph-name="Thorn" unicode="&#xde;" horiz-adv-x="1082" 
d="M140 1536l302 -0.00195312v-369c48 -0.666992 96.167 -2.66699 144.5 -6s95 -10.166 140 -20.499s87 -25.5 126 -45.5s73 -46.5 102 -79.5s51.833 -74 68.5 -123s25 -107.833 25 -176.5s-8.66699 -127.5 -26 -176.5s-41 -90.167 -71 -123.5s-64.833 -60 -104.5 -80
s-82.167 -35.167 -127.5 -45.5s-91.833 -17.166 -139.5 -20.499s-94.167 -5 -139.5 -5v-333l-300 -24v1628zM493 487.998c34.667 0 67.502 3.16504 98.502 9.49805s58.167 18 81.5 35s41.833 40.5 55.5 70.5s20.5 68.333 20.5 115c0 46 -5.83301 83.333 -17.5 112
s-28.834 50.834 -51.501 66.501s-50.334 26.334 -83.001 32.001s-70 8.5 -112 8.5h-43v-449h51z" />
    <glyph glyph-name="germandbls" unicode="&#xdf;" horiz-adv-x="1170" 
d="M124 0l-0.00390625 1056c0 90.667 11.333 168.334 34 233.001s52.834 117.667 90.501 159s80.834 71.5 129.501 90.5s99 28.5 151 28.5c72 0 137.167 -10.333 195.5 -31s107.833 -48.334 148.5 -83.001s72 -74.667 94 -120s33 -92.333 33 -141
c0 -58.667 -16.5 -117 -49.5 -175s-85.5 -111 -157.5 -159c42.667 -14 84 -30.667 124 -50s75.5 -43.833 106.5 -73.5s56 -65.834 75 -108.501s28.5 -94.334 28.5 -155.001c0 -60 -7.66699 -113.167 -23 -159.5s-36.333 -86.5 -63 -120.5s-58.5 -62.5 -95.5 -85.5
s-77.333 -41.833 -121 -56.5s-89.667 -25.667 -138 -33s-97.166 -12 -146.499 -14v228h12c48.667 0 91 6.5 127 19.5s65.5 30.333 88.5 52s40.167 46.5 51.5 74.5s17 56.667 17 86c0 32 -6.33301 63.667 -19 95s-31.167 59.166 -55.5 83.499s-54.166 44.166 -89.499 59.499
s-75.666 23 -120.999 23v208c34.667 11.333 64.667 25.5 90 42.5s46.166 35.667 62.499 56s28.333 41.666 36 63.999s11.5 44.5 11.5 66.5c0 24 -4.5 47.167 -13.5 69.5s-21.667 42 -38 59s-36.333 30.667 -60 41s-50.167 15.5 -79.5 15.5
c-18.667 0 -36.667 -4.66699 -54 -14s-32.833 -23.5 -46.5 -42.5s-24.667 -43.167 -33 -72.5s-12.5 -64.333 -12.5 -105v-1111h-290z" />
    <glyph glyph-name="agrave" unicode="&#xe0;" horiz-adv-x="968" 
d="M56 327c0 54.667 7.82812 102.5 23.4951 143.5s36.667 76.333 63 106s56.833 54.5 91.5 74.5s70.834 36.167 108.501 48.5s75.5 21.666 113.5 27.999s73.667 10.5 107 12.5c0 26.667 -0.333008 52.834 -1 78.501s-3.66699 48.667 -9 69s-13.666 36.833 -24.999 49.5
s-27.333 19 -48 19c-17.333 0 -32.166 -3.83301 -44.499 -11.5s-22.666 -17.667 -30.999 -30s-14.666 -26.333 -18.999 -42s-7.5 -31.167 -9.5 -46.5l-280 49c7.33301 57.333 23.666 104.833 48.999 142.5s55.833 67.5 91.5 89.5s74.667 37.5 117 46.5s84.5 13.5 126.5 13.5
c65.333 0 121.333 -9.16699 168 -27.5s85 -43.5 115 -75.5s52.167 -69.5 66.5 -112.5s21.5 -89.167 21.5 -138.5v-596c0 -22.667 1.5 -46 4.5 -70s6.5 -46 10.5 -66c4.66699 -23.333 10 -46.333 16 -69l-280 -24l-32 141c-11.333 -20.667 -26.166 -40.334 -44.499 -59.001
s-38.833 -35.167 -61.5 -49.5s-46.667 -25.833 -72 -34.5s-50.333 -13 -75 -13c-39.333 0 -75 8.83301 -107 26.5s-59.5 42.334 -82.5 74.001s-40.667 69 -53 112s-18.5 90.167 -18.5 141.5zM337.995 331c0 -45.333 9.16602 -82 27.499 -110s47.166 -42 86.499 -42
c13.333 0 26.5 3.5 39.5 10.5s24.833 14.833 35.5 23.5c12 10 24 21.333 36 34v321c-32 0 -61.667 -4 -89 -12s-51.166 -21.333 -71.499 -40s-36.166 -43.167 -47.499 -73.5s-17 -67.5 -17 -111.5zM568.994 1241l-410 346l227 202l297 -447z" />
    <glyph glyph-name="aacute" unicode="&#xe1;" horiz-adv-x="968" 
d="M56 327c0 54.667 7.82812 102.5 23.4951 143.5s36.667 76.333 63 106s56.833 54.5 91.5 74.5s70.834 36.167 108.501 48.5s75.5 21.666 113.5 27.999s73.667 10.5 107 12.5c0 26.667 -0.333008 52.834 -1 78.501s-3.66699 48.667 -9 69s-13.666 36.833 -24.999 49.5
s-27.333 19 -48 19c-17.333 0 -32.166 -3.83301 -44.499 -11.5s-22.666 -17.667 -30.999 -30s-14.666 -26.333 -18.999 -42s-7.5 -31.167 -9.5 -46.5l-280 49c7.33301 57.333 23.666 104.833 48.999 142.5s55.833 67.5 91.5 89.5s74.667 37.5 117 46.5s84.5 13.5 126.5 13.5
c65.333 0 121.333 -9.16699 168 -27.5s85 -43.5 115 -75.5s52.167 -69.5 66.5 -112.5s21.5 -89.167 21.5 -138.5v-596c0 -22.667 1.5 -46 4.5 -70s6.5 -46 10.5 -66c4.66699 -23.333 10 -46.333 16 -69l-280 -24l-32 141c-11.333 -20.667 -26.166 -40.334 -44.499 -59.001
s-38.833 -35.167 -61.5 -49.5s-46.667 -25.833 -72 -34.5s-50.333 -13 -75 -13c-39.333 0 -75 8.83301 -107 26.5s-59.5 42.334 -82.5 74.001s-40.667 69 -53 112s-18.5 90.167 -18.5 141.5zM337.995 331c0 -45.333 9.16602 -82 27.499 -110s47.166 -42 86.499 -42
c13.333 0 26.5 3.5 39.5 10.5s24.833 14.833 35.5 23.5c12 10 24 21.333 36 34v321c-32 0 -61.667 -4 -89 -12s-51.166 -21.333 -71.499 -40s-36.166 -43.167 -47.499 -73.5s-17 -67.5 -17 -111.5zM318.994 1346l297 447l227 -202l-411 -346z" />
    <glyph glyph-name="acircumflex" unicode="&#xe2;" horiz-adv-x="968" 
d="M56 327c0 54.667 7.82812 102.5 23.4951 143.5s36.667 76.333 63 106s56.833 54.5 91.5 74.5s70.834 36.167 108.501 48.5s75.5 21.666 113.5 27.999s73.667 10.5 107 12.5c0 26.667 -0.333008 52.834 -1 78.501s-3.66699 48.667 -9 69s-13.666 36.833 -24.999 49.5
s-27.333 19 -48 19c-17.333 0 -32.166 -3.83301 -44.499 -11.5s-22.666 -17.667 -30.999 -30s-14.666 -26.333 -18.999 -42s-7.5 -31.167 -9.5 -46.5l-280 49c7.33301 57.333 23.666 104.833 48.999 142.5s55.833 67.5 91.5 89.5s74.667 37.5 117 46.5s84.5 13.5 126.5 13.5
c65.333 0 121.333 -9.16699 168 -27.5s85 -43.5 115 -75.5s52.167 -69.5 66.5 -112.5s21.5 -89.167 21.5 -138.5v-596c0 -22.667 1.5 -46 4.5 -70s6.5 -46 10.5 -66c4.66699 -23.333 10 -46.333 16 -69l-280 -24l-32 141c-11.333 -20.667 -26.166 -40.334 -44.499 -59.001
s-38.833 -35.167 -61.5 -49.5s-46.667 -25.833 -72 -34.5s-50.333 -13 -75 -13c-39.333 0 -75 8.83301 -107 26.5s-59.5 42.334 -82.5 74.001s-40.667 69 -53 112s-18.5 90.167 -18.5 141.5zM337.995 331c0 -45.333 9.16602 -82 27.499 -110s47.166 -42 86.499 -42
c13.333 0 26.5 3.5 39.5 10.5s24.833 14.833 35.5 23.5c12 10 24 21.333 36 34v321c-32 0 -61.667 -4 -89 -12s-51.166 -21.333 -71.499 -40s-36.166 -43.167 -47.499 -73.5s-17 -67.5 -17 -111.5zM144.994 1248l240 480h202l230 -480h-250l-96 290l-116 -290h-210z" />
    <glyph glyph-name="atilde" unicode="&#xe3;" horiz-adv-x="968" 
d="M56 327c0 54.667 7.82812 102.5 23.4951 143.5s36.667 76.333 63 106s56.833 54.5 91.5 74.5s70.834 36.167 108.501 48.5s75.5 21.666 113.5 27.999s73.667 10.5 107 12.5c0 26.667 -0.333008 52.834 -1 78.501s-3.66699 48.667 -9 69s-13.666 36.833 -24.999 49.5
s-27.333 19 -48 19c-17.333 0 -32.166 -3.83301 -44.499 -11.5s-22.666 -17.667 -30.999 -30s-14.666 -26.333 -18.999 -42s-7.5 -31.167 -9.5 -46.5l-280 49c7.33301 57.333 23.666 104.833 48.999 142.5s55.833 67.5 91.5 89.5s74.667 37.5 117 46.5s84.5 13.5 126.5 13.5
c65.333 0 121.333 -9.16699 168 -27.5s85 -43.5 115 -75.5s52.167 -69.5 66.5 -112.5s21.5 -89.167 21.5 -138.5v-596c0 -22.667 1.5 -46 4.5 -70s6.5 -46 10.5 -66c4.66699 -23.333 10 -46.333 16 -69l-280 -24l-32 141c-11.333 -20.667 -26.166 -40.334 -44.499 -59.001
s-38.833 -35.167 -61.5 -49.5s-46.667 -25.833 -72 -34.5s-50.333 -13 -75 -13c-39.333 0 -75 8.83301 -107 26.5s-59.5 42.334 -82.5 74.001s-40.667 69 -53 112s-18.5 90.167 -18.5 141.5zM337.995 331c0 -45.333 9.16602 -82 27.499 -110s47.166 -42 86.499 -42
c13.333 0 26.5 3.5 39.5 10.5s24.833 14.833 35.5 23.5c12 10 24 21.333 36 34v321c-32 0 -61.667 -4 -89 -12s-51.166 -21.333 -71.499 -40s-36.166 -43.167 -47.499 -73.5s-17 -67.5 -17 -111.5zM162.994 1415c20 22.667 40.998 43.001 62.998 61.001
c18.667 15.333 39.334 29.333 62.001 42s45.334 19 68.001 19c26.667 0 50.667 -4.16699 72 -12.5s41.833 -17.5 61.5 -27.5s38.834 -19.167 57.501 -27.5s38.667 -12.5 60 -12.5c25.333 0 47.5 4.16699 66.5 12.5s34.5 17.5 46.5 27.5c14 12 26 25.333 36 40l44 -162
c0 -0.666992 -4.33301 -8.66699 -13 -24s-21.167 -32 -37.5 -50s-36.333 -34.333 -60 -49s-50.5 -22 -80.5 -22c-24 0 -45.833 5.33301 -65.5 16s-39.5 22.167 -59.5 34.5s-41 23.833 -63 34.5s-47.333 16 -76 16c-20.667 0 -41 -5.16699 -61 -15.5
s-37.667 -21.833 -53 -34.5c-18.667 -14.667 -36.334 -31.334 -53.001 -50.001z" />
    <glyph glyph-name="adieresis" unicode="&#xe4;" horiz-adv-x="968" 
d="M56 327c0 54.667 7.82812 102.5 23.4951 143.5s36.667 76.333 63 106s56.833 54.5 91.5 74.5s70.834 36.167 108.501 48.5s75.5 21.666 113.5 27.999s73.667 10.5 107 12.5c0 26.667 -0.333008 52.834 -1 78.501s-3.66699 48.667 -9 69s-13.666 36.833 -24.999 49.5
s-27.333 19 -48 19c-17.333 0 -32.166 -3.83301 -44.499 -11.5s-22.666 -17.667 -30.999 -30s-14.666 -26.333 -18.999 -42s-7.5 -31.167 -9.5 -46.5l-280 49c7.33301 57.333 23.666 104.833 48.999 142.5s55.833 67.5 91.5 89.5s74.667 37.5 117 46.5s84.5 13.5 126.5 13.5
c65.333 0 121.333 -9.16699 168 -27.5s85 -43.5 115 -75.5s52.167 -69.5 66.5 -112.5s21.5 -89.167 21.5 -138.5v-596c0 -22.667 1.5 -46 4.5 -70s6.5 -46 10.5 -66c4.66699 -23.333 10 -46.333 16 -69l-280 -24l-32 141c-11.333 -20.667 -26.166 -40.334 -44.499 -59.001
s-38.833 -35.167 -61.5 -49.5s-46.667 -25.833 -72 -34.5s-50.333 -13 -75 -13c-39.333 0 -75 8.83301 -107 26.5s-59.5 42.334 -82.5 74.001s-40.667 69 -53 112s-18.5 90.167 -18.5 141.5zM337.995 331c0 -45.333 9.16602 -82 27.499 -110s47.166 -42 86.499 -42
c13.333 0 26.5 3.5 39.5 10.5s24.833 14.833 35.5 23.5c12 10 24 21.333 36 34v321c-32 0 -61.667 -4 -89 -12s-51.166 -21.333 -71.499 -40s-36.166 -43.167 -47.499 -73.5s-17 -67.5 -17 -111.5zM388.994 1536v-288h-288v288h288zM868.994 1536v-288h-288v288h288z" />
    <glyph glyph-name="aring" unicode="&#xe5;" horiz-adv-x="968" 
d="M56 327c0 54.667 7.82812 102.5 23.4951 143.5s36.667 76.333 63 106s56.833 54.5 91.5 74.5s70.834 36.167 108.501 48.5s75.5 21.666 113.5 27.999s73.667 10.5 107 12.5c0 26.667 -0.333008 52.834 -1 78.501s-3.66699 48.667 -9 69s-13.666 36.833 -24.999 49.5
s-27.333 19 -48 19c-17.333 0 -32.166 -3.83301 -44.499 -11.5s-22.666 -17.667 -30.999 -30s-14.666 -26.333 -18.999 -42s-7.5 -31.167 -9.5 -46.5l-280 49c7.33301 57.333 23.666 104.833 48.999 142.5s55.833 67.5 91.5 89.5s74.667 37.5 117 46.5s84.5 13.5 126.5 13.5
c65.333 0 121.333 -9.16699 168 -27.5s85 -43.5 115 -75.5s52.167 -69.5 66.5 -112.5s21.5 -89.167 21.5 -138.5v-596c0 -22.667 1.5 -46 4.5 -70s6.5 -46 10.5 -66c4.66699 -23.333 10 -46.333 16 -69l-280 -24l-32 141c-11.333 -20.667 -26.166 -40.334 -44.499 -59.001
s-38.833 -35.167 -61.5 -49.5s-46.667 -25.833 -72 -34.5s-50.333 -13 -75 -13c-39.333 0 -75 8.83301 -107 26.5s-59.5 42.334 -82.5 74.001s-40.667 69 -53 112s-18.5 90.167 -18.5 141.5zM337.995 331c0 -45.333 9.16602 -82 27.499 -110s47.166 -42 86.499 -42
c13.333 0 26.5 3.5 39.5 10.5s24.833 14.833 35.5 23.5c12 10 24 21.333 36 34v321c-32 0 -61.667 -4 -89 -12s-51.166 -21.333 -71.499 -40s-36.166 -43.167 -47.499 -73.5s-17 -67.5 -17 -111.5zM481.994 1248c-39.333 0 -77.666 5.66699 -114.999 17
s-70.666 28.166 -99.999 50.499s-53 50.666 -71 84.999s-27 74.5 -27 120.5c0 45.333 9 85 27 119s41.667 62.167 71 84.5s62.666 39.166 99.999 50.499s75.666 17 114.999 17c38.667 0 76.667 -5.66699 114 -17s70.666 -28.166 99.999 -50.499s53 -50.5 71 -84.5
s27 -73.667 27 -119c0 -46 -9 -86.167 -27 -120.5s-41.667 -62.666 -71 -84.999s-62.666 -39.166 -99.999 -50.499s-75.333 -17 -114 -17zM480.994 1407c15.333 0 30.3301 2.33301 44.9971 7s27.834 11.834 39.501 21.501s21.167 21.5 28.5 35.5s11 30.333 11 49
c0 18 -3.66699 33.833 -11 47.5s-16.666 25.167 -27.999 34.5s-24.5 16.5 -39.5 21.5s-29.833 7.5 -44.5 7.5c-15.333 0 -30.5 -2.5 -45.5 -7.5s-28.333 -12.167 -40 -21.5s-21 -20.833 -28 -34.5s-10.5 -29.5 -10.5 -47.5c0 -18.667 3.5 -35 10.5 -49
s16.333 -25.833 28 -35.5s24.834 -16.834 39.501 -21.501s29.667 -7 45 -7z" />
    <glyph glyph-name="ae" unicode="&#xe6;" horiz-adv-x="1457" 
d="M849 536c0 -36 2.32715 -74.667 6.99414 -116s12.5 -79.333 23.5 -114s25.5 -63.5 43.5 -86.5s40 -34.5 66 -34.5c22.667 0 43.334 9 62.001 27s35 38.333 49 61s25.167 44 33.5 64s13.5 32 15.5 36l218 -83c-13.333 -46.667 -31 -89.334 -53 -128.001
s-48.667 -72 -80 -100s-67.666 -49.833 -108.999 -65.5s-88.333 -23.5 -141 -23.5c-58 0 -109.333 15 -154 45s-83.667 72 -117 126c-17.333 -33.333 -39.166 -61 -65.499 -83s-55 -39.5 -86 -52.5s-63.333 -22.167 -97 -27.5s-66.834 -8 -99.501 -8
c-46.667 0 -89.167 8.83301 -127.5 26.5s-71 42.334 -98 74.001s-48 69 -63 112s-22.5 90.167 -22.5 141.5c0 54.667 7.83301 102.5 23.5 143.5s36.667 76.333 63 106s56.833 54.5 91.5 74.5s70.834 36.167 108.501 48.5s75.5 21.666 113.5 27.999s73.667 10.5 107 12.5
c0 26.667 -0.333008 52.834 -1 78.501s-3.66699 48.667 -9 69s-13.666 36.833 -24.999 49.5s-27.333 19 -48 19c-17.333 0 -32.166 -3.83301 -44.499 -11.5s-22.666 -17.667 -30.999 -30s-14.666 -26.333 -18.999 -42s-7.5 -31.167 -9.5 -46.5l-280 49
c7.33301 57.333 23.666 104.833 48.999 142.5s55.833 67.5 91.5 89.5s74.667 37.5 117 46.5s84.5 13.5 126.5 13.5c55.333 0 103 -12 143 -36s74 -57 102 -99c36 42 76.333 75 121 99s94.667 36 150 36c68.667 0 128.667 -14.5 180 -43.5s94.333 -69.833 129 -122.5
s60.667 -115.667 78 -189s26 -154 26 -242l-4 -14c-1.33301 -4 -2.33301 -7.83301 -3 -11.5s-1 -6.5 -1 -8.5h-550zM335.994 331c0 -45.333 9.16602 -81.9971 27.499 -109.997s47.166 -42 86.499 -42c16 0 30.833 6.16699 44.5 18.5s25.5 28.166 35.5 47.499
s17.667 41.166 23 65.499s8 48.166 8 71.499v186c-32 0 -61.667 -4 -89 -12s-51.166 -21.333 -71.499 -40s-36.166 -43.167 -47.499 -73.5s-17 -67.5 -17 -111.5zM1123.99 702.003c0 38 -2.50098 73.3311 -7.50098 105.998s-12.833 60.834 -23.5 84.501
s-24.5 42.334 -41.5 56.001s-37.833 20.5 -62.5 20.5c-17.333 0 -34.166 -6.5 -50.499 -19.5s-31 -30.833 -44 -53.5s-23.667 -49.667 -32 -81s-12.833 -65.333 -13.5 -102v-11h275z" />
    <glyph glyph-name="ccedilla" unicode="&#xe7;" horiz-adv-x="915" 
d="M848 405c-8 -63.333 -19.501 -121.499 -34.501 -174.499s-36.333 -98.5 -64 -136.5s-63.167 -67.667 -106.5 -89s-97.333 -32 -162 -32c-46 0 -88 7.5 -126 22.5s-72.333 36 -103 63s-57.334 59.167 -80.001 96.5s-41.667 78 -57 122s-26.833 90.5 -34.5 139.5
s-11.5 98.833 -11.5 149.5c0 74 8.16699 146.833 24.5 218.5s41.5 135.834 75.5 192.501s77.333 102.5 130 137.5s115.334 52.5 188.001 52.5c52.667 0 101.167 -10 145.5 -30s82.666 -48.333 114.999 -85s57.833 -80.334 76.5 -131.001s29 -106.334 31 -167.001l-273 -12
l-7 58.5c-2.66699 22.333 -7.33398 43.833 -14.001 64.5s-16.167 38.167 -28.5 52.5s-28.5 21.5 -48.5 21.5c-21.333 0 -39.166 -6.66699 -53.499 -20s-26.166 -30.833 -35.499 -52.5s-16.5 -46 -21.5 -73s-8.66699 -54 -11 -81s-3.66602 -52.5 -3.99902 -76.5
s-0.5 -44 -0.5 -60s0.166992 -36 0.5 -60s1.83301 -49.333 4.5 -76s6.66699 -53.334 12 -80.001s13 -50.667 23 -72s22.667 -38.666 38 -51.999s34.333 -20 57 -20c14 0 26.333 3.16699 37 9.5s20 14.5 28 24.5s14.833 21.5 20.5 34.5s10.5 26.167 14.5 39.5
c8.66699 32 13.667 68 15 108zM393.999 48.001l152.001 -0.00195312l-30 -124c40.667 -11.333 74.667 -25.666 102 -42.999s49.666 -35.333 66.999 -54s30.666 -37.5 39.999 -56.5s16 -36.333 20 -52s6.16699 -28.667 6.5 -39s0.5 -16.5 0.5 -18.5
c0 -40 -6 -73.667 -18 -101s-28 -49.666 -48 -66.999s-43 -29.833 -69 -37.5s-53 -11.5 -81 -11.5c-43.333 0 -85.5 5.83301 -126.5 17.5s-75.5 27.167 -103.5 46.5v165c29.333 -13.333 55.833 -22.666 79.5 -27.999s45.167 -8 64.5 -8c34.667 0 59.334 7.33301 74.001 22
s22 32 22 52c0 13.333 -3.66699 27 -11 41s-18.833 26.667 -34.5 38s-35.5 20.666 -59.5 27.999s-53 11 -87 11z" />
    <glyph glyph-name="egrave" unicode="&#xe8;" horiz-adv-x="965" 
d="M357 536c0 -36 2.33105 -74.665 6.99805 -115.998s12.5 -79.333 23.5 -114s25.5 -63.5 43.5 -86.5s40 -34.5 66 -34.5c22.667 0 43.334 9 62.001 27s35 38.333 49 61s25.167 44 33.5 64s13.5 32 15.5 36l218 -83c-13.333 -46.667 -31 -89.334 -53 -128.001
s-48.667 -72 -80 -100s-67.666 -49.833 -108.999 -65.5s-88.333 -23.5 -141 -23.5c-70 0 -131.5 14.667 -184.5 44s-97 70.333 -132 123s-61.333 115.667 -79 189s-26.5 153.666 -26.5 240.999c0 88 9 168.667 27 242s45 136.333 81 189s81 93.5 135 122.5
s117 43.5 189 43.5c68.667 0 128.667 -14.5 180 -43.5s94.333 -69.833 129 -122.5s60.667 -115.667 78 -189s26 -154 26 -242l-4 -14c-1.33301 -4 -2.33301 -7.83301 -3 -11.5s-1 -6.5 -1 -8.5h-550zM631.998 702.002c0 38 -2.5 73.333 -7.5 106
s-12.833 60.834 -23.5 84.501s-24.5 42.334 -41.5 56.001s-37.833 20.5 -62.5 20.5c-17.333 0 -34.5 -6.83301 -51.5 -20.5s-32 -32.334 -45 -56.001s-23.5 -51.834 -31.5 -84.501s-12 -68 -12 -106h275zM567.998 1241l-410 346l227 202l297 -447z" />
    <glyph glyph-name="eacute" unicode="&#xe9;" horiz-adv-x="965" 
d="M357 536c0 -36 2.33105 -74.665 6.99805 -115.998s12.5 -79.333 23.5 -114s25.5 -63.5 43.5 -86.5s40 -34.5 66 -34.5c22.667 0 43.334 9 62.001 27s35 38.333 49 61s25.167 44 33.5 64s13.5 32 15.5 36l218 -83c-13.333 -46.667 -31 -89.334 -53 -128.001
s-48.667 -72 -80 -100s-67.666 -49.833 -108.999 -65.5s-88.333 -23.5 -141 -23.5c-70 0 -131.5 14.667 -184.5 44s-97 70.333 -132 123s-61.333 115.667 -79 189s-26.5 153.666 -26.5 240.999c0 88 9 168.667 27 242s45 136.333 81 189s81 93.5 135 122.5
s117 43.5 189 43.5c68.667 0 128.667 -14.5 180 -43.5s94.333 -69.833 129 -122.5s60.667 -115.667 78 -189s26 -154 26 -242l-4 -14c-1.33301 -4 -2.33301 -7.83301 -3 -11.5s-1 -6.5 -1 -8.5h-550zM631.998 702.002c0 38 -2.5 73.333 -7.5 106
s-12.833 60.834 -23.5 84.501s-24.5 42.334 -41.5 56.001s-37.833 20.5 -62.5 20.5c-17.333 0 -34.5 -6.83301 -51.5 -20.5s-32 -32.334 -45 -56.001s-23.5 -51.834 -31.5 -84.501s-12 -68 -12 -106h275zM317.998 1346l297 447l227 -202l-411 -346z" />
    <glyph glyph-name="ecircumflex" unicode="&#xea;" horiz-adv-x="965" 
d="M357 536c0 -36 2.33105 -74.665 6.99805 -115.998s12.5 -79.333 23.5 -114s25.5 -63.5 43.5 -86.5s40 -34.5 66 -34.5c22.667 0 43.334 9 62.001 27s35 38.333 49 61s25.167 44 33.5 64s13.5 32 15.5 36l218 -83c-13.333 -46.667 -31 -89.334 -53 -128.001
s-48.667 -72 -80 -100s-67.666 -49.833 -108.999 -65.5s-88.333 -23.5 -141 -23.5c-70 0 -131.5 14.667 -184.5 44s-97 70.333 -132 123s-61.333 115.667 -79 189s-26.5 153.666 -26.5 240.999c0 88 9 168.667 27 242s45 136.333 81 189s81 93.5 135 122.5
s117 43.5 189 43.5c68.667 0 128.667 -14.5 180 -43.5s94.333 -69.833 129 -122.5s60.667 -115.667 78 -189s26 -154 26 -242l-4 -14c-1.33301 -4 -2.33301 -7.83301 -3 -11.5s-1 -6.5 -1 -8.5h-550zM631.998 702.002c0 38 -2.5 73.333 -7.5 106
s-12.833 60.834 -23.5 84.501s-24.5 42.334 -41.5 56.001s-37.833 20.5 -62.5 20.5c-17.333 0 -34.5 -6.83301 -51.5 -20.5s-32 -32.334 -45 -56.001s-23.5 -51.834 -31.5 -84.501s-12 -68 -12 -106h275zM143.998 1248l240 480h202l230 -480h-250l-96 290l-116 -290h-210z
" />
    <glyph glyph-name="edieresis" unicode="&#xeb;" horiz-adv-x="965" 
d="M357 536c0 -36 2.33105 -74.665 6.99805 -115.998s12.5 -79.333 23.5 -114s25.5 -63.5 43.5 -86.5s40 -34.5 66 -34.5c22.667 0 43.334 9 62.001 27s35 38.333 49 61s25.167 44 33.5 64s13.5 32 15.5 36l218 -83c-13.333 -46.667 -31 -89.334 -53 -128.001
s-48.667 -72 -80 -100s-67.666 -49.833 -108.999 -65.5s-88.333 -23.5 -141 -23.5c-70 0 -131.5 14.667 -184.5 44s-97 70.333 -132 123s-61.333 115.667 -79 189s-26.5 153.666 -26.5 240.999c0 88 9 168.667 27 242s45 136.333 81 189s81 93.5 135 122.5
s117 43.5 189 43.5c68.667 0 128.667 -14.5 180 -43.5s94.333 -69.833 129 -122.5s60.667 -115.667 78 -189s26 -154 26 -242l-4 -14c-1.33301 -4 -2.33301 -7.83301 -3 -11.5s-1 -6.5 -1 -8.5h-550zM631.998 702.002c0 38 -2.5 73.333 -7.5 106
s-12.833 60.834 -23.5 84.501s-24.5 42.334 -41.5 56.001s-37.833 20.5 -62.5 20.5c-17.333 0 -34.5 -6.83301 -51.5 -20.5s-32 -32.334 -45 -56.001s-23.5 -51.834 -31.5 -84.501s-12 -68 -12 -106h275zM386.998 1536v-288h-288v288h288zM866.998 1536v-288h-288v288h288z
" />
    <glyph glyph-name="igrave" unicode="&#xec;" horiz-adv-x="536" 
d="M124 1128l288 24v-1140l-288 -24v1140zM355 1241l-410 346l227 202l297 -447z" />
    <glyph glyph-name="iacute" unicode="&#xed;" horiz-adv-x="536" 
d="M124 1128l288 24v-1140l-288 -24v1140zM106 1346l297 447l227 -202l-411 -346z" />
    <glyph glyph-name="icircumflex" unicode="&#xee;" horiz-adv-x="536" 
d="M124 1128l288 24v-1140l-288 -24v1140zM-68 1248l240 480h202l230 -480h-250l-96 290l-116 -290h-210z" />
    <glyph glyph-name="idieresis" unicode="&#xef;" horiz-adv-x="535" 
d="M124 1128l288 24v-1140l-288 -24v1140zM172 1536v-288h-288v288h288zM652 1536v-288h-288v288h288z" />
    <glyph glyph-name="eth" unicode="&#xf0;" horiz-adv-x="1006" 
d="M329 1202l212.005 65.002c-15.333 22 -33.666 40 -54.999 54c-24.667 16.667 -54.334 25 -89.001 25c-26.667 0 -54.5 -4.83301 -83.5 -14.5s-57 -21.667 -84 -36s-51.833 -29.5 -74.5 -45.5s-41 -30.333 -55 -43l-108 186c44 36.667 84.167 66.5 120.5 89.5
s71.833 40.833 106.5 53.5s70.167 21.167 106.5 25.5s77.166 6.5 122.499 6.5c56 0 106.667 -11.833 152 -35.5s85.333 -55.834 120 -96.501c24 -28 45.667 -59.333 65 -94l158 49l64 -181l-148 -46c4 -12 7.66699 -24 11 -36c16 -58.667 27.667 -118.5 35 -179.5
s11 -119.167 11 -174.5c0 -62.667 -2.33301 -126.167 -7 -190.5s-13 -126.333 -25 -186s-28.667 -115.667 -50 -168s-48.333 -97.833 -81 -136.5s-72.167 -69.167 -118.5 -91.5s-100.833 -33.5 -163.5 -33.5c-63.333 0 -121.333 13.667 -174 41s-97.834 63.5 -135.501 108.5
s-66.834 96.667 -87.501 155s-31 118.166 -31 179.499c0 62.667 8 123 24 181s38.833 109.5 68.5 154.5s65.667 81 108 108s90.166 40.5 143.499 40.5c41.333 0 83.166 -7.5 125.499 -22.5s79.166 -34.167 110.499 -57.5c-0.666992 28 -1.66699 59.5 -3 94.5
s-4.66602 70.5 -9.99902 106.5c-1.33301 10 -3 19.667 -5 29l-212 -65zM623.005 608.002c0 3.33301 -0.167969 7.16504 -0.500977 11.498s-0.5 8.83301 -0.5 13.5c-0.666992 5.33301 -1 10.666 -1 15.999c-12.667 7.33301 -26 14.333 -40 21c-12 5.33301 -26 10.333 -42 15
s-33 7 -51 7c-29.333 0 -54 -7.16699 -74 -21.5s-36 -33.166 -48 -56.499s-20.667 -49.666 -26 -78.999s-8 -58.666 -8 -87.999c0 -22 2.16699 -45.667 6.5 -71s12.166 -48.833 23.499 -70.5s26.833 -39.667 46.5 -54s44.834 -21.5 75.501 -21.5
c24.667 0 45.334 6.5 62.001 19.5s30.167 29.833 40.5 50.5s18 44.5 23 71.5s8.5 54.5 10.5 82.5s3 55.333 3 82v72z" />
    <glyph glyph-name="ntilde" unicode="&#xf1;" 
d="M700 769c0 56.667 -9.66797 96.333 -29.001 119s-44.666 34 -75.999 34c-25.333 0 -53.833 -8.33301 -85.5 -25s-64.167 -35 -97.5 -55v-830l-288 -24v1140l288 24v-147c57.333 50 114.333 89.5 171 118.5s109.667 43.5 159 43.5c36 0 69 -6.83301 99 -20.5
s55.833 -33 77.5 -58s38.667 -55.5 51 -91.5s18.5 -76.333 18.5 -121v-864l-288 -24v781zM227.999 1415c20 22.667 40.998 43.001 62.998 61.001c18.667 15.333 39.334 29.333 62.001 42s45.334 19 68.001 19c26.667 0 50.667 -4.16699 72 -12.5s41.833 -17.5 61.5 -27.5
s38.834 -19.167 57.501 -27.5s38.667 -12.5 60 -12.5c25.333 0 47.5 4.16699 66.5 12.5s34.5 17.5 46.5 27.5c14 12 26 25.333 36 40l44 -162c0 -0.666992 -4.33301 -8.66699 -13 -24s-21.167 -32 -37.5 -50s-36.333 -34.333 -60 -49s-50.5 -22 -80.5 -22
c-24 0 -45.833 5.33301 -65.5 16s-39.5 22.167 -59.5 34.5s-41 23.833 -63 34.5s-47.333 16 -76 16c-20.667 0 -41 -5.16699 -61 -15.5s-37.667 -21.833 -53 -34.5c-18.667 -14.667 -36.334 -31.334 -53.001 -50.001z" />
    <glyph glyph-name="ograve" unicode="&#xf2;" horiz-adv-x="1003" 
d="M502 -27c-72 0 -135 14.833 -189 44.5s-99 71 -135 124s-63 116.5 -81 190.5s-27 155.667 -27 245c0 86 9 165.167 27 237.5s45 134.666 81 186.999s81 93 135 122s117 43.5 189 43.5c70 0 132 -14.5 186 -43.5s99.167 -69.667 135.5 -122s63.833 -114.666 82.5 -186.999
s28 -151.5 28 -237.5c0 -89.333 -9.33301 -171 -28 -245s-46.167 -137.5 -82.5 -190.5s-81.5 -94.333 -135.5 -124s-116 -44.5 -186 -44.5zM500 187c23.333 0 43.333 6.33301 60 19s30.334 29.5 41.001 50.5s19 45 25 72s10.333 55 13 84s4.33398 57.667 5.00098 86
s1 54.5 1 78.5c0 23.333 -0.333008 49 -1 77s-2.33398 56.333 -5.00098 85s-7 56.5 -13 83.5s-14.333 51 -25 72s-24.167 37.833 -40.5 50.5s-36.166 19 -59.499 19c-24 0 -44.167 -6.33301 -60.5 -19s-29.833 -29.5 -40.5 -50.5s-18.834 -45 -24.501 -72
s-9.83398 -54.833 -12.501 -83.5s-4.16699 -57 -4.5 -85s-0.5 -53.667 -0.5 -77c0 -24 0.166992 -50.167 0.5 -78.5s1.83301 -57 4.5 -86s6.83398 -57 12.501 -84s13.667 -51 24 -72s23.666 -37.833 39.999 -50.5s36.5 -19 60.5 -19zM589 1241l-410 346l227 202l297 -447z
" />
    <glyph glyph-name="oacute" unicode="&#xf3;" horiz-adv-x="1003" 
d="M502 -27c-72 0 -135 14.833 -189 44.5s-99 71 -135 124s-63 116.5 -81 190.5s-27 155.667 -27 245c0 86 9 165.167 27 237.5s45 134.666 81 186.999s81 93 135 122s117 43.5 189 43.5c70 0 132 -14.5 186 -43.5s99.167 -69.667 135.5 -122s63.833 -114.666 82.5 -186.999
s28 -151.5 28 -237.5c0 -89.333 -9.33301 -171 -28 -245s-46.167 -137.5 -82.5 -190.5s-81.5 -94.333 -135.5 -124s-116 -44.5 -186 -44.5zM500 187c23.333 0 43.333 6.33301 60 19s30.334 29.5 41.001 50.5s19 45 25 72s10.333 55 13 84s4.33398 57.667 5.00098 86
s1 54.5 1 78.5c0 23.333 -0.333008 49 -1 77s-2.33398 56.333 -5.00098 85s-7 56.5 -13 83.5s-14.333 51 -25 72s-24.167 37.833 -40.5 50.5s-36.166 19 -59.499 19c-24 0 -44.167 -6.33301 -60.5 -19s-29.833 -29.5 -40.5 -50.5s-18.834 -45 -24.501 -72
s-9.83398 -54.833 -12.501 -83.5s-4.16699 -57 -4.5 -85s-0.5 -53.667 -0.5 -77c0 -24 0.166992 -50.167 0.5 -78.5s1.83301 -57 4.5 -86s6.83398 -57 12.501 -84s13.667 -51 24 -72s23.666 -37.833 39.999 -50.5s36.5 -19 60.5 -19zM339 1346l297 447l227 -202l-411 -346z
" />
    <glyph glyph-name="ocircumflex" unicode="&#xf4;" horiz-adv-x="1003" 
d="M502 -27c-72 0 -135 14.833 -189 44.5s-99 71 -135 124s-63 116.5 -81 190.5s-27 155.667 -27 245c0 86 9 165.167 27 237.5s45 134.666 81 186.999s81 93 135 122s117 43.5 189 43.5c70 0 132 -14.5 186 -43.5s99.167 -69.667 135.5 -122s63.833 -114.666 82.5 -186.999
s28 -151.5 28 -237.5c0 -89.333 -9.33301 -171 -28 -245s-46.167 -137.5 -82.5 -190.5s-81.5 -94.333 -135.5 -124s-116 -44.5 -186 -44.5zM500 187c23.333 0 43.333 6.33301 60 19s30.334 29.5 41.001 50.5s19 45 25 72s10.333 55 13 84s4.33398 57.667 5.00098 86
s1 54.5 1 78.5c0 23.333 -0.333008 49 -1 77s-2.33398 56.333 -5.00098 85s-7 56.5 -13 83.5s-14.333 51 -25 72s-24.167 37.833 -40.5 50.5s-36.166 19 -59.499 19c-24 0 -44.167 -6.33301 -60.5 -19s-29.833 -29.5 -40.5 -50.5s-18.834 -45 -24.501 -72
s-9.83398 -54.833 -12.501 -83.5s-4.16699 -57 -4.5 -85s-0.5 -53.667 -0.5 -77c0 -24 0.166992 -50.167 0.5 -78.5s1.83301 -57 4.5 -86s6.83398 -57 12.501 -84s13.667 -51 24 -72s23.666 -37.833 39.999 -50.5s36.5 -19 60.5 -19zM165 1248l240 480h202l230 -480h-250
l-96 290l-116 -290h-210z" />
    <glyph glyph-name="otilde" unicode="&#xf5;" horiz-adv-x="1003" 
d="M502 -27c-72 0 -135 14.833 -189 44.5s-99 71 -135 124s-63 116.5 -81 190.5s-27 155.667 -27 245c0 86 9 165.167 27 237.5s45 134.666 81 186.999s81 93 135 122s117 43.5 189 43.5c70 0 132 -14.5 186 -43.5s99.167 -69.667 135.5 -122s63.833 -114.666 82.5 -186.999
s28 -151.5 28 -237.5c0 -89.333 -9.33301 -171 -28 -245s-46.167 -137.5 -82.5 -190.5s-81.5 -94.333 -135.5 -124s-116 -44.5 -186 -44.5zM500 187c23.333 0 43.333 6.33301 60 19s30.334 29.5 41.001 50.5s19 45 25 72s10.333 55 13 84s4.33398 57.667 5.00098 86
s1 54.5 1 78.5c0 23.333 -0.333008 49 -1 77s-2.33398 56.333 -5.00098 85s-7 56.5 -13 83.5s-14.333 51 -25 72s-24.167 37.833 -40.5 50.5s-36.166 19 -59.499 19c-24 0 -44.167 -6.33301 -60.5 -19s-29.833 -29.5 -40.5 -50.5s-18.834 -45 -24.501 -72
s-9.83398 -54.833 -12.501 -83.5s-4.16699 -57 -4.5 -85s-0.5 -53.667 -0.5 -77c0 -24 0.166992 -50.167 0.5 -78.5s1.83301 -57 4.5 -86s6.83398 -57 12.501 -84s13.667 -51 24 -72s23.666 -37.833 39.999 -50.5s36.5 -19 60.5 -19zM182 1415
c20 22.667 40.998 43.001 62.998 61.001c18.667 15.333 39.334 29.333 62.001 42s45.334 19 68.001 19c26.667 0 50.667 -4.16699 72 -12.5s41.833 -17.5 61.5 -27.5s38.834 -19.167 57.501 -27.5s38.667 -12.5 60 -12.5c25.333 0 47.5 4.16699 66.5 12.5
s34.5 17.5 46.5 27.5c14 12 26 25.333 36 40l44 -162c0 -0.666992 -4.33301 -8.66699 -13 -24s-21.167 -32 -37.5 -50s-36.333 -34.333 -60 -49s-50.5 -22 -80.5 -22c-24 0 -45.833 5.33301 -65.5 16s-39.5 22.167 -59.5 34.5s-41 23.833 -63 34.5s-47.333 16 -76 16
c-20.667 0 -41 -5.16699 -61 -15.5s-37.667 -21.833 -53 -34.5c-18.667 -14.667 -36.334 -31.334 -53.001 -50.001z" />
    <glyph glyph-name="odieresis" unicode="&#xf6;" horiz-adv-x="1003" 
d="M502 -27c-72 0 -135 14.833 -189 44.5s-99 71 -135 124s-63 116.5 -81 190.5s-27 155.667 -27 245c0 86 9 165.167 27 237.5s45 134.666 81 186.999s81 93 135 122s117 43.5 189 43.5c70 0 132 -14.5 186 -43.5s99.167 -69.667 135.5 -122s63.833 -114.666 82.5 -186.999
s28 -151.5 28 -237.5c0 -89.333 -9.33301 -171 -28 -245s-46.167 -137.5 -82.5 -190.5s-81.5 -94.333 -135.5 -124s-116 -44.5 -186 -44.5zM500 187c23.333 0 43.333 6.33301 60 19s30.334 29.5 41.001 50.5s19 45 25 72s10.333 55 13 84s4.33398 57.667 5.00098 86
s1 54.5 1 78.5c0 23.333 -0.333008 49 -1 77s-2.33398 56.333 -5.00098 85s-7 56.5 -13 83.5s-14.333 51 -25 72s-24.167 37.833 -40.5 50.5s-36.166 19 -59.499 19c-24 0 -44.167 -6.33301 -60.5 -19s-29.833 -29.5 -40.5 -50.5s-18.834 -45 -24.501 -72
s-9.83398 -54.833 -12.501 -83.5s-4.16699 -57 -4.5 -85s-0.5 -53.667 -0.5 -77c0 -24 0.166992 -50.167 0.5 -78.5s1.83301 -57 4.5 -86s6.83398 -57 12.501 -84s13.667 -51 24 -72s23.666 -37.833 39.999 -50.5s36.5 -19 60.5 -19zM408 1536v-288h-288v288h288zM888 1536
v-288h-288v288h288z" />
    <glyph glyph-name="divide" unicode="&#xf7;" horiz-adv-x="797" 
d="M544 288v-288l-288 -12v300h288zM544 960v-288h-288v288h288zM64 576h670v-192h-670v192z" />
    <glyph glyph-name="oslash" unicode="&#xf8;" horiz-adv-x="1006" 
d="M502 -27c-58.667 0 -111.001 9.66797 -157.001 29.001s-86.667 47 -122 83l-91 -116l-77 68l105 133c-30 52 -52.5 112.333 -67.5 181s-22.5 144 -22.5 226c0 86 9 165.167 27 237.5s45 134.666 81 186.999s81 93 135 122s117 43.5 189 43.5
c69.333 0 130.333 -14 183 -42s97.334 -67.333 134.001 -118l87 110l77 -68l-110 -139c40.667 -93.333 61 -204.333 61 -333c0 -89.333 -9.33301 -171 -28 -245s-46.167 -137.5 -82.5 -190.5s-81.5 -94.333 -135.5 -124s-116 -44.5 -186 -44.5zM357.999 577.001
c0 -22 0.166992 -46 0.5 -72s1.5 -52.333 3.5 -79l273 347c-3.33301 25.333 -8.33301 49.5 -15 72.5s-15.167 43.333 -25.5 61s-23.166 31.667 -38.499 42s-33.666 15.5 -54.999 15.5c-24 0 -44.167 -6.33301 -60.5 -19s-29.833 -29.5 -40.5 -50.5s-18.834 -45 -24.501 -72
s-9.83398 -54.833 -12.501 -83.5s-4.16699 -57 -4.5 -85s-0.5 -53.667 -0.5 -77zM499.999 187.001c23.333 0 43.3311 6.33301 59.998 19s30.334 29.5 41.001 50.5s19 45 25 72s10.333 55 13 84s4.33398 57.667 5.00098 86s1 54.5 1 78.5v43l-260 -330
c10 -30 24.167 -54.667 42.5 -74s42.5 -29 72.5 -29z" />
    <glyph glyph-name="ugrave" unicode="&#xf9;" 
d="M404 381c0 -56.667 8.66699 -96.334 26 -119.001s40.333 -34 69 -34c13.333 0 27.5 2.5 42.5 7.5s30.833 11.833 47.5 20.5s33.667 18.334 51 29.001l52 33v810l288 24v-1140l-288 -24v147c-56 -50 -111.333 -89.5 -166 -118.5s-106 -43.5 -154 -43.5
c-37.333 0 -71.666 6.83301 -102.999 20.5s-58.333 33 -81 58s-40.334 55.5 -53.001 91.5s-19 76.333 -19 121v864l288 24v-771zM639 1241l-410 346l227 202l297 -447z" />
    <glyph glyph-name="uacute" unicode="&#xfa;" 
d="M404 381c0 -56.667 8.66699 -96.334 26 -119.001s40.333 -34 69 -34c13.333 0 27.5 2.5 42.5 7.5s30.833 11.833 47.5 20.5s33.667 18.334 51 29.001l52 33v810l288 24v-1140l-288 -24v147c-56 -50 -111.333 -89.5 -166 -118.5s-106 -43.5 -154 -43.5
c-37.333 0 -71.666 6.83301 -102.999 20.5s-58.333 33 -81 58s-40.334 55.5 -53.001 91.5s-19 76.333 -19 121v864l288 24v-771zM389 1346l297 447l227 -202l-411 -346z" />
    <glyph glyph-name="ucircumflex" unicode="&#xfb;" 
d="M404 381c0 -56.667 8.66699 -96.334 26 -119.001s40.333 -34 69 -34c13.333 0 27.5 2.5 42.5 7.5s30.833 11.833 47.5 20.5s33.667 18.334 51 29.001l52 33v810l288 24v-1140l-288 -24v147c-56 -50 -111.333 -89.5 -166 -118.5s-106 -43.5 -154 -43.5
c-37.333 0 -71.666 6.83301 -102.999 20.5s-58.333 33 -81 58s-40.334 55.5 -53.001 91.5s-19 76.333 -19 121v864l288 24v-771zM215 1248l240 480h202l230 -480h-250l-96 290l-116 -290h-210z" />
    <glyph glyph-name="udieresis" unicode="&#xfc;" 
d="M404 381c0 -56.667 8.66699 -96.334 26 -119.001s40.333 -34 69 -34c13.333 0 27.5 2.5 42.5 7.5s30.833 11.833 47.5 20.5s33.667 18.334 51 29.001l52 33v810l288 24v-1140l-288 -24v147c-56 -50 -111.333 -89.5 -166 -118.5s-106 -43.5 -154 -43.5
c-37.333 0 -71.666 6.83301 -102.999 20.5s-58.333 33 -81 58s-40.334 55.5 -53.001 91.5s-19 76.333 -19 121v864l288 24v-771zM455 1536v-288h-288v288h288zM935 1536v-288h-288v288h288z" />
    <glyph glyph-name="yacute" unicode="&#xfd;" horiz-adv-x="901" 
d="M30 -113l50.001 -2c13.333 -0.666992 26.666 -1.16699 39.999 -1.5s23 -0.5 29 -0.5c33.333 0 61.5 4 84.5 12s41.833 19.333 56.5 34s25.167 32.334 31.5 53.001s9.5 44 9.5 70v56l-329 1030l312 14l162 -721l153 715l260 2l-295 -1127
c-24 -84 -53.667 -151.5 -89 -202.5s-73 -90 -113 -117s-80.833 -44.833 -122.5 -53.5s-81.167 -13 -118.5 -13c-14 0 -28.333 0.666992 -43 2s-27.667 2.66602 -39 3.99902l-39 6v240zM226.001 1346l297 447l227 -202l-411 -346z" />
    <glyph glyph-name="thorn" unicode="&#xfe;" horiz-adv-x="1067" 
d="M124 -358l0.000976562 1858l288 36v-531c22 24 45.333 46 70 66s49.667 37 75 51s51 25 77 33s51.333 12 76 12c38 0 74 -10.333 108 -31s63.667 -54.167 89 -100.5s45.5 -107.166 60.5 -182.499s22.5 -167.666 22.5 -276.999c0 -104 -7.33301 -193.833 -22 -269.5
s-36.167 -138.334 -64.5 -188.001s-63 -86.334 -104 -110.001s-87.833 -35.5 -140.5 -35.5c-26.667 0 -50.5 2.33301 -71.5 7s-39.833 11 -56.5 19s-31.167 17.167 -43.5 27.5s-22.833 20.833 -31.5 31.5c-20.667 25.333 -35.334 54 -44.001 86l1 -502h-289zM412.001 480
c0 -60 3.99902 -109.499 11.999 -148.499s18.667 -69.667 32 -92s28.333 -38 45 -47s33.667 -13.5 51 -13.5c35.333 0 63 10.667 83 32s35 50.166 45 86.499s16.167 78.5 18.5 126.5s3.5 98.667 3.5 152c0 48.667 -0.833008 94 -2.5 136s-5.66699 78.5 -12 109.5
s-16.166 55.5 -29.499 73.5s-32 27 -56 27c-17.333 0 -37 -4.16699 -59 -12.5s-42.667 -17.5 -62 -27.5c-22.667 -12 -45.667 -25 -69 -39v-363z" />
    <glyph glyph-name="ydieresis" unicode="&#xff;" horiz-adv-x="901" 
d="M30 -113l50.001 -2c13.333 -0.666992 26.666 -1.16699 39.999 -1.5s23 -0.5 29 -0.5c33.333 0 61.5 4 84.5 12s41.833 19.333 56.5 34s25.167 32.334 31.5 53.001s9.5 44 9.5 70v56l-329 1030l312 14l162 -721l153 715l260 2l-295 -1127
c-24 -84 -53.667 -151.5 -89 -202.5s-73 -90 -113 -117s-80.833 -44.833 -122.5 -53.5s-81.167 -13 -118.5 -13c-14 0 -28.333 0.666992 -43 2s-27.667 2.66602 -39 3.99902l-39 6v240zM369.001 1536v-288h-288v288h288zM849.001 1536v-288h-288v288h288z" />
    <glyph glyph-name="Amacron" unicode="&#x100;" horiz-adv-x="1131" 
d="M359 329l-67 -329h-267l324 1518l427 18l332 -1524l-327 -12l-57 329h-365zM670 575l-141 735l-116 -735h257zM279 1824h576v-192h-576v192z" />
    <glyph glyph-name="amacron" unicode="&#x101;" horiz-adv-x="968" 
d="M56 327c0 54.667 7.82812 102.5 23.4951 143.5s36.667 76.333 63 106s56.833 54.5 91.5 74.5s70.834 36.167 108.501 48.5s75.5 21.666 113.5 27.999s73.667 10.5 107 12.5c0 26.667 -0.333008 52.834 -1 78.501s-3.66699 48.667 -9 69s-13.666 36.833 -24.999 49.5
s-27.333 19 -48 19c-17.333 0 -32.166 -3.83301 -44.499 -11.5s-22.666 -17.667 -30.999 -30s-14.666 -26.333 -18.999 -42s-7.5 -31.167 -9.5 -46.5l-280 49c7.33301 57.333 23.666 104.833 48.999 142.5s55.833 67.5 91.5 89.5s74.667 37.5 117 46.5s84.5 13.5 126.5 13.5
c65.333 0 121.333 -9.16699 168 -27.5s85 -43.5 115 -75.5s52.167 -69.5 66.5 -112.5s21.5 -89.167 21.5 -138.5v-596c0 -22.667 1.5 -46 4.5 -70s6.5 -46 10.5 -66c4.66699 -23.333 10 -46.333 16 -69l-280 -24l-32 141c-11.333 -20.667 -26.166 -40.334 -44.499 -59.001
s-38.833 -35.167 -61.5 -49.5s-46.667 -25.833 -72 -34.5s-50.333 -13 -75 -13c-39.333 0 -75 8.83301 -107 26.5s-59.5 42.334 -82.5 74.001s-40.667 69 -53 112s-18.5 90.167 -18.5 141.5zM337.995 331c0 -45.333 9.16602 -82 27.499 -110s47.166 -42 86.499 -42
c13.333 0 26.5 3.5 39.5 10.5s24.833 14.833 35.5 23.5c12 10 24 21.333 36 34v321c-32 0 -61.667 -4 -89 -12s-51.166 -21.333 -71.499 -40s-36.166 -43.167 -47.499 -73.5s-17 -67.5 -17 -111.5zM192.994 1440h576v-192h-576v192z" />
    <glyph glyph-name="Abreve" unicode="&#x102;" horiz-adv-x="1131" 
d="M359 329l-67 -329h-267l324 1518l427 18l332 -1524l-327 -12l-57 329h-365zM670 575l-141 735l-116 -735h257zM375 2112c0 -24 1 -50 3 -78s9 -54 21 -78s31 -44 57 -60s63 -24 111 -24s85 8 111 24s45 36 57 60s19 50 21 78s3 54 3 78h240
c0 -30.667 -2.83301 -63.667 -8.5 -99s-15.167 -70.833 -28.5 -106.5s-31 -70 -53 -103s-49 -62.167 -81 -87.5s-69.5 -45.666 -112.5 -60.999s-92.5 -23 -148.5 -23s-105.5 7.66699 -148.5 23s-80.5 35.666 -112.5 60.999s-59 54.5 -81 87.5s-39.667 67.333 -53 103
s-22.833 71.167 -28.5 106.5s-8.5 68.333 -8.5 99h240z" />
    <glyph glyph-name="abreve" unicode="&#x103;" horiz-adv-x="968" 
d="M56 327c0 54.667 7.82812 102.5 23.4951 143.5s36.667 76.333 63 106s56.833 54.5 91.5 74.5s70.834 36.167 108.501 48.5s75.5 21.666 113.5 27.999s73.667 10.5 107 12.5c0 26.667 -0.333008 52.834 -1 78.501s-3.66699 48.667 -9 69s-13.666 36.833 -24.999 49.5
s-27.333 19 -48 19c-17.333 0 -32.166 -3.83301 -44.499 -11.5s-22.666 -17.667 -30.999 -30s-14.666 -26.333 -18.999 -42s-7.5 -31.167 -9.5 -46.5l-280 49c7.33301 57.333 23.666 104.833 48.999 142.5s55.833 67.5 91.5 89.5s74.667 37.5 117 46.5s84.5 13.5 126.5 13.5
c65.333 0 121.333 -9.16699 168 -27.5s85 -43.5 115 -75.5s52.167 -69.5 66.5 -112.5s21.5 -89.167 21.5 -138.5v-596c0 -22.667 1.5 -46 4.5 -70s6.5 -46 10.5 -66c4.66699 -23.333 10 -46.333 16 -69l-280 -24l-32 141c-11.333 -20.667 -26.166 -40.334 -44.499 -59.001
s-38.833 -35.167 -61.5 -49.5s-46.667 -25.833 -72 -34.5s-50.333 -13 -75 -13c-39.333 0 -75 8.83301 -107 26.5s-59.5 42.334 -82.5 74.001s-40.667 69 -53 112s-18.5 90.167 -18.5 141.5zM337.995 331c0 -45.333 9.16602 -82 27.499 -110s47.166 -42 86.499 -42
c13.333 0 26.5 3.5 39.5 10.5s24.833 14.833 35.5 23.5c12 10 24 21.333 36 34v321c-32 0 -61.667 -4 -89 -12s-51.166 -21.333 -71.499 -40s-36.166 -43.167 -47.499 -73.5s-17 -67.5 -17 -111.5zM292.994 1728c0 -24 1 -50 3 -78s9 -54 21 -78s31 -44 57 -60
s63 -24 111 -24s85 8 111 24s45 36 57 60s19 50 21 78s3 54 3 78h240c0 -30.667 -2.83301 -63.667 -8.5 -99s-15.167 -70.833 -28.5 -106.5s-31 -70 -53 -103s-49 -62.167 -81 -87.5s-69.5 -45.666 -112.5 -60.999s-92.5 -23 -148.5 -23s-105.5 7.66699 -148.5 23
s-80.5 35.666 -112.5 60.999s-59 54.5 -81 87.5s-39.667 67.333 -53 103s-22.833 71.167 -28.5 106.5s-8.5 68.333 -8.5 99h240z" />
    <glyph glyph-name="Aogonek" unicode="&#x104;" horiz-adv-x="1128" 
d="M359 329l-67 -329h-267l324 1518l427 18l332 -1524l-327 -12l-57 329h-365zM670 575l-141 735l-116 -735h257zM985 -101c-3.33301 -12 -5 -21.666 -5 -28.999c0 -23.333 7.66699 -39.333 23 -48s34 -13 56 -13c13.333 0 27.333 1.16699 42 3.5s28.667 5.33301 42 9
s25.666 7.5 36.999 11.5s20.666 7.66699 27.999 11v-165c-19.333 -20.667 -47.166 -36.5 -83.499 -47.5s-74.5 -16.5 -114.5 -16.5c-29.333 0 -58.166 3.16699 -86.499 9.5s-53.5 16.333 -75.5 30s-39.833 31 -53.5 52s-20.5 46.167 -20.5 75.5c0 10.667 1.5 21.667 4.5 33
s7.16699 23.666 12.5 36.999l62 168h162z" />
    <glyph glyph-name="aogonek" unicode="&#x105;" horiz-adv-x="968" 
d="M56 327c0 54.667 7.82812 102.5 23.4951 143.5s36.667 76.333 63 106s56.833 54.5 91.5 74.5s70.834 36.167 108.501 48.5s75.5 21.666 113.5 27.999s73.667 10.5 107 12.5c0 26.667 -0.333008 52.834 -1 78.501s-3.66699 48.667 -9 69s-13.666 36.833 -24.999 49.5
s-27.333 19 -48 19c-17.333 0 -32.166 -3.83301 -44.499 -11.5s-22.666 -17.667 -30.999 -30s-14.666 -26.333 -18.999 -42s-7.5 -31.167 -9.5 -46.5l-280 49c7.33301 57.333 23.666 104.833 48.999 142.5s55.833 67.5 91.5 89.5s74.667 37.5 117 46.5s84.5 13.5 126.5 13.5
c65.333 0 121.333 -9.16699 168 -27.5s85 -43.5 115 -75.5s52.167 -69.5 66.5 -112.5s21.5 -89.167 21.5 -138.5v-596c0 -22.667 1.5 -46 4.5 -70s6.5 -46 10.5 -66c4.66699 -23.333 10 -46.333 16 -69l-280 -24l-32 141c-11.333 -20.667 -26.166 -40.334 -44.499 -59.001
s-38.833 -35.167 -61.5 -49.5s-46.667 -25.833 -72 -34.5s-50.333 -13 -75 -13c-39.333 0 -75 8.83301 -107 26.5s-59.5 42.334 -82.5 74.001s-40.667 69 -53 112s-18.5 90.167 -18.5 141.5zM337.995 331c0 -45.333 9.16602 -82 27.499 -110s47.166 -42 86.499 -42
c13.333 0 26.5 3.5 39.5 10.5s24.833 14.833 35.5 23.5c12 10 24 21.333 36 34v321c-32 0 -61.667 -4 -89 -12s-51.166 -21.333 -71.499 -40s-36.166 -43.167 -47.499 -73.5s-17 -67.5 -17 -111.5zM743.994 -103c-3.33301 -12 -5 -21.666 -5 -28.999
c0 -23.333 7.66699 -39.333 23 -48s34 -13 56 -13c13.333 0 27.333 1.16699 42 3.5s28.667 5.33301 42 9s25.666 7.5 36.999 11.5s20.666 7.66699 27.999 11v-165c-19.333 -20.667 -47.166 -36.5 -83.499 -47.5s-74.5 -16.5 -114.5 -16.5
c-29.333 0 -58.166 3.16699 -86.499 9.5s-53.5 16.333 -75.5 30s-39.833 31 -53.5 52s-20.5 46.167 -20.5 75.5c0 10.667 1.5 21.667 4.5 33s7.16699 23.666 12.5 36.999l62 168h162z" />
    <glyph glyph-name="Cacute" unicode="&#x106;" horiz-adv-x="1069" 
d="M997 523c0 -71.333 -8.83301 -140.502 -26.5 -207.502s-44.5 -126.167 -80.5 -177.5s-81.333 -92.5 -136 -123.5s-119 -46.5 -193 -46.5c-64 0 -120.5 11.5 -169.5 34.5s-91.167 54.667 -126.5 95s-64.833 87.333 -88.5 141s-42.5 111.334 -56.5 173.001
s-24 125.667 -30 192s-9 131.833 -9 196.5c0 57.333 3.66699 116.166 11 176.499s19 119 35 176s36.833 110.667 62.5 161s56.5 94.333 92.5 132s77.667 67.5 125 89.5s101 33 161 33c67.333 0 127.5 -16.167 180.5 -48.5s97.667 -74.666 134 -126.999
s64.166 -111.5 83.499 -177.5s29 -133 29 -201l-290 -15c0 5.33301 -0.333008 17.166 -1 35.499s-2.66699 39.666 -6 63.999s-8.16602 50 -14.499 77s-15.166 51.833 -26.499 74.5s-25.666 41.334 -42.999 56.001s-38.333 22 -63 22c-24 0 -44.833 -7.83301 -62.5 -23.5
s-32.834 -36.667 -45.501 -63s-23 -57.166 -31 -92.499s-14.333 -72.5 -19 -111.5s-7.83398 -78.833 -9.50098 -119.5s-2.5 -80 -2.5 -118c0 -48 0.833008 -95.667 2.5 -143s5.16699 -92.333 10.5 -135s12.5 -82.167 21.5 -118.5s21 -67.666 36 -93.999s33 -47 54 -62
s45.833 -22.5 74.5 -22.5c31.333 0 56.833 10.5 76.5 31.5s35.5 47.5 47.5 79.5s20.667 66.833 26 104.5s9.33301 73.167 12 106.5zM456 1730l297 447l227 -202l-411 -346z" />
    <glyph glyph-name="cacute" unicode="&#x107;" horiz-adv-x="913" 
d="M847 405c-8 -63.333 -19.501 -121.499 -34.501 -174.499s-36.333 -98.5 -64 -136.5s-63.167 -67.667 -106.5 -89s-97.333 -32 -162 -32c-46 0 -88 7.5 -126 22.5s-72.333 36 -103 63s-57.334 59.167 -80.001 96.5s-41.667 78 -57 122s-26.833 90.5 -34.5 139.5
s-11.5 98.833 -11.5 149.5c0 74 8.16699 146.833 24.5 218.5s41.5 135.834 75.5 192.501s77.333 102.5 130 137.5s115.334 52.5 188.001 52.5c52.667 0 101.167 -10 145.5 -30s82.666 -48.333 114.999 -85s57.833 -80.334 76.5 -131.001s29 -106.334 31 -167.001l-273 -12
l-7 58.5c-2.66699 22.333 -7.33398 43.833 -14.001 64.5s-16.167 38.167 -28.5 52.5s-28.5 21.5 -48.5 21.5c-21.333 0 -39.166 -6.66699 -53.499 -20s-26.166 -30.833 -35.499 -52.5s-16.5 -46 -21.5 -73s-8.66699 -54 -11 -81s-3.66602 -52.5 -3.99902 -76.5
s-0.5 -44 -0.5 -60s0.166992 -36 0.5 -60s1.83301 -49.333 4.5 -76s6.66699 -53.334 12 -80.001s13 -50.667 23 -72s22.667 -38.666 38 -51.999s34.333 -20 57 -20c14 0 26.333 3.16699 37 9.5s20 14.5 28 24.5s14.833 21.5 20.5 34.5s10.5 26.167 14.5 39.5
c8.66699 32 13.667 68 15 108zM292.999 1346l297 447l227 -202l-411 -346z" />
    <glyph glyph-name="Ccircumflex" unicode="&#x108;" horiz-adv-x="1069" 
d="M997 523c0 -71.333 -8.83301 -140.502 -26.5 -207.502s-44.5 -126.167 -80.5 -177.5s-81.333 -92.5 -136 -123.5s-119 -46.5 -193 -46.5c-64 0 -120.5 11.5 -169.5 34.5s-91.167 54.667 -126.5 95s-64.833 87.333 -88.5 141s-42.5 111.334 -56.5 173.001
s-24 125.667 -30 192s-9 131.833 -9 196.5c0 57.333 3.66699 116.166 11 176.499s19 119 35 176s36.833 110.667 62.5 161s56.5 94.333 92.5 132s77.667 67.5 125 89.5s101 33 161 33c67.333 0 127.5 -16.167 180.5 -48.5s97.667 -74.666 134 -126.999
s64.166 -111.5 83.499 -177.5s29 -133 29 -201l-290 -15c0 5.33301 -0.333008 17.166 -1 35.499s-2.66699 39.666 -6 63.999s-8.16602 50 -14.499 77s-15.166 51.833 -26.499 74.5s-25.666 41.334 -42.999 56.001s-38.333 22 -63 22c-24 0 -44.833 -7.83301 -62.5 -23.5
s-32.834 -36.667 -45.501 -63s-23 -57.166 -31 -92.499s-14.333 -72.5 -19 -111.5s-7.83398 -78.833 -9.50098 -119.5s-2.5 -80 -2.5 -118c0 -48 0.833008 -95.667 2.5 -143s5.16699 -92.333 10.5 -135s12.5 -82.167 21.5 -118.5s21 -67.666 36 -93.999s33 -47 54 -62
s45.833 -22.5 74.5 -22.5c31.333 0 56.833 10.5 76.5 31.5s35.5 47.5 47.5 79.5s20.667 66.833 26 104.5s9.33301 73.167 12 106.5zM226 1632l240 480h202l230 -480h-250l-96 290l-116 -290h-210z" />
    <glyph glyph-name="ccircumflex" unicode="&#x109;" horiz-adv-x="913" 
d="M847 405c-8 -63.333 -19.501 -121.499 -34.501 -174.499s-36.333 -98.5 -64 -136.5s-63.167 -67.667 -106.5 -89s-97.333 -32 -162 -32c-46 0 -88 7.5 -126 22.5s-72.333 36 -103 63s-57.334 59.167 -80.001 96.5s-41.667 78 -57 122s-26.833 90.5 -34.5 139.5
s-11.5 98.833 -11.5 149.5c0 74 8.16699 146.833 24.5 218.5s41.5 135.834 75.5 192.501s77.333 102.5 130 137.5s115.334 52.5 188.001 52.5c52.667 0 101.167 -10 145.5 -30s82.666 -48.333 114.999 -85s57.833 -80.334 76.5 -131.001s29 -106.334 31 -167.001l-273 -12
l-7 58.5c-2.66699 22.333 -7.33398 43.833 -14.001 64.5s-16.167 38.167 -28.5 52.5s-28.5 21.5 -48.5 21.5c-21.333 0 -39.166 -6.66699 -53.499 -20s-26.166 -30.833 -35.499 -52.5s-16.5 -46 -21.5 -73s-8.66699 -54 -11 -81s-3.66602 -52.5 -3.99902 -76.5
s-0.5 -44 -0.5 -60s0.166992 -36 0.5 -60s1.83301 -49.333 4.5 -76s6.66699 -53.334 12 -80.001s13 -50.667 23 -72s22.667 -38.666 38 -51.999s34.333 -20 57 -20c14 0 26.333 3.16699 37 9.5s20 14.5 28 24.5s14.833 21.5 20.5 34.5s10.5 26.167 14.5 39.5
c8.66699 32 13.667 68 15 108zM118.999 1248l240 480h202l230 -480h-250l-96 290l-116 -290h-210z" />
    <glyph glyph-name="Cdotaccent" unicode="&#x10a;" horiz-adv-x="1069" 
d="M997 523c0 -71.333 -8.83301 -140.502 -26.5 -207.502s-44.5 -126.167 -80.5 -177.5s-81.333 -92.5 -136 -123.5s-119 -46.5 -193 -46.5c-64 0 -120.5 11.5 -169.5 34.5s-91.167 54.667 -126.5 95s-64.833 87.333 -88.5 141s-42.5 111.334 -56.5 173.001
s-24 125.667 -30 192s-9 131.833 -9 196.5c0 57.333 3.66699 116.166 11 176.499s19 119 35 176s36.833 110.667 62.5 161s56.5 94.333 92.5 132s77.667 67.5 125 89.5s101 33 161 33c67.333 0 127.5 -16.167 180.5 -48.5s97.667 -74.666 134 -126.999
s64.166 -111.5 83.499 -177.5s29 -133 29 -201l-290 -15c0 5.33301 -0.333008 17.166 -1 35.499s-2.66699 39.666 -6 63.999s-8.16602 50 -14.499 77s-15.166 51.833 -26.499 74.5s-25.666 41.334 -42.999 56.001s-38.333 22 -63 22c-24 0 -44.833 -7.83301 -62.5 -23.5
s-32.834 -36.667 -45.501 -63s-23 -57.166 -31 -92.499s-14.333 -72.5 -19 -111.5s-7.83398 -78.833 -9.50098 -119.5s-2.5 -80 -2.5 -118c0 -48 0.833008 -95.667 2.5 -143s5.16699 -92.333 10.5 -135s12.5 -82.167 21.5 -118.5s21 -67.666 36 -93.999s33 -47 54 -62
s45.833 -22.5 74.5 -22.5c31.333 0 56.833 10.5 76.5 31.5s35.5 47.5 47.5 79.5s20.667 66.833 26 104.5s9.33301 73.167 12 106.5zM674 1985v-288l-288 -1v287z" />
    <glyph glyph-name="cdotaccent" unicode="&#x10b;" horiz-adv-x="913" 
d="M847 405c-8 -63.333 -19.501 -121.499 -34.501 -174.499s-36.333 -98.5 -64 -136.5s-63.167 -67.667 -106.5 -89s-97.333 -32 -162 -32c-46 0 -88 7.5 -126 22.5s-72.333 36 -103 63s-57.334 59.167 -80.001 96.5s-41.667 78 -57 122s-26.833 90.5 -34.5 139.5
s-11.5 98.833 -11.5 149.5c0 74 8.16699 146.833 24.5 218.5s41.5 135.834 75.5 192.501s77.333 102.5 130 137.5s115.334 52.5 188.001 52.5c52.667 0 101.167 -10 145.5 -30s82.666 -48.333 114.999 -85s57.833 -80.334 76.5 -131.001s29 -106.334 31 -167.001l-273 -12
l-7 58.5c-2.66699 22.333 -7.33398 43.833 -14.001 64.5s-16.167 38.167 -28.5 52.5s-28.5 21.5 -48.5 21.5c-21.333 0 -39.166 -6.66699 -53.499 -20s-26.166 -30.833 -35.499 -52.5s-16.5 -46 -21.5 -73s-8.66699 -54 -11 -81s-3.66602 -52.5 -3.99902 -76.5
s-0.5 -44 -0.5 -60s0.166992 -36 0.5 -60s1.83301 -49.333 4.5 -76s6.66699 -53.334 12 -80.001s13 -50.667 23 -72s22.667 -38.666 38 -51.999s34.333 -20 57 -20c14 0 26.333 3.16699 37 9.5s20 14.5 28 24.5s14.833 21.5 20.5 34.5s10.5 26.167 14.5 39.5
c8.66699 32 13.667 68 15 108zM598.999 1538v-288l-288 -1v287z" />
    <glyph glyph-name="Ccaron" unicode="&#x10c;" horiz-adv-x="1069" 
d="M997 523c0 -71.333 -8.83301 -140.502 -26.5 -207.502s-44.5 -126.167 -80.5 -177.5s-81.333 -92.5 -136 -123.5s-119 -46.5 -193 -46.5c-64 0 -120.5 11.5 -169.5 34.5s-91.167 54.667 -126.5 95s-64.833 87.333 -88.5 141s-42.5 111.334 -56.5 173.001
s-24 125.667 -30 192s-9 131.833 -9 196.5c0 57.333 3.66699 116.166 11 176.499s19 119 35 176s36.833 110.667 62.5 161s56.5 94.333 92.5 132s77.667 67.5 125 89.5s101 33 161 33c67.333 0 127.5 -16.167 180.5 -48.5s97.667 -74.666 134 -126.999
s64.166 -111.5 83.499 -177.5s29 -133 29 -201l-290 -15c0 5.33301 -0.333008 17.166 -1 35.499s-2.66699 39.666 -6 63.999s-8.16602 50 -14.499 77s-15.166 51.833 -26.499 74.5s-25.666 41.334 -42.999 56.001s-38.333 22 -63 22c-24 0 -44.833 -7.83301 -62.5 -23.5
s-32.834 -36.667 -45.501 -63s-23 -57.166 -31 -92.499s-14.333 -72.5 -19 -111.5s-7.83398 -78.833 -9.50098 -119.5s-2.5 -80 -2.5 -118c0 -48 0.833008 -95.667 2.5 -143s5.16699 -92.333 10.5 -135s12.5 -82.167 21.5 -118.5s21 -67.666 36 -93.999s33 -47 54 -62
s45.833 -22.5 74.5 -22.5c31.333 0 56.833 10.5 76.5 31.5s35.5 47.5 47.5 79.5s20.667 66.833 26 104.5s9.33301 73.167 12 106.5zM221 2112.07l240 -479.971h202l230 479.971h-250l-96 -289.982l-116 289.982h-210z" />
    <glyph glyph-name="ccaron" unicode="&#x10d;" horiz-adv-x="913" 
d="M847 405c-8 -63.333 -19.501 -121.499 -34.501 -174.499s-36.333 -98.5 -64 -136.5s-63.167 -67.667 -106.5 -89s-97.333 -32 -162 -32c-46 0 -88 7.5 -126 22.5s-72.333 36 -103 63s-57.334 59.167 -80.001 96.5s-41.667 78 -57 122s-26.833 90.5 -34.5 139.5
s-11.5 98.833 -11.5 149.5c0 74 8.16699 146.833 24.5 218.5s41.5 135.834 75.5 192.501s77.333 102.5 130 137.5s115.334 52.5 188.001 52.5c52.667 0 101.167 -10 145.5 -30s82.666 -48.333 114.999 -85s57.833 -80.334 76.5 -131.001s29 -106.334 31 -167.001l-273 -12
l-7 58.5c-2.66699 22.333 -7.33398 43.833 -14.001 64.5s-16.167 38.167 -28.5 52.5s-28.5 21.5 -48.5 21.5c-21.333 0 -39.166 -6.66699 -53.499 -20s-26.166 -30.833 -35.499 -52.5s-16.5 -46 -21.5 -73s-8.66699 -54 -11 -81s-3.66602 -52.5 -3.99902 -76.5
s-0.5 -44 -0.5 -60s0.166992 -36 0.5 -60s1.83301 -49.333 4.5 -76s6.66699 -53.334 12 -80.001s13 -50.667 23 -72s22.667 -38.666 38 -51.999s34.333 -20 57 -20c14 0 26.333 3.16699 37 9.5s20 14.5 28 24.5s14.833 21.5 20.5 34.5s10.5 26.167 14.5 39.5
c8.66699 32 13.667 68 15 108zM328.999 1728l116 -290l96 290h250l-230 -480h-202l-240 480h210z" />
    <glyph glyph-name="Dcaron" unicode="&#x10e;" horiz-adv-x="1132" 
d="M142 1536l314 0.00195312c202 0 353 -63.833 453 -191.5s150 -321.834 150 -582.501c0 -64.667 -4.33301 -128.5 -13 -191.5s-22.167 -122.667 -40.5 -179s-41.833 -108.5 -70.5 -156.5s-63.334 -89.333 -104.001 -124s-87.667 -61.834 -141 -81.501
s-113.666 -29.5 -180.999 -29.5h-367v1536zM441 1296l0.00292969 -1056h43c38 0 71.333 6.5 100 19.5s53.167 30.833 73.5 53.5s37 49.167 50 79.5s23.333 62.666 31 96.999s13 69.833 16 106.5s4.5 73 4.5 109v112c0 42 -2 84.833 -6 128.5s-11.333 86.5 -22 128.5
s-26.334 79.5 -47.001 112.5s-47.834 59.5 -81.501 79.5s-75.834 30 -126.501 30h-35zM148.003 1630l240 480h202l230 -480h-250l-96 290l-116 -290h-210z" />
    <glyph glyph-name="dcaron" unicode="&#x10f;" horiz-adv-x="1315" 
d="M726 -12l-69.998 155.999c-8.66699 -32 -23.334 -60.667 -44.001 -86c-8.66699 -10.667 -19.167 -21.167 -31.5 -31.5s-26.833 -19.5 -43.5 -27.5s-35.5 -14.333 -56.5 -19s-44.833 -7 -71.5 -7c-52.667 0 -99.5 11.833 -140.5 35.5s-75.667 60.334 -104 110.001
s-49.833 112.334 -64.5 188.001s-22 165.5 -22 269.5c0 106 5.83301 196.5 17.5 271.5s30.334 136.167 56.001 183.5s58.5 81.833 98.5 103.5s88.333 32.5 145 32.5c16 0 32.167 -2.33301 48.5 -7s32.166 -11 47.499 -19s30.166 -17 44.499 -27s27.5 -20.333 39.5 -31
c28.667 -24.667 55.667 -52.334 81 -83.001v500l288 36v-1524zM656.002 863.999c-14 17.333 -28.667 32.665 -44 45.998c-13.333 11.333 -28.333 21.833 -45 31.5s-33.667 14.5 -51 14.5c-35.333 0 -63 -9.83301 -83 -29.5s-35 -46.667 -45 -81
s-16.167 -74.666 -18.5 -120.999s-3.5 -95.833 -3.5 -148.5c0 -53.333 1.16699 -104 3.5 -152s8.5 -90.167 18.5 -126.5s25 -65.166 45 -86.499s47.667 -32 83 -32c17.333 0 34.333 4.5 51 13.5s31.667 24.667 45 47s24 53 32 92s12 88.5 12 148.5v384zM1372 1536
l0.000976562 -288.001c0 -36 -3.5 -67.667 -10.5 -95s-16 -51.166 -27 -71.499s-23.833 -37.5 -38.5 -51.5s-29.334 -25.333 -44.001 -34c-35.333 -21.333 -75.333 -33.333 -120 -36v192c24 0 42.5 5 55.5 15s22.5 21 28.5 33c7.33301 14 11.333 30 12 48l-144 -12v300h288z
" />
    <glyph glyph-name="Dcroat" unicode="&#x110;" horiz-adv-x="1138" 
d="M5 864l143 0.00195312v672h314c202 0 353 -63.833 453 -191.5s150 -321.834 150 -582.501c0 -64.667 -4.33301 -128.5 -13 -191.5s-22.167 -122.667 -40.5 -179s-41.833 -108.5 -70.5 -156.5s-63.334 -89.333 -104.001 -124s-87.667 -61.834 -141 -81.501
s-113.666 -29.5 -180.999 -29.5h-367v672h-143v192zM447 1296l0.00292969 -431.999h134v-192h-134v-432h43c38 0 71.333 6.5 100 19.5s53.167 30.833 73.5 53.5s37 49.167 50 79.5s23.333 62.666 31 96.999s13 69.833 16 106.5s4.5 73 4.5 109v112c0 42 -2 84.833 -6 128.5
s-11.333 86.5 -22 128.5s-26.334 79.5 -47.001 112.5s-47.834 59.5 -81.501 79.5s-75.834 30 -126.501 30h-35z" />
    <glyph glyph-name="dcroat" unicode="&#x111;" horiz-adv-x="1067" 
d="M726 -12l-69.998 155.999c-8.66699 -32 -23.334 -60.667 -44.001 -86c-8.66699 -10.667 -19.167 -21.167 -31.5 -31.5s-26.833 -19.5 -43.5 -27.5s-35.5 -14.333 -56.5 -19s-44.833 -7 -71.5 -7c-52.667 0 -99.5 11.833 -140.5 35.5s-75.667 60.334 -104 110.001
s-49.833 112.334 -64.5 188.001s-22 165.5 -22 269.5c0 106 5.83301 196.5 17.5 271.5s30.334 136.167 56.001 183.5s58.5 81.833 98.5 103.5s88.333 32.5 145 32.5c16 0 32.167 -2.33301 48.5 -7s32.166 -11 47.499 -19s30.166 -17 44.499 -27s27.5 -20.333 39.5 -31
c28.667 -24.667 55.667 -52.334 81 -83.001v500l288 36v-1524zM656.002 863.999c-14 17.333 -28.667 32.665 -44 45.998c-13.333 11.333 -28.333 21.833 -45 31.5s-33.667 14.5 -51 14.5c-35.333 0 -63 -9.83301 -83 -29.5s-35 -46.667 -45 -81
s-16.167 -74.666 -18.5 -120.999s-3.5 -95.833 -3.5 -148.5c0 -53.333 1.16699 -104 3.5 -152s8.5 -90.167 18.5 -126.5s25 -65.166 45 -86.499s47.667 -32 83 -32c17.333 0 34.333 4.5 51 13.5s31.667 24.667 45 47s24 53 32 92s12 88.5 12 148.5v384zM505.002 1390.21h576
v-191.995h-576v191.995z" />
    <glyph glyph-name="Emacron" unicode="&#x112;" horiz-adv-x="988" 
d="M142 1536h780l-24 -240h-456v-366h323l-1 -258h-322v-432h496l-24 -240h-772v1536zM213 1824h576v-192h-576v192z" />
    <glyph glyph-name="emacron" unicode="&#x113;" horiz-adv-x="965" 
d="M357 536c0 -36 2.33105 -74.665 6.99805 -115.998s12.5 -79.333 23.5 -114s25.5 -63.5 43.5 -86.5s40 -34.5 66 -34.5c22.667 0 43.334 9 62.001 27s35 38.333 49 61s25.167 44 33.5 64s13.5 32 15.5 36l218 -83c-13.333 -46.667 -31 -89.334 -53 -128.001
s-48.667 -72 -80 -100s-67.666 -49.833 -108.999 -65.5s-88.333 -23.5 -141 -23.5c-70 0 -131.5 14.667 -184.5 44s-97 70.333 -132 123s-61.333 115.667 -79 189s-26.5 153.666 -26.5 240.999c0 88 9 168.667 27 242s45 136.333 81 189s81 93.5 135 122.5
s117 43.5 189 43.5c68.667 0 128.667 -14.5 180 -43.5s94.333 -69.833 129 -122.5s60.667 -115.667 78 -189s26 -154 26 -242l-4 -14c-1.33301 -4 -2.33301 -7.83301 -3 -11.5s-1 -6.5 -1 -8.5h-550zM631.998 702.002c0 38 -2.5 73.333 -7.5 106
s-12.833 60.834 -23.5 84.501s-24.5 42.334 -41.5 56.001s-37.833 20.5 -62.5 20.5c-17.333 0 -34.5 -6.83301 -51.5 -20.5s-32 -32.334 -45 -56.001s-23.5 -51.834 -31.5 -84.501s-12 -68 -12 -106h275zM191.998 1440h576v-192h-576v192z" />
    <glyph glyph-name="Ebreve" unicode="&#x114;" horiz-adv-x="988" 
d="M142 1536h780l-24 -240h-456v-366h323l-1 -258h-322v-432h496l-24 -240h-772v1536zM320 2112c0 -24 1 -50 3 -78s9 -54 21 -78s31 -44 57 -60s63 -24 111 -24s85 8 111 24s45 36 57 60s19 50 21 78s3 54 3 78h240c0 -30.667 -2.83301 -63.667 -8.5 -99
s-15.167 -70.833 -28.5 -106.5s-31 -70 -53 -103s-49 -62.167 -81 -87.5s-69.5 -45.666 -112.5 -60.999s-92.5 -23 -148.5 -23s-105.5 7.66699 -148.5 23s-80.5 35.666 -112.5 60.999s-59 54.5 -81 87.5s-39.667 67.333 -53 103s-22.833 71.167 -28.5 106.5
s-8.5 68.333 -8.5 99h240z" />
    <glyph glyph-name="ebreve" unicode="&#x115;" horiz-adv-x="965" 
d="M357 536c0 -36 2.33105 -74.665 6.99805 -115.998s12.5 -79.333 23.5 -114s25.5 -63.5 43.5 -86.5s40 -34.5 66 -34.5c22.667 0 43.334 9 62.001 27s35 38.333 49 61s25.167 44 33.5 64s13.5 32 15.5 36l218 -83c-13.333 -46.667 -31 -89.334 -53 -128.001
s-48.667 -72 -80 -100s-67.666 -49.833 -108.999 -65.5s-88.333 -23.5 -141 -23.5c-70 0 -131.5 14.667 -184.5 44s-97 70.333 -132 123s-61.333 115.667 -79 189s-26.5 153.666 -26.5 240.999c0 88 9 168.667 27 242s45 136.333 81 189s81 93.5 135 122.5
s117 43.5 189 43.5c68.667 0 128.667 -14.5 180 -43.5s94.333 -69.833 129 -122.5s60.667 -115.667 78 -189s26 -154 26 -242l-4 -14c-1.33301 -4 -2.33301 -7.83301 -3 -11.5s-1 -6.5 -1 -8.5h-550zM631.998 702.002c0 38 -2.5 73.333 -7.5 106
s-12.833 60.834 -23.5 84.501s-24.5 42.334 -41.5 56.001s-37.833 20.5 -62.5 20.5c-17.333 0 -34.5 -6.83301 -51.5 -20.5s-32 -32.334 -45 -56.001s-23.5 -51.834 -31.5 -84.501s-12 -68 -12 -106h275zM290.998 1728c0 -24 1 -50 3 -78s9 -54 21 -78s31 -44 57 -60
s63 -24 111 -24s85 8 111 24s45 36 57 60s19 50 21 78s3 54 3 78h240c0 -30.667 -2.83301 -63.667 -8.5 -99s-15.167 -70.833 -28.5 -106.5s-31 -70 -53 -103s-49 -62.167 -81 -87.5s-69.5 -45.666 -112.5 -60.999s-92.5 -23 -148.5 -23s-105.5 7.66699 -148.5 23
s-80.5 35.666 -112.5 60.999s-59 54.5 -81 87.5s-39.667 67.333 -53 103s-22.833 71.167 -28.5 106.5s-8.5 68.333 -8.5 99h240z" />
    <glyph glyph-name="Edotaccent" unicode="&#x116;" horiz-adv-x="988" 
d="M142 1536h780l-24 -240h-456v-366h323l-1 -258h-322v-432h496l-24 -240h-772v1536zM653 1922v-288l-288 -1v287z" />
    <glyph glyph-name="edotaccent" unicode="&#x117;" horiz-adv-x="965" 
d="M357 536c0 -36 2.33105 -74.665 6.99805 -115.998s12.5 -79.333 23.5 -114s25.5 -63.5 43.5 -86.5s40 -34.5 66 -34.5c22.667 0 43.334 9 62.001 27s35 38.333 49 61s25.167 44 33.5 64s13.5 32 15.5 36l218 -83c-13.333 -46.667 -31 -89.334 -53 -128.001
s-48.667 -72 -80 -100s-67.666 -49.833 -108.999 -65.5s-88.333 -23.5 -141 -23.5c-70 0 -131.5 14.667 -184.5 44s-97 70.333 -132 123s-61.333 115.667 -79 189s-26.5 153.666 -26.5 240.999c0 88 9 168.667 27 242s45 136.333 81 189s81 93.5 135 122.5
s117 43.5 189 43.5c68.667 0 128.667 -14.5 180 -43.5s94.333 -69.833 129 -122.5s60.667 -115.667 78 -189s26 -154 26 -242l-4 -14c-1.33301 -4 -2.33301 -7.83301 -3 -11.5s-1 -6.5 -1 -8.5h-550zM631.998 702.002c0 38 -2.5 73.333 -7.5 106
s-12.833 60.834 -23.5 84.501s-24.5 42.334 -41.5 56.001s-37.833 20.5 -62.5 20.5c-17.333 0 -34.5 -6.83301 -51.5 -20.5s-32 -32.334 -45 -56.001s-23.5 -51.834 -31.5 -84.501s-12 -68 -12 -106h275zM623.998 1538v-288l-288 -1v287z" />
    <glyph glyph-name="Eogonek" unicode="&#x118;" horiz-adv-x="986" 
d="M142 1536h780l-24 -240h-456v-366h323l-1 -258h-322v-432h496l-24 -240h-772v1536zM874 -103c-3.33301 -12 -5 -21.666 -5 -28.999c0 -23.333 7.66699 -39.333 23 -48s34 -13 56 -13c13.333 0 27.333 1.16699 42 3.5s28.667 5.33301 42 9s25.666 7.5 36.999 11.5
s20.666 7.66699 27.999 11v-165c-19.333 -20.667 -47.166 -36.5 -83.499 -47.5s-74.5 -16.5 -114.5 -16.5c-29.333 0 -58.166 3.16699 -86.499 9.5s-53.5 16.333 -75.5 30s-39.833 31 -53.5 52s-20.5 46.167 -20.5 75.5c0 10.667 1.5 21.667 4.5 33
s7.16699 23.666 12.5 36.999l62 168h162z" />
    <glyph glyph-name="eogonek" unicode="&#x119;" horiz-adv-x="966" 
d="M358 536c0 -36 2.33105 -74.665 6.99805 -115.998s12.5 -79.333 23.5 -114s25.5 -63.5 43.5 -86.5s40 -34.5 66 -34.5c22.667 0 43.334 9 62.001 27s35 38.333 49 61s25.167 44 33.5 64s13.5 32 15.5 36l218 -83c-13.333 -46.667 -31 -89.334 -53 -128.001
s-48.667 -72 -80 -100s-67.666 -49.833 -108.999 -65.5s-88.333 -23.5 -141 -23.5c-70 0 -131.5 14.667 -184.5 44s-97 70.333 -132 123s-61.333 115.667 -79 189s-26.5 153.666 -26.5 240.999c0 88 9 168.667 27 242s45 136.333 81 189s81 93.5 135 122.5
s117 43.5 189 43.5c68.667 0 128.667 -14.5 180 -43.5s94.333 -69.833 129 -122.5s60.667 -115.667 78 -189s26 -154 26 -242l-4 -14c-1.33301 -4 -2.33301 -7.83301 -3 -11.5s-1 -6.5 -1 -8.5h-550zM632.998 702.002c0 38 -2.5 73.333 -7.5 106
s-12.833 60.834 -23.5 84.501s-24.5 42.334 -41.5 56.001s-37.833 20.5 -62.5 20.5c-17.333 0 -34.5 -6.83301 -51.5 -20.5s-32 -32.334 -45 -56.001s-23.5 -51.834 -31.5 -84.501s-12 -68 -12 -106h275zM573.998 -100.998c-3.33301 -12 -5 -21.666 -5 -28.999
c0 -23.333 7.66699 -39.333 23 -48s34 -13 56 -13c13.333 0 27.333 1.16699 42 3.5s28.667 5.33301 42 9s25.666 7.5 36.999 11.5s20.666 7.66699 27.999 11v-165c-19.333 -20.667 -47.166 -36.5 -83.499 -47.5s-74.5 -16.5 -114.5 -16.5
c-29.333 0 -58.166 3.16699 -86.499 9.5s-53.5 16.333 -75.5 30s-39.833 31 -53.5 52s-20.5 46.167 -20.5 75.5c0 10.667 1.5 21.667 4.5 33s7.16699 23.666 12.5 36.999l62 168h162z" />
    <glyph glyph-name="Ecaron" unicode="&#x11a;" horiz-adv-x="988" 
d="M142 1536h780l-24 -240h-456v-366h323l-1 -258h-322v-432h496l-24 -240h-772v1536zM156 1623l240 480h202l230 -480h-250l-96 290l-116 -290h-210z" />
    <glyph glyph-name="ecaron" unicode="&#x11b;" horiz-adv-x="965" 
d="M357 536c0 -36 2.33105 -74.665 6.99805 -115.998s12.5 -79.333 23.5 -114s25.5 -63.5 43.5 -86.5s40 -34.5 66 -34.5c22.667 0 43.334 9 62.001 27s35 38.333 49 61s25.167 44 33.5 64s13.5 32 15.5 36l218 -83c-13.333 -46.667 -31 -89.334 -53 -128.001
s-48.667 -72 -80 -100s-67.666 -49.833 -108.999 -65.5s-88.333 -23.5 -141 -23.5c-70 0 -131.5 14.667 -184.5 44s-97 70.333 -132 123s-61.333 115.667 -79 189s-26.5 153.666 -26.5 240.999c0 88 9 168.667 27 242s45 136.333 81 189s81 93.5 135 122.5
s117 43.5 189 43.5c68.667 0 128.667 -14.5 180 -43.5s94.333 -69.833 129 -122.5s60.667 -115.667 78 -189s26 -154 26 -242l-4 -14c-1.33301 -4 -2.33301 -7.83301 -3 -11.5s-1 -6.5 -1 -8.5h-550zM631.998 702.002c0 38 -2.5 73.333 -7.5 106
s-12.833 60.834 -23.5 84.501s-24.5 42.334 -41.5 56.001s-37.833 20.5 -62.5 20.5c-17.333 0 -34.5 -6.83301 -51.5 -20.5s-32 -32.334 -45 -56.001s-23.5 -51.834 -31.5 -84.501s-12 -68 -12 -106h275zM353.998 1728l116 -290l96 290h250l-230 -480h-202l-240 480h210z
" />
    <glyph glyph-name="Gcircumflex" unicode="&#x11c;" horiz-adv-x="1132" 
d="M739 1015c-2.66699 19.333 -5.17188 40.498 -7.50488 63.498s-5.66602 46.333 -9.99902 70s-9.83301 46.5 -16.5 68.5s-15.667 41.5 -27 58.5s-25.333 30.667 -42 41s-36.667 15.5 -60 15.5c-26.667 0 -50 -8.83301 -70 -26.5s-37.333 -41.167 -52 -70.5
s-26.667 -63.5 -36 -102.5s-16.666 -79.667 -21.999 -122s-9.16602 -85.333 -11.499 -129s-3.5 -84.834 -3.5 -123.501c0 -36.667 0.333008 -75.667 1 -117s2.83398 -82.333 6.50098 -123s9.33398 -79.667 17.001 -117s18.834 -70.166 33.501 -98.499s33.334 -51 56.001 -68
s50.334 -25.5 83.001 -25.5c26.667 0 50.167 7.5 70.5 22.5s37.5 35.833 51.5 62.5s24.5 58.334 31.5 95.001s10.5 76.334 10.5 119.001h-152l24 260h417v-756l-115 -12c-0.666992 2.66699 -2.16699 9 -4.5 19l-8.5 35.5l-11.5 45.5c-4.33301 16.667 -8.5 33.667 -12.5 51
l-33 134c-4.66699 -59.333 -19 -112.333 -43 -159c-10 -20 -22.833 -39.333 -38.5 -58s-34.834 -35.5 -57.501 -50.5s-49.334 -27 -80.001 -36s-66 -13.5 -106 -13.5c-54 0 -102.5 10.167 -145.5 30.5s-80.667 48.666 -113 84.999s-60 79.666 -83 129.999
s-41.833 105.333 -56.5 165s-25.334 123 -32.001 190s-10 135.5 -10 205.5c0 59.333 3.83301 120 11.5 182s19.667 122.5 36 181.5s37.5 114.5 63.5 166.5s57.5 97.667 94.5 137s79.833 70.333 128.5 93s103.667 34 165 34c78 0 145 -14.833 201 -44.5
s102 -69.167 138 -118.5s62.667 -106.166 80 -170.499s26 -131.166 26 -200.499zM262.995 1632l240 480h202l230 -480h-250l-96 290l-116 -290h-210z" />
    <glyph glyph-name="gcircumflex" unicode="&#x11d;" horiz-adv-x="1109" 
d="M44 -123c0 19.333 2.83105 37.3301 8.49805 53.9971s13.334 32.167 23.001 46.5s20.5 27.333 32.5 39s24.333 22.167 37 31.5c29.333 22 63 40.333 101 55c-32 8.66699 -60.667 20 -86 34c-10.667 6 -21.167 13 -31.5 21s-19.5 16.833 -27.5 26.5s-14.5 20.5 -19.5 32.5
s-7.5 25 -7.5 39c0 18.667 3.16699 36.834 9.5 54.501s14.5 34.167 24.5 49.5s21.5 29.833 34.5 43.5s26.167 26.167 39.5 37.5c32 26.667 68.333 50 109 70c-34.667 20.667 -65.334 45.667 -92.001 75c-11.333 12.667 -22.5 26.834 -33.5 42.501s-20.833 33 -29.5 52
s-15.667 39.667 -21 62s-8 46.5 -8 72.5c0 57.333 12.5 108 37.5 152s57.5 80.833 97.5 110.5s85.167 52 135.5 67s101.166 22.5 152.499 22.5c36.667 0 70 -2.66699 100 -8s56.833 -12.333 80.5 -21s44.667 -18 63 -28s34.5 -19.667 48.5 -29l40.5 36.5
c17 15 36.5 29.833 58.5 44.5s45.833 27.167 71.5 37.5s51.5 15.5 77.5 15.5c3.33301 0 6.66602 -0.166992 9.99902 -0.5s6.66602 -0.833008 9.99902 -1.5s7 -1.33398 11 -2.00098v-242l-51 19c-13.333 5.33301 -27.166 10 -41.499 14s-25.5 6 -33.5 6
c-7.33301 0 -14.166 -1 -20.499 -3s-12.166 -4 -17.499 -6c-6.66699 -2.66699 -12.667 -5.33398 -18 -8.00098c8 -20 15.333 -40 22 -60c5.33301 -17.333 10.333 -35.833 15 -55.5s7 -38.167 7 -55.5c0 -42 -8.5 -84.667 -25.5 -128s-42.167 -82.833 -75.5 -118.5
s-74.833 -64.667 -124.5 -87s-107.167 -29.5 -172.5 -21.5c-26 0 -49 0.666992 -69 2s-37 2 -51 2c-28 -8 -47.5 -16.833 -58.5 -26.5s-16.5 -32.5 -16.5 -68.5c0 -19.333 7 -35.5 21 -48.5s31 -20.833 51 -23.5l272 -21c52 -4 98.833 -12.167 140.5 -24.5
s77.334 -31.833 107.001 -58.5s52.334 -58.167 68.001 -94.5s23.5 -77.5 23.5 -123.5c0 -43.333 -8 -82 -24 -116s-37.5 -63.5 -64.5 -88.5s-58.333 -46 -94 -63s-73 -30.667 -112 -41s-78.5 -17.833 -118.5 -22.5s-78 -7 -114 -7c-78 0 -147 5.83301 -207 17.5
s-110.333 27.834 -151 48.501s-71.5 45.334 -92.5 74.001s-31.5 60.334 -31.5 95.001zM305.998 -36.0029c0 -16.667 4.50195 -31.667 13.502 -45s23.667 -24.833 44 -34.5s46.666 -17 78.999 -22s71.833 -7.5 118.5 -7.5c68.667 0 121.167 11.333 157.5 34s54.5 54 54.5 94
c0 22 -8 39.5 -24 52.5s-35.167 22.667 -57.5 29s-45.333 10.5 -69 12.5s-42.834 3 -57.501 3h-168c-10.667 -3.33301 -21.5 -8 -32.5 -14s-20.833 -13.833 -29.5 -23.5s-15.667 -21 -21 -34s-8 -27.833 -8 -44.5zM395 825.997c0 -22 1.66602 -44.6689 4.99902 -68.002
s9.83301 -44.666 19.5 -63.999s23.334 -35.166 41.001 -47.499s40.834 -18.5 69.501 -18.5c39.333 0 70.5 16.5 93.5 49.5s34.5 80.5 34.5 142.5c0 30 -3.5 55.833 -10.5 77.5s-16.5 39.5 -28.5 53.5s-25.833 24.5 -41.5 31.5s-32.167 10.5 -49.5 10.5
c-23.333 0 -43.333 -5.16699 -60 -15.5s-30.334 -23.5 -41.001 -39.5s-18.667 -34 -24 -54s-8 -39.333 -8 -58zM246.999 1248l240 480h202l230 -480h-250l-96 290l-116 -290h-210z" />
    <glyph glyph-name="Gbreve" unicode="&#x11e;" horiz-adv-x="1132" 
d="M739 1015c-2.66699 19.333 -5.17188 40.498 -7.50488 63.498s-5.66602 46.333 -9.99902 70s-9.83301 46.5 -16.5 68.5s-15.667 41.5 -27 58.5s-25.333 30.667 -42 41s-36.667 15.5 -60 15.5c-26.667 0 -50 -8.83301 -70 -26.5s-37.333 -41.167 -52 -70.5
s-26.667 -63.5 -36 -102.5s-16.666 -79.667 -21.999 -122s-9.16602 -85.333 -11.499 -129s-3.5 -84.834 -3.5 -123.501c0 -36.667 0.333008 -75.667 1 -117s2.83398 -82.333 6.50098 -123s9.33398 -79.667 17.001 -117s18.834 -70.166 33.501 -98.499s33.334 -51 56.001 -68
s50.334 -25.5 83.001 -25.5c26.667 0 50.167 7.5 70.5 22.5s37.5 35.833 51.5 62.5s24.5 58.334 31.5 95.001s10.5 76.334 10.5 119.001h-152l24 260h417v-756l-115 -12c-0.666992 2.66699 -2.16699 9 -4.5 19l-8.5 35.5l-11.5 45.5c-4.33301 16.667 -8.5 33.667 -12.5 51
l-33 134c-4.66699 -59.333 -19 -112.333 -43 -159c-10 -20 -22.833 -39.333 -38.5 -58s-34.834 -35.5 -57.501 -50.5s-49.334 -27 -80.001 -36s-66 -13.5 -106 -13.5c-54 0 -102.5 10.167 -145.5 30.5s-80.667 48.666 -113 84.999s-60 79.666 -83 129.999
s-41.833 105.333 -56.5 165s-25.334 123 -32.001 190s-10 135.5 -10 205.5c0 59.333 3.83301 120 11.5 182s19.667 122.5 36 181.5s37.5 114.5 63.5 166.5s57.5 97.667 94.5 137s79.833 70.333 128.5 93s103.667 34 165 34c78 0 145 -14.833 201 -44.5
s102 -69.167 138 -118.5s62.667 -106.166 80 -170.499s26 -131.166 26 -200.499zM371.995 2112c0 -24 1 -50 3 -78s9 -54 21 -78s31 -44 57 -60s63 -24 111 -24s85 8 111 24s45 36 57 60s19 50 21 78s3 54 3 78h240c0 -30.667 -2.83301 -63.667 -8.5 -99
s-15.167 -70.833 -28.5 -106.5s-31 -70 -53 -103s-49 -62.167 -81 -87.5s-69.5 -45.666 -112.5 -60.999s-92.5 -23 -148.5 -23s-105.5 7.66699 -148.5 23s-80.5 35.666 -112.5 60.999s-59 54.5 -81 87.5s-39.667 67.333 -53 103s-22.833 71.167 -28.5 106.5
s-8.5 68.333 -8.5 99h240z" />
    <glyph glyph-name="gbreve" unicode="&#x11f;" horiz-adv-x="1109" 
d="M44 -123c0 19.333 2.83105 37.3301 8.49805 53.9971s13.334 32.167 23.001 46.5s20.5 27.333 32.5 39s24.333 22.167 37 31.5c29.333 22 63 40.333 101 55c-32 8.66699 -60.667 20 -86 34c-10.667 6 -21.167 13 -31.5 21s-19.5 16.833 -27.5 26.5s-14.5 20.5 -19.5 32.5
s-7.5 25 -7.5 39c0 18.667 3.16699 36.834 9.5 54.501s14.5 34.167 24.5 49.5s21.5 29.833 34.5 43.5s26.167 26.167 39.5 37.5c32 26.667 68.333 50 109 70c-34.667 20.667 -65.334 45.667 -92.001 75c-11.333 12.667 -22.5 26.834 -33.5 42.501s-20.833 33 -29.5 52
s-15.667 39.667 -21 62s-8 46.5 -8 72.5c0 57.333 12.5 108 37.5 152s57.5 80.833 97.5 110.5s85.167 52 135.5 67s101.166 22.5 152.499 22.5c36.667 0 70 -2.66699 100 -8s56.833 -12.333 80.5 -21s44.667 -18 63 -28s34.5 -19.667 48.5 -29l40.5 36.5
c17 15 36.5 29.833 58.5 44.5s45.833 27.167 71.5 37.5s51.5 15.5 77.5 15.5c3.33301 0 6.66602 -0.166992 9.99902 -0.5s6.66602 -0.833008 9.99902 -1.5s7 -1.33398 11 -2.00098v-242l-51 19c-13.333 5.33301 -27.166 10 -41.499 14s-25.5 6 -33.5 6
c-7.33301 0 -14.166 -1 -20.499 -3s-12.166 -4 -17.499 -6c-6.66699 -2.66699 -12.667 -5.33398 -18 -8.00098c8 -20 15.333 -40 22 -60c5.33301 -17.333 10.333 -35.833 15 -55.5s7 -38.167 7 -55.5c0 -42 -8.5 -84.667 -25.5 -128s-42.167 -82.833 -75.5 -118.5
s-74.833 -64.667 -124.5 -87s-107.167 -29.5 -172.5 -21.5c-26 0 -49 0.666992 -69 2s-37 2 -51 2c-28 -8 -47.5 -16.833 -58.5 -26.5s-16.5 -32.5 -16.5 -68.5c0 -19.333 7 -35.5 21 -48.5s31 -20.833 51 -23.5l272 -21c52 -4 98.833 -12.167 140.5 -24.5
s77.334 -31.833 107.001 -58.5s52.334 -58.167 68.001 -94.5s23.5 -77.5 23.5 -123.5c0 -43.333 -8 -82 -24 -116s-37.5 -63.5 -64.5 -88.5s-58.333 -46 -94 -63s-73 -30.667 -112 -41s-78.5 -17.833 -118.5 -22.5s-78 -7 -114 -7c-78 0 -147 5.83301 -207 17.5
s-110.333 27.834 -151 48.501s-71.5 45.334 -92.5 74.001s-31.5 60.334 -31.5 95.001zM305.998 -36.0029c0 -16.667 4.50195 -31.667 13.502 -45s23.667 -24.833 44 -34.5s46.666 -17 78.999 -22s71.833 -7.5 118.5 -7.5c68.667 0 121.167 11.333 157.5 34s54.5 54 54.5 94
c0 22 -8 39.5 -24 52.5s-35.167 22.667 -57.5 29s-45.333 10.5 -69 12.5s-42.834 3 -57.501 3h-168c-10.667 -3.33301 -21.5 -8 -32.5 -14s-20.833 -13.833 -29.5 -23.5s-15.667 -21 -21 -34s-8 -27.833 -8 -44.5zM395 825.997c0 -22 1.66602 -44.6689 4.99902 -68.002
s9.83301 -44.666 19.5 -63.999s23.334 -35.166 41.001 -47.499s40.834 -18.5 69.501 -18.5c39.333 0 70.5 16.5 93.5 49.5s34.5 80.5 34.5 142.5c0 30 -3.5 55.833 -10.5 77.5s-16.5 39.5 -28.5 53.5s-25.833 24.5 -41.5 31.5s-32.167 10.5 -49.5 10.5
c-23.333 0 -43.333 -5.16699 -60 -15.5s-30.334 -23.5 -41.001 -39.5s-18.667 -34 -24 -54s-8 -39.333 -8 -58zM390.999 1728c0 -24 1 -50 3 -78s9 -54 21 -78s31 -44 57 -60s63 -24 111 -24s85 8 111 24s45 36 57 60s19 50 21 78s3 54 3 78h240
c0 -30.667 -2.83301 -63.667 -8.5 -99s-15.167 -70.833 -28.5 -106.5s-31 -70 -53 -103s-49 -62.167 -81 -87.5s-69.5 -45.666 -112.5 -60.999s-92.5 -23 -148.5 -23s-105.5 7.66699 -148.5 23s-80.5 35.666 -112.5 60.999s-59 54.5 -81 87.5s-39.667 67.333 -53 103
s-22.833 71.167 -28.5 106.5s-8.5 68.333 -8.5 99h240z" />
    <glyph glyph-name="Gdotaccent" unicode="&#x120;" horiz-adv-x="1132" 
d="M739 1015c-2.66699 19.333 -5.17188 40.498 -7.50488 63.498s-5.66602 46.333 -9.99902 70s-9.83301 46.5 -16.5 68.5s-15.667 41.5 -27 58.5s-25.333 30.667 -42 41s-36.667 15.5 -60 15.5c-26.667 0 -50 -8.83301 -70 -26.5s-37.333 -41.167 -52 -70.5
s-26.667 -63.5 -36 -102.5s-16.666 -79.667 -21.999 -122s-9.16602 -85.333 -11.499 -129s-3.5 -84.834 -3.5 -123.501c0 -36.667 0.333008 -75.667 1 -117s2.83398 -82.333 6.50098 -123s9.33398 -79.667 17.001 -117s18.834 -70.166 33.501 -98.499s33.334 -51 56.001 -68
s50.334 -25.5 83.001 -25.5c26.667 0 50.167 7.5 70.5 22.5s37.5 35.833 51.5 62.5s24.5 58.334 31.5 95.001s10.5 76.334 10.5 119.001h-152l24 260h417v-756l-115 -12c-0.666992 2.66699 -2.16699 9 -4.5 19l-8.5 35.5l-11.5 45.5c-4.33301 16.667 -8.5 33.667 -12.5 51
l-33 134c-4.66699 -59.333 -19 -112.333 -43 -159c-10 -20 -22.833 -39.333 -38.5 -58s-34.834 -35.5 -57.501 -50.5s-49.334 -27 -80.001 -36s-66 -13.5 -106 -13.5c-54 0 -102.5 10.167 -145.5 30.5s-80.667 48.666 -113 84.999s-60 79.666 -83 129.999
s-41.833 105.333 -56.5 165s-25.334 123 -32.001 190s-10 135.5 -10 205.5c0 59.333 3.83301 120 11.5 182s19.667 122.5 36 181.5s37.5 114.5 63.5 166.5s57.5 97.667 94.5 137s79.833 70.333 128.5 93s103.667 34 165 34c78 0 145 -14.833 201 -44.5
s102 -69.167 138 -118.5s62.667 -106.166 80 -170.499s26 -131.166 26 -200.499zM732.995 1922v-288l-288 -1v287z" />
    <glyph glyph-name="gdotaccent" unicode="&#x121;" horiz-adv-x="1109" 
d="M44 -123c0 19.333 2.83105 37.3301 8.49805 53.9971s13.334 32.167 23.001 46.5s20.5 27.333 32.5 39s24.333 22.167 37 31.5c29.333 22 63 40.333 101 55c-32 8.66699 -60.667 20 -86 34c-10.667 6 -21.167 13 -31.5 21s-19.5 16.833 -27.5 26.5s-14.5 20.5 -19.5 32.5
s-7.5 25 -7.5 39c0 18.667 3.16699 36.834 9.5 54.501s14.5 34.167 24.5 49.5s21.5 29.833 34.5 43.5s26.167 26.167 39.5 37.5c32 26.667 68.333 50 109 70c-34.667 20.667 -65.334 45.667 -92.001 75c-11.333 12.667 -22.5 26.834 -33.5 42.501s-20.833 33 -29.5 52
s-15.667 39.667 -21 62s-8 46.5 -8 72.5c0 57.333 12.5 108 37.5 152s57.5 80.833 97.5 110.5s85.167 52 135.5 67s101.166 22.5 152.499 22.5c36.667 0 70 -2.66699 100 -8s56.833 -12.333 80.5 -21s44.667 -18 63 -28s34.5 -19.667 48.5 -29l40.5 36.5
c17 15 36.5 29.833 58.5 44.5s45.833 27.167 71.5 37.5s51.5 15.5 77.5 15.5c3.33301 0 6.66602 -0.166992 9.99902 -0.5s6.66602 -0.833008 9.99902 -1.5s7 -1.33398 11 -2.00098v-242l-51 19c-13.333 5.33301 -27.166 10 -41.499 14s-25.5 6 -33.5 6
c-7.33301 0 -14.166 -1 -20.499 -3s-12.166 -4 -17.499 -6c-6.66699 -2.66699 -12.667 -5.33398 -18 -8.00098c8 -20 15.333 -40 22 -60c5.33301 -17.333 10.333 -35.833 15 -55.5s7 -38.167 7 -55.5c0 -42 -8.5 -84.667 -25.5 -128s-42.167 -82.833 -75.5 -118.5
s-74.833 -64.667 -124.5 -87s-107.167 -29.5 -172.5 -21.5c-26 0 -49 0.666992 -69 2s-37 2 -51 2c-28 -8 -47.5 -16.833 -58.5 -26.5s-16.5 -32.5 -16.5 -68.5c0 -19.333 7 -35.5 21 -48.5s31 -20.833 51 -23.5l272 -21c52 -4 98.833 -12.167 140.5 -24.5
s77.334 -31.833 107.001 -58.5s52.334 -58.167 68.001 -94.5s23.5 -77.5 23.5 -123.5c0 -43.333 -8 -82 -24 -116s-37.5 -63.5 -64.5 -88.5s-58.333 -46 -94 -63s-73 -30.667 -112 -41s-78.5 -17.833 -118.5 -22.5s-78 -7 -114 -7c-78 0 -147 5.83301 -207 17.5
s-110.333 27.834 -151 48.501s-71.5 45.334 -92.5 74.001s-31.5 60.334 -31.5 95.001zM305.998 -36.0029c0 -16.667 4.50195 -31.667 13.502 -45s23.667 -24.833 44 -34.5s46.666 -17 78.999 -22s71.833 -7.5 118.5 -7.5c68.667 0 121.167 11.333 157.5 34s54.5 54 54.5 94
c0 22 -8 39.5 -24 52.5s-35.167 22.667 -57.5 29s-45.333 10.5 -69 12.5s-42.834 3 -57.501 3h-168c-10.667 -3.33301 -21.5 -8 -32.5 -14s-20.833 -13.833 -29.5 -23.5s-15.667 -21 -21 -34s-8 -27.833 -8 -44.5zM395 825.997c0 -22 1.66602 -44.6689 4.99902 -68.002
s9.83301 -44.666 19.5 -63.999s23.334 -35.166 41.001 -47.499s40.834 -18.5 69.501 -18.5c39.333 0 70.5 16.5 93.5 49.5s34.5 80.5 34.5 142.5c0 30 -3.5 55.833 -10.5 77.5s-16.5 39.5 -28.5 53.5s-25.833 24.5 -41.5 31.5s-32.167 10.5 -49.5 10.5
c-23.333 0 -43.333 -5.16699 -60 -15.5s-30.334 -23.5 -41.001 -39.5s-18.667 -34 -24 -54s-8 -39.333 -8 -58zM726.999 1538v-288l-288 -1v287z" />
    <glyph glyph-name="Gcommaaccent" unicode="&#x122;" horiz-adv-x="1132" 
d="M739 1015c-2.66699 19.333 -5.17188 40.498 -7.50488 63.498s-5.66602 46.333 -9.99902 70s-9.83301 46.5 -16.5 68.5s-15.667 41.5 -27 58.5s-25.333 30.667 -42 41s-36.667 15.5 -60 15.5c-26.667 0 -50 -8.83301 -70 -26.5s-37.333 -41.167 -52 -70.5
s-26.667 -63.5 -36 -102.5s-16.666 -79.667 -21.999 -122s-9.16602 -85.333 -11.499 -129s-3.5 -84.834 -3.5 -123.501c0 -36.667 0.333008 -75.667 1 -117s2.83398 -82.333 6.50098 -123s9.33398 -79.667 17.001 -117s18.834 -70.166 33.501 -98.499s33.334 -51 56.001 -68
s50.334 -25.5 83.001 -25.5c26.667 0 50.167 7.5 70.5 22.5s37.5 35.833 51.5 62.5s24.5 58.334 31.5 95.001s10.5 76.334 10.5 119.001h-152l24 260h417v-756l-115 -12c-0.666992 2.66699 -2.16699 9 -4.5 19l-8.5 35.5l-11.5 45.5c-4.33301 16.667 -8.5 33.667 -12.5 51
l-33 134c-4.66699 -59.333 -19 -112.333 -43 -159c-10 -20 -22.833 -39.333 -38.5 -58s-34.834 -35.5 -57.501 -50.5s-49.334 -27 -80.001 -36s-66 -13.5 -106 -13.5c-54 0 -102.5 10.167 -145.5 30.5s-80.667 48.666 -113 84.999s-60 79.666 -83 129.999
s-41.833 105.333 -56.5 165s-25.334 123 -32.001 190s-10 135.5 -10 205.5c0 59.333 3.83301 120 11.5 182s19.667 122.5 36 181.5s37.5 114.5 63.5 166.5s57.5 97.667 94.5 137s79.833 70.333 128.5 93s103.667 34 165 34c78 0 145 -14.833 201 -44.5
s102 -69.167 138 -118.5s62.667 -106.166 80 -170.499s26 -131.166 26 -200.499zM709.995 -89.002l0.000976562 -288.001c0 -36 -3.5 -67.667 -10.5 -95s-16 -51.166 -27 -71.499s-23.833 -37.5 -38.5 -51.5s-29.334 -25.333 -44.001 -34
c-35.333 -21.333 -75.333 -33.333 -120 -36v192c24 0 42.5 5 55.5 15s22.5 21 28.5 33c7.33301 14 11.333 30 12 48h-144v288h288z" />
    <glyph glyph-name="gcommaaccent" unicode="&#x123;" horiz-adv-x="1109" 
d="M44 -123c0 19.333 2.83105 37.3301 8.49805 53.9971s13.334 32.167 23.001 46.5s20.5 27.333 32.5 39s24.333 22.167 37 31.5c29.333 22 63 40.333 101 55c-32 8.66699 -60.667 20 -86 34c-10.667 6 -21.167 13 -31.5 21s-19.5 16.833 -27.5 26.5s-14.5 20.5 -19.5 32.5
s-7.5 25 -7.5 39c0 18.667 3.16699 36.834 9.5 54.501s14.5 34.167 24.5 49.5s21.5 29.833 34.5 43.5s26.167 26.167 39.5 37.5c32 26.667 68.333 50 109 70c-34.667 20.667 -65.334 45.667 -92.001 75c-11.333 12.667 -22.5 26.834 -33.5 42.501s-20.833 33 -29.5 52
s-15.667 39.667 -21 62s-8 46.5 -8 72.5c0 57.333 12.5 108 37.5 152s57.5 80.833 97.5 110.5s85.167 52 135.5 67s101.166 22.5 152.499 22.5c36.667 0 70 -2.66699 100 -8s56.833 -12.333 80.5 -21s44.667 -18 63 -28s34.5 -19.667 48.5 -29l40.5 36.5
c17 15 36.5 29.833 58.5 44.5s45.833 27.167 71.5 37.5s51.5 15.5 77.5 15.5c3.33301 0 6.66602 -0.166992 9.99902 -0.5s6.66602 -0.833008 9.99902 -1.5s7 -1.33398 11 -2.00098v-242l-51 19c-13.333 5.33301 -27.166 10 -41.499 14s-25.5 6 -33.5 6
c-7.33301 0 -14.166 -1 -20.499 -3s-12.166 -4 -17.499 -6c-6.66699 -2.66699 -12.667 -5.33398 -18 -8.00098c8 -20 15.333 -40 22 -60c5.33301 -17.333 10.333 -35.833 15 -55.5s7 -38.167 7 -55.5c0 -42 -8.5 -84.667 -25.5 -128s-42.167 -82.833 -75.5 -118.5
s-74.833 -64.667 -124.5 -87s-107.167 -29.5 -172.5 -21.5c-26 0 -49 0.666992 -69 2s-37 2 -51 2c-28 -8 -47.5 -16.833 -58.5 -26.5s-16.5 -32.5 -16.5 -68.5c0 -19.333 7 -35.5 21 -48.5s31 -20.833 51 -23.5l272 -21c52 -4 98.833 -12.167 140.5 -24.5
s77.334 -31.833 107.001 -58.5s52.334 -58.167 68.001 -94.5s23.5 -77.5 23.5 -123.5c0 -43.333 -8 -82 -24 -116s-37.5 -63.5 -64.5 -88.5s-58.333 -46 -94 -63s-73 -30.667 -112 -41s-78.5 -17.833 -118.5 -22.5s-78 -7 -114 -7c-78 0 -147 5.83301 -207 17.5
s-110.333 27.834 -151 48.501s-71.5 45.334 -92.5 74.001s-31.5 60.334 -31.5 95.001zM305.998 -36.0029c0 -16.667 4.50195 -31.667 13.502 -45s23.667 -24.833 44 -34.5s46.666 -17 78.999 -22s71.833 -7.5 118.5 -7.5c68.667 0 121.167 11.333 157.5 34s54.5 54 54.5 94
c0 22 -8 39.5 -24 52.5s-35.167 22.667 -57.5 29s-45.333 10.5 -69 12.5s-42.834 3 -57.501 3h-168c-10.667 -3.33301 -21.5 -8 -32.5 -14s-20.833 -13.833 -29.5 -23.5s-15.667 -21 -21 -34s-8 -27.833 -8 -44.5zM395 825.997c0 -22 1.66602 -44.6689 4.99902 -68.002
s9.83301 -44.666 19.5 -63.999s23.334 -35.166 41.001 -47.499s40.834 -18.5 69.501 -18.5c39.333 0 70.5 16.5 93.5 49.5s34.5 80.5 34.5 142.5c0 30 -3.5 55.833 -10.5 77.5s-16.5 39.5 -28.5 53.5s-25.833 24.5 -41.5 31.5s-32.167 10.5 -49.5 10.5
c-23.333 0 -43.333 -5.16699 -60 -15.5s-30.334 -23.5 -41.001 -39.5s-18.667 -34 -24 -54s-8 -39.333 -8 -58zM413.999 1302l0.000976562 330.001c0 36 4.16699 67.667 12.5 95s19.166 51.166 32.499 71.499s28.666 37.333 45.999 51s35 25.167 53 34.5
c42 21.333 90.333 33.333 145 36v-192c-36.667 0 -64.667 -5 -84 -15s-33.666 -21 -42.999 -33c-10.667 -14 -16.667 -30 -18 -48h193v-318z" />
    <glyph glyph-name="Hcircumflex" unicode="&#x124;" horiz-adv-x="1171" 
d="M730 639h-288v-627l-300 -24v1524l300 24v-623h288v599l300 24v-1524l-300 -24v651zM249 1632l240 480h202l230 -480h-250l-96 290l-116 -290h-210z" />
    <glyph glyph-name="hcircumflex" unicode="&#x125;" 
d="M700 773c0 52.667 -9.49902 90.667 -28.499 114s-42.833 35 -71.5 35c-26.667 0 -54.667 -7.16699 -84 -21.5s-64 -33.5 -104 -57.5v-831l-288 -24v1512l288 36v-531c60 56 117.667 97 173 123s107.666 39 156.999 39c36 0 69 -6.83301 99 -20.5s55.833 -33 77.5 -58
s38.667 -55.5 51 -91.5s18.5 -76.333 18.5 -121v-864l-288 -24v785zM-62.999 1632l240 480h202l230 -480h-250l-96 290l-116 -290h-210z" />
    <glyph glyph-name="Hbar" unicode="&#x126;" horiz-adv-x="1179" 
d="M26 1344h119v168l300 24v-192h288v168l300 24v-192h106v-182h-106v-1150l-300 -24v651h-288v-627l-300 -24v1174h-119v182zM733 913v249h-288v-249h288z" />
    <glyph glyph-name="hbar" unicode="&#x127;" 
d="M700 773c0 52.667 -9.49902 90.667 -28.499 114s-42.833 35 -71.5 35c-26.667 0 -54.667 -7.16699 -84 -21.5s-64 -33.5 -104 -57.5v-831l-288 -24v1512l288 36v-531c60 56 117.667 97 173 123s107.666 39 156.999 39c36 0 69 -6.83301 99 -20.5s55.833 -33 77.5 -58
s38.667 -55.5 51 -91.5s18.5 -76.333 18.5 -121v-864l-288 -24v785zM-66.2822 1440h670.992v-192h-670.992v192z" />
    <glyph glyph-name="Itilde" unicode="&#x128;" horiz-adv-x="582" 
d="M142 1512l300 24v-1524l-300 -24v1524zM-24 1799c20 22.667 40.998 43.001 62.998 61.001c18.667 15.333 39.334 29.333 62.001 42s45.334 19 68.001 19c26.667 0 50.667 -4.16699 72 -12.5s41.833 -17.5 61.5 -27.5s38.834 -19.167 57.501 -27.5s38.667 -12.5 60 -12.5
c25.333 0 47.5 4.16699 66.5 12.5s34.5 17.5 46.5 27.5c14 12 26 25.333 36 40l44 -162c0 -0.666992 -4.33301 -8.66699 -13 -24s-21.167 -32 -37.5 -50s-36.333 -34.333 -60 -49s-50.5 -22 -80.5 -22c-24 0 -45.833 5.33301 -65.5 16s-39.5 22.167 -59.5 34.5
s-41 23.833 -63 34.5s-47.333 16 -76 16c-20.667 0 -41 -5.16699 -61 -15.5s-37.667 -21.833 -53 -34.5c-18.667 -14.667 -36.334 -31.334 -53.001 -50.001z" />
    <glyph glyph-name="itilde" unicode="&#x129;" horiz-adv-x="536" 
d="M124 1128l288 24v-1140l-288 -24v1140zM-51 1415c20 22.667 40.998 43.001 62.998 61.001c18.667 15.333 39.334 29.333 62.001 42s45.334 19 68.001 19c26.667 0 50.667 -4.16699 72 -12.5s41.833 -17.5 61.5 -27.5s38.834 -19.167 57.501 -27.5s38.667 -12.5 60 -12.5
c25.333 0 47.5 4.16699 66.5 12.5s34.5 17.5 46.5 27.5c14 12 26 25.333 36 40l44 -162c0 -0.666992 -4.33301 -8.66699 -13 -24s-21.167 -32 -37.5 -50s-36.333 -34.333 -60 -49s-50.5 -22 -80.5 -22c-24 0 -45.833 5.33301 -65.5 16s-39.5 22.167 -59.5 34.5
s-41 23.833 -63 34.5s-47.333 16 -76 16c-20.667 0 -41 -5.16699 -61 -15.5s-37.667 -21.833 -53 -34.5c-18.667 -14.667 -36.334 -31.334 -53.001 -50.001z" />
    <glyph glyph-name="Imacron" unicode="&#x12a;" horiz-adv-x="583" 
d="M142 1512l300 24v-1524l-300 -24v1524zM4 1824h576v-192h-576v192z" />
    <glyph glyph-name="imacron" unicode="&#x12b;" horiz-adv-x="536" 
d="M124 1128l288 24v-1140l-288 -24v1140zM-20 1440h576v-192h-576v192z" />
    <glyph glyph-name="Ibreve" unicode="&#x12c;" horiz-adv-x="582" 
d="M142 1512l300 24v-1524l-300 -24v1524zM99 2112c0 -24 1 -50 3 -78s9 -54 21 -78s31 -44 57 -60s63 -24 111 -24s85 8 111 24s45 36 57 60s19 50 21 78s3 54 3 78h240c0 -30.667 -2.83301 -63.667 -8.5 -99s-15.167 -70.833 -28.5 -106.5s-31 -70 -53 -103
s-49 -62.167 -81 -87.5s-69.5 -45.666 -112.5 -60.999s-92.5 -23 -148.5 -23s-105.5 7.66699 -148.5 23s-80.5 35.666 -112.5 60.999s-59 54.5 -81 87.5s-39.667 67.333 -53 103s-22.833 71.167 -28.5 106.5s-8.5 68.333 -8.5 99h240z" />
    <glyph glyph-name="ibreve" unicode="&#x12d;" horiz-adv-x="535" 
d="M124 1128l288 24v-1140l-288 -24v1140zM76 1728c0 -24 1 -50 3 -78s9 -54 21 -78s31 -44 57 -60s63 -24 111 -24s85 8 111 24s45 36 57 60s19 50 21 78s3 54 3 78h240c0 -30.667 -2.83301 -63.667 -8.5 -99s-15.167 -70.833 -28.5 -106.5s-31 -70 -53 -103
s-49 -62.167 -81 -87.5s-69.5 -45.666 -112.5 -60.999s-92.5 -23 -148.5 -23s-105.5 7.66699 -148.5 23s-80.5 35.666 -112.5 60.999s-59 54.5 -81 87.5s-39.667 67.333 -53 103s-22.833 71.167 -28.5 106.5s-8.5 68.333 -8.5 99h240z" />
    <glyph glyph-name="Iogonek" unicode="&#x12e;" horiz-adv-x="583" 
d="M142 1512l300 24v-1524l-300 -24v1524zM382 -101c-3.33301 -12 -5 -21.666 -5 -28.999c0 -23.333 7.66699 -39.333 23 -48s34 -13 56 -13c13.333 0 27.333 1.16699 42 3.5s28.667 5.33301 42 9s25.666 7.5 36.999 11.5s20.666 7.66699 27.999 11v-165
c-19.333 -20.667 -47.166 -36.5 -83.499 -47.5s-74.5 -16.5 -114.5 -16.5c-29.333 0 -58.166 3.16699 -86.499 9.5s-53.5 16.333 -75.5 30s-39.833 31 -53.5 52s-20.5 46.167 -20.5 75.5c0 10.667 1.5 21.667 4.5 33s7.16699 23.666 12.5 36.999l62 168h162z" />
    <glyph glyph-name="iogonek" unicode="&#x12f;" horiz-adv-x="535" 
d="M305 -101c-3.33301 -12 -5 -21.666 -5 -28.999c0 -23.333 7.66699 -39.333 23 -48s34 -13 56 -13c13.333 0 27.333 1.16699 42 3.5s28.667 5.33301 42 9s25.666 7.5 36.999 11.5s20.666 7.66699 27.999 11v-165c-19.333 -20.667 -47.166 -36.5 -83.499 -47.5
s-74.5 -16.5 -114.5 -16.5c-29.333 0 -58.166 3.16699 -86.499 9.5s-53.5 16.333 -75.5 30s-39.833 31 -53.5 52s-20.5 46.167 -20.5 75.5c0 10.667 1.5 21.667 4.5 33s7.16699 23.666 12.5 36.999l62 168h162zM124 1128l288 24v-1140l-288 -24v1140zM413 1600v-288l-288 -1
v287z" />
    <glyph glyph-name="Idotaccent" unicode="&#x130;" horiz-adv-x="583" 
d="M142 1512l300 24v-1524l-300 -24v1524zM436 1922v-288l-288 -1v287z" />
    <glyph glyph-name="dotlessi" unicode="&#x131;" horiz-adv-x="536" 
d="M124 1128l288 24v-1140l-288 -24v1140z" />
    <glyph glyph-name="IJ" unicode="&#x132;" horiz-adv-x="1210" 
d="M142 1512l300 24v-1524l-300 -24v1524zM584 205c16 -5.33301 30.498 -9.00195 43.498 -11.002s25.167 -3 36.5 -3c28 0 49.5 6.33301 64.5 19s26 29.167 33 49.5s11.167 43.5 12.5 69.5s2 52.667 2 80v1103l300 24v-1152c0 -61.333 -4.83301 -117.166 -14.5 -167.499
s-26.167 -93.666 -49.5 -129.999s-54.166 -64.5 -92.499 -84.5s-86.166 -30 -143.499 -30c-54 0 -118 10 -192 30v203z" />
    <glyph glyph-name="ij" unicode="&#x133;" horiz-adv-x="1114" 
d="M124 1128l288 24v-1140l-288 -24v1140zM413 1600v-288l-288 -1v287zM948 1600v-288l-288 -1v287zM501 -96c37.333 0 66.6689 2.66699 88.002 8s37.166 13.833 47.499 25.5s16.833 27 19.5 46s4 42.5 4 70.5v1074l288 24v-1098c0 -54 -1.33301 -102.333 -4 -145
s-12 -78.5 -28 -107.5s-41.167 -51.167 -75.5 -66.5s-83.5 -23 -147.5 -23c-26.667 0 -55.834 1.5 -87.501 4.5s-66.5 7.83301 -104.5 14.5v173z" />
    <glyph glyph-name="Jcircumflex" unicode="&#x134;" horiz-adv-x="660" 
d="M34 205c16 -5.33301 30.498 -9.00195 43.498 -11.002s25.167 -3 36.5 -3c28 0 49.5 6.33301 64.5 19s26 29.167 33 49.5s11.167 43.5 12.5 69.5s2 52.667 2 80v1103l300 24v-1152c0 -61.333 -4.83301 -117.166 -14.5 -167.499s-26.167 -93.666 -49.5 -129.999
s-54.166 -64.5 -92.499 -84.5s-86.166 -30 -143.499 -30c-54 0 -118 10 -192 30v203zM27.998 1632l240 480h202l230 -480h-250l-96 290l-116 -290h-210z" />
    <glyph glyph-name="jcircumflex" unicode="&#x135;" horiz-adv-x="536" 
d="M-35 -96c37.333 0 66.6689 2.66699 88.002 8s37.166 13.833 47.499 25.5s16.833 27 19.5 46s4 42.5 4 70.5v1074l288 24v-1098c0 -54 -1.33301 -102.333 -4 -145s-12 -78.5 -28 -107.5s-41.167 -51.167 -75.5 -66.5s-83.5 -23 -147.5 -23
c-26.667 0 -55.834 1.5 -87.501 4.5s-66.5 7.83301 -104.5 14.5v173zM-73.9971 1248l240 480h202l230 -480h-250l-96 290l-116 -290h-210z" />
    <glyph glyph-name="Kcommaaccent" unicode="&#x136;" horiz-adv-x="1149" 
d="M590 666l-148 -265v-401h-300v1512l300 24v-672l364 672h320l-329 -634l334 -859l-305 -70zM768 -90l0.000976562 -288.001c0 -36 -3.5 -67.667 -10.5 -95s-16 -51.166 -27 -71.499s-23.833 -37.5 -38.5 -51.5s-29.334 -25.333 -44.001 -34
c-35.333 -21.333 -75.333 -33.333 -120 -36v192c24 0 42.5 5 55.5 15s22.5 21 28.5 33c7.33301 14 11.333 30 12 48h-144v288h288z" />
    <glyph glyph-name="kcommaaccent" unicode="&#x137;" horiz-adv-x="1021" 
d="M413 421v-421h-288v1500l288 36v-761l293 377h311l-324 -414l301 -678l-254 -87l-233 573zM684 -90l0.000976562 -288.001c0 -36 -3.5 -67.667 -10.5 -95s-16 -51.166 -27 -71.499s-23.833 -37.5 -38.5 -51.5s-29.334 -25.333 -44.001 -34
c-35.333 -21.333 -75.333 -33.333 -120 -36v192c24 0 42.5 5 55.5 15s22.5 21 28.5 33c7.33301 14 11.333 30 12 48h-144v288h288z" />
    <glyph glyph-name="Lacute" unicode="&#x139;" horiz-adv-x="971" 
d="M441 1536v-1296h520l-48 -240h-771v1512zM165 1730l297 447l227 -202l-411 -346z" />
    <glyph glyph-name="lacute" unicode="&#x13a;" horiz-adv-x="536" 
d="M124 1500l288 36v-1524l-288 -24v1512zM142 1651l297 447l227 -202l-411 -346z" />
    <glyph glyph-name="Lcommaaccent" unicode="&#x13b;" horiz-adv-x="969" 
d="M441 1536v-1296h520l-48 -240h-771v1512zM679 -90l0.000976562 -288.001c0 -36 -3.5 -67.667 -10.5 -95s-16 -51.166 -27 -71.499s-23.833 -37.5 -38.5 -51.5s-29.334 -25.333 -44.001 -34c-35.333 -21.333 -75.333 -33.333 -120 -36v192c24 0 42.5 5 55.5 15
s22.5 21 28.5 33c7.33301 14 11.333 30 12 48h-144v288h288z" />
    <glyph glyph-name="lcommaaccent" unicode="&#x13c;" horiz-adv-x="536" 
d="M124 1500l288 36v-1524l-288 -24v1512zM423 -90l0.000976562 -288.001c0 -36 -3.5 -67.667 -10.5 -95s-16 -51.166 -27 -71.499s-23.833 -37.5 -38.5 -51.5s-29.334 -25.333 -44.001 -34c-35.333 -21.333 -75.333 -33.333 -120 -36v192c24 0 42.5 5 55.5 15
s22.5 21 28.5 33c7.33301 14 11.333 30 12 48h-144v288h288z" />
    <glyph glyph-name="Lcaron" unicode="&#x13d;" horiz-adv-x="971" 
d="M441 1536v-1296h520l-48 -240h-771v1512zM861 1812l0.000976562 -288.001c0 -36 -3.5 -67.667 -10.5 -95s-16 -51.166 -27 -71.499s-23.833 -37.5 -38.5 -51.5s-29.334 -25.333 -44.001 -34c-35.333 -21.333 -75.333 -33.333 -120 -36v192c24 0 42.5 5 55.5 15
s22.5 21 28.5 33c7.33301 14 11.333 30 12 48l-144 -12v300h288z" />
    <glyph glyph-name="lcaron" unicode="&#x13e;" horiz-adv-x="792" 
d="M124 1500l288 36v-1524l-288 -24v1512zM847 1536l0.000976562 -288.001c0 -36 -3.5 -67.667 -10.5 -95s-16 -51.166 -27 -71.499s-23.833 -37.5 -38.5 -51.5s-29.334 -25.333 -44.001 -34c-35.333 -21.333 -75.333 -33.333 -120 -36v192c24 0 42.5 5 55.5 15
s22.5 21 28.5 33c7.33301 14 11.333 30 12 48l-144 -12v300h288z" />
    <glyph glyph-name="Ldot" unicode="&#x13f;" horiz-adv-x="1005" 
d="M441 1536v-1296h520l-48 -240h-771v1512zM959 1056v-288h-288v288h288z" />
    <glyph glyph-name="ldot" unicode="&#x140;" horiz-adv-x="900" 
d="M124 1500l288 36v-1524l-288 -24v1512zM876 838v-288h-288v288h288z" />
    <glyph glyph-name="Lslash" unicode="&#x141;" horiz-adv-x="985" 
d="M455 1536v-561l215 31v-238l-215 -31v-497h520l-48 -240h-771v694l-158 -22v238l158 22v580z" />
    <glyph glyph-name="lslash" unicode="&#x142;" horiz-adv-x="583" 
d="M-1 814l157 40v646l288 36v-609l131 33v-238l-131 -33v-677l-288 -24v628l-157 -40v238z" />
    <glyph glyph-name="Nacute" unicode="&#x143;" horiz-adv-x="1245" 
d="M409 948v-936l-268 -12v1524l313 12l396 -914v890l254 24v-1524l-246 -24zM526 1730l297 447l227 -202l-411 -346z" />
    <glyph glyph-name="nacute" unicode="&#x144;" 
d="M700 769c0 56.667 -9.66797 96.333 -29.001 119s-44.666 34 -75.999 34c-25.333 0 -53.833 -8.33301 -85.5 -25s-64.167 -35 -97.5 -55v-830l-288 -24v1140l288 24v-147c57.333 50 114.333 89.5 171 118.5s109.667 43.5 159 43.5c36 0 69 -6.83301 99 -20.5
s55.833 -33 77.5 -58s38.667 -55.5 51 -91.5s18.5 -76.333 18.5 -121v-864l-288 -24v781zM478.999 1346l297 447l227 -202l-411 -346z" />
    <glyph glyph-name="Ncommaaccent" unicode="&#x145;" horiz-adv-x="1245" 
d="M409 948v-936l-268 -12v1524l313 12l396 -914v890l254 24v-1524l-246 -24zM765 -90l0.000976562 -288.001c0 -36 -3.5 -67.667 -10.5 -95s-16 -51.166 -27 -71.499s-23.833 -37.5 -38.5 -51.5s-29.334 -25.333 -44.001 -34c-35.333 -21.333 -75.333 -33.333 -120 -36v192
c24 0 42.5 5 55.5 15s22.5 21 28.5 33c7.33301 14 11.333 30 12 48h-144v288h288z" />
    <glyph glyph-name="ncommaaccent" unicode="&#x146;" horiz-adv-x="1105" 
d="M701 769c0 56.667 -9.66797 96.333 -29.001 119s-44.666 34 -75.999 34c-25.333 0 -53.833 -8.33301 -85.5 -25s-64.167 -35 -97.5 -55v-830l-288 -24v1140l288 24v-147c57.333 50 114.333 89.5 171 118.5s109.667 43.5 159 43.5c36 0 69 -6.83301 99 -20.5
s55.833 -33 77.5 -58s38.667 -55.5 51 -91.5s18.5 -76.333 18.5 -121v-864l-288 -24v781zM695.999 -90.001l0.000976562 -288.001c0 -36 -3.5 -67.667 -10.5 -95s-16 -51.166 -27 -71.499s-23.833 -37.5 -38.5 -51.5s-29.334 -25.333 -44.001 -34
c-35.333 -21.333 -75.333 -33.333 -120 -36v192c24 0 42.5 5 55.5 15s22.5 21 28.5 33c7.33301 14 11.333 30 12 48h-144v288h288z" />
    <glyph glyph-name="Ncaron" unicode="&#x147;" horiz-adv-x="1245" 
d="M409 948v-936l-268 -12v1524l313 12l396 -914v890l254 24v-1524l-246 -24zM493 2124l116 -290l96 290h250l-230 -480h-202l-240 480h210z" />
    <glyph glyph-name="ncaron" unicode="&#x148;" 
d="M700 769c0 56.667 -9.66797 96.333 -29.001 119s-44.666 34 -75.999 34c-25.333 0 -53.833 -8.33301 -85.5 -25s-64.167 -35 -97.5 -55v-830l-288 -24v1140l288 24v-147c57.333 50 114.333 89.5 171 118.5s109.667 43.5 159 43.5c36 0 69 -6.83301 99 -20.5
s55.833 -33 77.5 -58s38.667 -55.5 51 -91.5s18.5 -76.333 18.5 -121v-864l-288 -24v781zM265.999 1728.08l240 -479.971h202l230 479.971h-250l-96 -289.982l-116 289.982h-210z" />
    <glyph glyph-name="napostrophe" unicode="&#x149;" 
d="M700 769c0 56.667 -9.66797 96.333 -29.001 119s-44.666 34 -75.999 34c-25.333 0 -53.833 -8.33301 -85.5 -25s-64.167 -35 -97.5 -55v-830l-288 -24v1140l288 24v-147c57.333 50 114.333 89.5 171 118.5s109.667 43.5 159 43.5c36 0 69 -6.83301 99 -20.5
s55.833 -33 77.5 -58s38.667 -55.5 51 -91.5s18.5 -76.333 18.5 -121v-864l-288 -24v781zM360.999 1785l0.000976562 -288.001c0 -36 -3.5 -67.667 -10.5 -95s-16 -51.166 -27 -71.499s-23.833 -37.5 -38.5 -51.5s-29.334 -25.333 -44.001 -34
c-35.333 -21.333 -75.333 -33.333 -120 -36v192c24 0 42.5 5 55.5 15s22.5 21 28.5 33c7.33301 14 11.333 30 12 48h-144v288h288z" />
    <glyph glyph-name="Eng" unicode="&#x14a;" horiz-adv-x="1245" 
d="M628 -84c16 -5.33301 30.5 -9.00195 43.5 -11.002s25.167 -3 36.5 -3c35.333 0 62.666 6.33301 81.999 19s33.5 29.167 42.5 49.5s14.167 43.5 15.5 69.5s2 52.667 2 80v23l-441 855v-986l-268 -12v1524l313 12l396 -814v790l254 24v-1441
c0 -61.333 -4.83301 -117.166 -14.5 -167.499s-25.5 -93.666 -47.5 -129.999s-51.167 -64.5 -87.5 -84.5s-81.166 -30 -134.499 -30c-54 0 -118 10 -192 30v203z" />
    <glyph glyph-name="eng" unicode="&#x14b;" horiz-adv-x="1105" 
d="M541 -96c37.333 0 66.668 2.66602 88.001 7.99902s37.166 13.833 47.499 25.5s16.833 27 19.5 46s4 42.5 4 70.5v715c0 56.667 -9.66699 96.334 -29 119.001s-44.666 34 -75.999 34c-25.333 0 -53.833 -8.33301 -85.5 -25s-64.167 -35 -97.5 -55v-830l-288 -24v1140
l288 24v-147c57.333 50 114.333 89.5 171 118.5s109.667 43.5 159 43.5c36 0 69 -6.83301 99 -20.5s55.833 -33 77.5 -58s38.667 -55.5 51 -91.5s18.5 -76.333 18.5 -121v-822c0 -54 -1.33301 -102.333 -4 -145s-12 -78.5 -28 -107.5s-41.167 -51.167 -75.5 -66.5
s-83.5 -23 -147.5 -23c-26.667 0 -55.834 1.5 -87.501 4.5s-66.5 7.83301 -104.5 14.5v173z" />
    <glyph glyph-name="Omacron" unicode="&#x14c;" horiz-adv-x="1125" 
d="M561 -32c-65.333 0 -122.503 11 -171.503 33s-91.167 52.667 -126.5 92s-64.333 85.833 -87 139.5s-40.667 112 -54 175s-22.666 129.5 -27.999 199.5s-8 141 -8 213c0 108 9.16699 208 27.5 300s46.833 170.667 85.5 236s87.834 115.833 147.501 151.5
s131.167 53.5 214.5 53.5s155.166 -17.833 215.499 -53.5s110 -86.167 149 -151.5s67.667 -144 86 -236s27.5 -192 27.5 -300c0 -72 -2.66699 -143 -8 -213s-14.833 -136.5 -28.5 -199.5s-32 -121.333 -55 -175s-52.167 -100.167 -87.5 -139.5s-77.666 -70 -126.999 -92
s-106.666 -33 -171.999 -33zM560.997 223c40 0 71.833 13.833 95.5 41.5s41.667 67.334 54 119.001s20.166 114.334 23.499 188.001s5 156.5 5 248.5c0 32 -0.5 65.5 -1.5 100.5s-3.5 71.333 -7.5 109s-9.83301 74.167 -17.5 109.5s-18.167 66.5 -31.5 93.5
s-29.833 48.667 -49.5 65s-43.167 24.5 -70.5 24.5s-50.666 -8.16699 -69.999 -24.5s-35.5 -38 -48.5 -65s-23.333 -58.167 -31 -93.5s-13.5 -71.833 -17.5 -109.5s-6.5 -74 -7.5 -109s-1.5 -68.5 -1.5 -100.5c0 -92 1.66699 -174.833 5 -248.5s11 -136.334 23 -188.001
s29.667 -91.334 53 -119.001s55 -41.5 95 -41.5zM273.997 1824h576v-192h-576v192z" />
    <glyph glyph-name="omacron" unicode="&#x14d;" horiz-adv-x="1003" 
d="M502 -27c-72 0 -135 14.833 -189 44.5s-99 71 -135 124s-63 116.5 -81 190.5s-27 155.667 -27 245c0 86 9 165.167 27 237.5s45 134.666 81 186.999s81 93 135 122s117 43.5 189 43.5c70 0 132 -14.5 186 -43.5s99.167 -69.667 135.5 -122s63.833 -114.666 82.5 -186.999
s28 -151.5 28 -237.5c0 -89.333 -9.33301 -171 -28 -245s-46.167 -137.5 -82.5 -190.5s-81.5 -94.333 -135.5 -124s-116 -44.5 -186 -44.5zM500 187c23.333 0 43.333 6.33301 60 19s30.334 29.5 41.001 50.5s19 45 25 72s10.333 55 13 84s4.33398 57.667 5.00098 86
s1 54.5 1 78.5c0 23.333 -0.333008 49 -1 77s-2.33398 56.333 -5.00098 85s-7 56.5 -13 83.5s-14.333 51 -25 72s-24.167 37.833 -40.5 50.5s-36.166 19 -59.499 19c-24 0 -44.167 -6.33301 -60.5 -19s-29.833 -29.5 -40.5 -50.5s-18.834 -45 -24.501 -72
s-9.83398 -54.833 -12.501 -83.5s-4.16699 -57 -4.5 -85s-0.5 -53.667 -0.5 -77c0 -24 0.166992 -50.167 0.5 -78.5s1.83301 -57 4.5 -86s6.83398 -57 12.501 -84s13.667 -51 24 -72s23.666 -37.833 39.999 -50.5s36.5 -19 60.5 -19zM213 1440h576v-192h-576v192z" />
    <glyph glyph-name="Obreve" unicode="&#x14e;" horiz-adv-x="1125" 
d="M561 -32c-65.333 0 -122.503 11 -171.503 33s-91.167 52.667 -126.5 92s-64.333 85.833 -87 139.5s-40.667 112 -54 175s-22.666 129.5 -27.999 199.5s-8 141 -8 213c0 108 9.16699 208 27.5 300s46.833 170.667 85.5 236s87.834 115.833 147.501 151.5
s131.167 53.5 214.5 53.5s155.166 -17.833 215.499 -53.5s110 -86.167 149 -151.5s67.667 -144 86 -236s27.5 -192 27.5 -300c0 -72 -2.66699 -143 -8 -213s-14.833 -136.5 -28.5 -199.5s-32 -121.333 -55 -175s-52.167 -100.167 -87.5 -139.5s-77.666 -70 -126.999 -92
s-106.666 -33 -171.999 -33zM560.997 223c40 0 71.833 13.833 95.5 41.5s41.667 67.334 54 119.001s20.166 114.334 23.499 188.001s5 156.5 5 248.5c0 32 -0.5 65.5 -1.5 100.5s-3.5 71.333 -7.5 109s-9.83301 74.167 -17.5 109.5s-18.167 66.5 -31.5 93.5
s-29.833 48.667 -49.5 65s-43.167 24.5 -70.5 24.5s-50.666 -8.16699 -69.999 -24.5s-35.5 -38 -48.5 -65s-23.333 -58.167 -31 -93.5s-13.5 -71.833 -17.5 -109.5s-6.5 -74 -7.5 -109s-1.5 -68.5 -1.5 -100.5c0 -92 1.66699 -174.833 5 -248.5s11 -136.334 23 -188.001
s29.667 -91.334 53 -119.001s55 -41.5 95 -41.5zM369.997 2112c0 -24 1 -50 3 -78s9 -54 21 -78s31 -44 57 -60s63 -24 111 -24s85 8 111 24s45 36 57 60s19 50 21 78s3 54 3 78h240c0 -30.667 -2.83301 -63.667 -8.5 -99s-15.167 -70.833 -28.5 -106.5s-31 -70 -53 -103
s-49 -62.167 -81 -87.5s-69.5 -45.666 -112.5 -60.999s-92.5 -23 -148.5 -23s-105.5 7.66699 -148.5 23s-80.5 35.666 -112.5 60.999s-59 54.5 -81 87.5s-39.667 67.333 -53 103s-22.833 71.167 -28.5 106.5s-8.5 68.333 -8.5 99h240z" />
    <glyph glyph-name="obreve" unicode="&#x14f;" horiz-adv-x="1003" 
d="M502 -27c-72 0 -135 14.833 -189 44.5s-99 71 -135 124s-63 116.5 -81 190.5s-27 155.667 -27 245c0 86 9 165.167 27 237.5s45 134.666 81 186.999s81 93 135 122s117 43.5 189 43.5c70 0 132 -14.5 186 -43.5s99.167 -69.667 135.5 -122s63.833 -114.666 82.5 -186.999
s28 -151.5 28 -237.5c0 -89.333 -9.33301 -171 -28 -245s-46.167 -137.5 -82.5 -190.5s-81.5 -94.333 -135.5 -124s-116 -44.5 -186 -44.5zM500 187c23.333 0 43.333 6.33301 60 19s30.334 29.5 41.001 50.5s19 45 25 72s10.333 55 13 84s4.33398 57.667 5.00098 86
s1 54.5 1 78.5c0 23.333 -0.333008 49 -1 77s-2.33398 56.333 -5.00098 85s-7 56.5 -13 83.5s-14.333 51 -25 72s-24.167 37.833 -40.5 50.5s-36.166 19 -59.499 19c-24 0 -44.167 -6.33301 -60.5 -19s-29.833 -29.5 -40.5 -50.5s-18.834 -45 -24.501 -72
s-9.83398 -54.833 -12.501 -83.5s-4.16699 -57 -4.5 -85s-0.5 -53.667 -0.5 -77c0 -24 0.166992 -50.167 0.5 -78.5s1.83301 -57 4.5 -86s6.83398 -57 12.501 -84s13.667 -51 24 -72s23.666 -37.833 39.999 -50.5s36.5 -19 60.5 -19zM312 1728c0 -24 1 -50 3 -78
s9 -54 21 -78s31 -44 57 -60s63 -24 111 -24s85 8 111 24s45 36 57 60s19 50 21 78s3 54 3 78h240c0 -30.667 -2.83301 -63.667 -8.5 -99s-15.167 -70.833 -28.5 -106.5s-31 -70 -53 -103s-49 -62.167 -81 -87.5s-69.5 -45.666 -112.5 -60.999s-92.5 -23 -148.5 -23
s-105.5 7.66699 -148.5 23s-80.5 35.666 -112.5 60.999s-59 54.5 -81 87.5s-39.667 67.333 -53 103s-22.833 71.167 -28.5 106.5s-8.5 68.333 -8.5 99h240z" />
    <glyph glyph-name="Ohungarumlaut" unicode="&#x150;" horiz-adv-x="1127" 
d="M562 -32c-65.333 0 -122.503 11 -171.503 33s-91.167 52.667 -126.5 92s-64.333 85.833 -87 139.5s-40.667 112 -54 175s-22.666 129.5 -27.999 199.5s-8 141 -8 213c0 108 9.16699 208 27.5 300s46.833 170.667 85.5 236s87.834 115.833 147.501 151.5
s131.167 53.5 214.5 53.5s155.166 -17.833 215.499 -53.5s110 -86.167 149 -151.5s67.667 -144 86 -236s27.5 -192 27.5 -300c0 -72 -2.66699 -143 -8 -213s-14.833 -136.5 -28.5 -199.5s-32 -121.333 -55 -175s-52.167 -100.167 -87.5 -139.5s-77.666 -70 -126.999 -92
s-106.666 -33 -171.999 -33zM561.997 223c40 0 71.833 13.833 95.5 41.5s41.667 67.334 54 119.001s20.166 114.334 23.499 188.001s5 156.5 5 248.5c0 32 -0.5 65.5 -1.5 100.5s-3.5 71.333 -7.5 109s-9.83301 74.167 -17.5 109.5s-18.167 66.5 -31.5 93.5
s-29.833 48.667 -49.5 65s-43.167 24.5 -70.5 24.5s-50.666 -8.16699 -69.999 -24.5s-35.5 -38 -48.5 -65s-23.333 -58.167 -31 -93.5s-13.5 -71.833 -17.5 -109.5s-6.5 -74 -7.5 -109s-1.5 -68.5 -1.5 -100.5c0 -92 1.66699 -174.833 5 -248.5s11 -136.334 23 -188.001
s29.667 -91.334 53 -119.001s55 -41.5 95 -41.5zM688.997 1663l269 480l234 -194l-384 -384zM185.997 1663l269 480l234 -194l-384 -384z" />
    <glyph glyph-name="ohungarumlaut" unicode="&#x151;" horiz-adv-x="1004" 
d="M502 -27c-72 0 -135 14.833 -189 44.5s-99 71 -135 124s-63 116.5 -81 190.5s-27 155.667 -27 245c0 86 9 165.167 27 237.5s45 134.666 81 186.999s81 93 135 122s117 43.5 189 43.5c70 0 132 -14.5 186 -43.5s99.167 -69.667 135.5 -122s63.833 -114.666 82.5 -186.999
s28 -151.5 28 -237.5c0 -89.333 -9.33301 -171 -28 -245s-46.167 -137.5 -82.5 -190.5s-81.5 -94.333 -135.5 -124s-116 -44.5 -186 -44.5zM500 187c23.333 0 43.333 6.33301 60 19s30.334 29.5 41.001 50.5s19 45 25 72s10.333 55 13 84s4.33398 57.667 5.00098 86
s1 54.5 1 78.5c0 23.333 -0.333008 49 -1 77s-2.33398 56.333 -5.00098 85s-7 56.5 -13 83.5s-14.333 51 -25 72s-24.167 37.833 -40.5 50.5s-36.166 19 -59.499 19c-24 0 -44.167 -6.33301 -60.5 -19s-29.833 -29.5 -40.5 -50.5s-18.834 -45 -24.501 -72
s-9.83398 -54.833 -12.501 -83.5s-4.16699 -57 -4.5 -85s-0.5 -53.667 -0.5 -77c0 -24 0.166992 -50.167 0.5 -78.5s1.83301 -57 4.5 -86s6.83398 -57 12.501 -84s13.667 -51 24 -72s23.666 -37.833 39.999 -50.5s36.5 -19 60.5 -19zM616 1260l269 480l234 -194l-384 -384z
M113 1260l269 480l234 -194l-384 -384z" />
    <glyph glyph-name="OE" unicode="&#x152;" horiz-adv-x="1617" 
d="M768 1536l773.999 0.000976562v-240h-474v-366h299v-258h-299v-432h490v-240h-790v96c-24.667 -38.667 -53.834 -68.834 -87.501 -90.501s-73.5 -32.5 -119.5 -32.5c-65.333 0 -122.5 10.833 -171.5 32.5s-91.167 51.667 -126.5 90s-64.333 83.833 -87 136.5
s-40.667 110 -54 172s-22.666 127.333 -27.999 196s-8 138.667 -8 210c0 109.333 9.16699 209.166 27.5 299.499s46.833 167.833 85.5 232.5s87.834 114.834 147.501 150.501s131.167 53.5 214.5 53.5c44 0 83 -10.5 117 -31.5s64 -51.167 90 -90.5v112zM560.999 228.001
c40.667 0 74.499 10.335 101.499 31.002s48.167 50.334 63.5 89.001s26.166 86 32.499 142s9.5 119.667 9.5 191v203c0 30 -1.16699 61.5 -3.5 94.5s-6.5 65.167 -12.5 96.5s-14 61 -24 89s-22.667 52.667 -38 74s-33.666 38.166 -54.999 50.499s-46 18.5 -74 18.5
c-27.333 0 -50.666 -8 -69.999 -24s-35.5 -37.333 -48.5 -64s-23.333 -57.334 -31 -92.001s-13.5 -70.334 -17.5 -107.001s-6.5 -73.167 -7.5 -109.5s-1.5 -69.833 -1.5 -100.5c0 -90 1.66699 -171 5 -243s11 -133.167 23 -183.5s29.667 -88.833 53 -115.5s55 -40 95 -40z
" />
    <glyph glyph-name="oe" unicode="&#x153;" horiz-adv-x="1539" 
d="M932 536c0 -36 2.33105 -74.665 6.99805 -115.998s12.5 -79.333 23.5 -114s25.5 -63.5 43.5 -86.5s40 -34.5 66 -34.5c22.667 0 43.334 9 62.001 27s35 38.333 49 61s25.167 44 33.5 64s13.5 32 15.5 36l218 -83c-13.333 -46.667 -31 -89.334 -53 -128.001
s-48.667 -72 -80 -100s-67.666 -49.833 -108.999 -65.5s-88.333 -23.5 -141 -23.5c-62 0 -114.833 14 -158.5 42s-82.834 67 -117.501 117c-34 -50 -76 -89 -126 -117s-104.333 -42 -163 -42c-72 0 -135 14.833 -189 44.5s-99 71 -135 124s-63 116.5 -81 190.5
s-27 155.667 -27 245c0 86 9 165.167 27 237.5s45 134.666 81 186.999s81 93 135 122s117 43.5 189 43.5c58.667 0 113.334 -15 164.001 -45s93 -71.667 127 -125c36 54 76.5 95.833 121.5 125.5s99.167 44.5 162.5 44.5c68.667 0 128.667 -14.5 180 -43.5
s94.333 -69.833 129 -122.5s60.667 -115.667 78 -189s26 -154 26 -242l-4 -14c-1.33301 -4 -2.33301 -7.83301 -3 -11.5s-1 -6.5 -1 -8.5h-550zM499.998 187.002c23.333 0 43.333 6.33301 60 19s30.334 29.5 41.001 50.5s19 45 25 72s10.333 55 13 84
s4.33398 57.667 5.00098 86s1 54.5 1 78.5c0 23.333 -0.333008 49 -1 77s-2.33398 56.333 -5.00098 85s-7 56.5 -13 83.5s-14.333 51 -25 72s-24.167 37.833 -40.5 50.5s-36.166 19 -59.499 19c-24 0 -44.167 -6.33301 -60.5 -19s-29.833 -29.5 -40.5 -50.5
s-18.834 -45 -24.501 -72s-9.83398 -54.833 -12.501 -83.5s-4.16699 -57 -4.5 -85s-0.5 -53.667 -0.5 -77c0 -24 0.166992 -50.167 0.5 -78.5s1.83301 -57 4.5 -86s6.83398 -57 12.501 -84s13.667 -51 24 -72s23.666 -37.833 39.999 -50.5s36.5 -19 60.5 -19zM1207 702.002
c0 38 -2.5 73.333 -7.5 106s-12.833 60.834 -23.5 84.501s-24.5 42.334 -41.5 56.001s-37.833 20.5 -62.5 20.5c-17.333 0 -34.5 -6.83301 -51.5 -20.5s-32 -32.334 -45 -56.001s-23.5 -51.834 -31.5 -84.501s-12 -68 -12 -106h275z" />
    <glyph glyph-name="Racute" unicode="&#x154;" horiz-adv-x="1156" 
d="M142 -12v1536l364 12c84 0 160.667 -8.16699 230 -24.5s128.833 -42 178.5 -77s88 -79.5 115 -133.5s40.5 -118.333 40.5 -193c0 -50 -5.33301 -95 -16 -135s-25.667 -75.667 -45 -107s-42.5 -59 -69.5 -83s-56.833 -45.333 -89.5 -64c0 -0.666992 4 -10.667 12 -30
l31.5 -76l44 -107l50.5 -122l139 -331l-295 -80l-274 700h-117v-661zM441 895l102 0.000976562c30 0 58.667 2.5 86 7.5s51.5 15 72.5 30s37.667 36.167 50 63.5s18.5 63.666 18.5 108.999c0 36 -4.83301 66.167 -14.5 90.5s-23 44 -40 59s-37 25.667 -60 32
s-47.833 9.5 -74.5 9.5h-140v-401zM484 1730l297 447l227 -202l-411 -346z" />
    <glyph glyph-name="racute" unicode="&#x155;" horiz-adv-x="831" 
d="M124 1128l287.998 24.001v-185c16.667 22 36.334 44.833 59.001 68.5s48.5 45.167 77.5 64.5s61.167 35.333 96.5 48s74 19 116 19c3.33301 0 7 -0.166992 11 -0.5s7.66699 -0.833008 11 -1.5c4 -0.666992 8.33301 -1.33398 13 -2.00098v-343l-95 29
c-32 10 -64.333 15 -97 15c-32 0 -63.667 -7 -95 -21s-63.666 -39 -96.999 -75v-756l-288 -24v1140zM219.998 1346l297 447l227 -202l-411 -346z" />
    <glyph glyph-name="Rcommaaccent" unicode="&#x156;" horiz-adv-x="1158" 
d="M142 -12v1536l364 12c84 0 160.667 -8.16699 230 -24.5s128.833 -42 178.5 -77s88 -79.5 115 -133.5s40.5 -118.333 40.5 -193c0 -50 -5.33301 -95 -16 -135s-25.667 -75.667 -45 -107s-42.5 -59 -69.5 -83s-56.833 -45.333 -89.5 -64c0 -0.666992 4 -10.667 12 -30
l31.5 -76l44 -107l50.5 -122l139 -331l-295 -80l-274 700h-117v-661zM441 895l102 0.000976562c30 0 58.667 2.5 86 7.5s51.5 15 72.5 30s37.667 36.167 50 63.5s18.5 63.666 18.5 108.999c0 36 -4.83301 66.167 -14.5 90.5s-23 44 -40 59s-37 25.667 -60 32
s-47.833 9.5 -74.5 9.5h-140v-401zM766 -89.999l0.000976562 -288.001c0 -36 -3.5 -67.667 -10.5 -95s-16 -51.166 -27 -71.499s-23.833 -37.5 -38.5 -51.5s-29.334 -25.333 -44.001 -34c-35.333 -21.333 -75.333 -33.333 -120 -36v192c24 0 42.5 5 55.5 15s22.5 21 28.5 33
c7.33301 14 11.333 30 12 48h-144v288h288z" />
    <glyph glyph-name="rcommaaccent" unicode="&#x157;" horiz-adv-x="830" 
d="M125 1128l287.998 24.001v-185c16.667 22 36.334 44.833 59.001 68.5s48.5 45.167 77.5 64.5s61.167 35.333 96.5 48s74 19 116 19c3.33301 0 7 -0.166992 11 -0.5s7.66699 -0.833008 11 -1.5c4 -0.666992 8.33301 -1.33398 13 -2.00098v-343l-95 29
c-32 10 -64.333 15 -97 15c-32 0 -63.667 -7 -95 -21s-63.666 -39 -96.999 -75v-756l-288 -24v1140zM424.998 -89.999l0.000976562 -288.001c0 -36 -3.5 -67.667 -10.5 -95s-16 -51.166 -27 -71.499s-23.833 -37.5 -38.5 -51.5s-29.334 -25.333 -44.001 -34
c-35.333 -21.333 -75.333 -33.333 -120 -36v192c24 0 42.5 5 55.5 15s22.5 21 28.5 33c7.33301 14 11.333 30 12 48h-144v288h288z" />
    <glyph glyph-name="Rcaron" unicode="&#x158;" horiz-adv-x="1156" 
d="M142 -12v1536l364 12c84 0 160.667 -8.16699 230 -24.5s128.833 -42 178.5 -77s88 -79.5 115 -133.5s40.5 -118.333 40.5 -193c0 -50 -5.33301 -95 -16 -135s-25.667 -75.667 -45 -107s-42.5 -59 -69.5 -83s-56.833 -45.333 -89.5 -64c0 -0.666992 4 -10.667 12 -30
l31.5 -76l44 -107l50.5 -122l139 -331l-295 -80l-274 700h-117v-661zM441 895l102 0.000976562c30 0 58.667 2.5 86 7.5s51.5 15 72.5 30s37.667 36.167 50 63.5s18.5 63.666 18.5 108.999c0 36 -4.83301 66.167 -14.5 90.5s-23 44 -40 59s-37 25.667 -60 32
s-47.833 9.5 -74.5 9.5h-140v-401zM226 1630l240 480h202l230 -480h-250l-96 290l-116 -290h-210z" />
    <glyph glyph-name="rcaron" unicode="&#x159;" horiz-adv-x="831" 
d="M124 1128l287.998 24.001v-185c16.667 22 36.334 44.833 59.001 68.5s48.5 45.167 77.5 64.5s61.167 35.333 96.5 48s74 19 116 19c3.33301 0 7 -0.166992 11 -0.5s7.66699 -0.833008 11 -1.5c4 -0.666992 8.33301 -1.33398 13 -2.00098v-343l-95 29
c-32 10 -64.333 15 -97 15c-32 0 -63.667 -7 -95 -21s-63.666 -39 -96.999 -75v-756l-288 -24v1140zM255.998 1728l116 -290l96 290h250l-230 -480h-202l-240 480h210z" />
    </font>
</defs>
</svg>
